<?xml version="1.0" encoding="UTF-8" standalone="no"?>
<svg
   xmlns:dc="http://purl.org/dc/elements/1.1/"
   xmlns:cc="http://creativecommons.org/ns#"
   xmlns:rdf="http://www.w3.org/1999/02/22-rdf-syntax-ns#"
   xmlns:svg="http://www.w3.org/2000/svg"
   xmlns="http://www.w3.org/2000/svg"
   xmlns:sodipodi="http://sodipodi.sourceforge.net/DTD/sodipodi-0.dtd"
   xmlns:inkscape="http://www.inkscape.org/namespaces/inkscape"
   id="Layer_1"
   data-name="Layer 1"
   viewBox="0 0 49.52 63"
   version="1.1"
   sodipodi:docname="firbank-logo.svg"
   inkscape:version="0.92.4 (unknown)">
  <metadata
     id="metadata219">
    <rdf:RDF>
      <cc:Work
         rdf:about="">
        <dc:format>image/svg+xml</dc:format>
        <dc:type
           rdf:resource="http://purl.org/dc/dcmitype/StillImage" />
        <dc:title>logo-secondary</dc:title>
      </cc:Work>
    </rdf:RDF>
  </metadata>
  <sodipodi:namedview
     pagecolor="#ffffff"
     bordercolor="#666666"
     borderopacity="1"
     objecttolerance="10"
     gridtolerance="10"
     guidetolerance="10"
     inkscape:pageopacity="0"
     inkscape:pageshadow="2"
     inkscape:window-width="1920"
     inkscape:window-height="1009"
     id="namedview217"
     showgrid="false"
     inkscape:zoom="7.4920635"
     inkscape:cx="36.061813"
     inkscape:cy="28.78357"
     inkscape:window-x="1920"
     inkscape:window-y="24"
     inkscape:window-maximized="1"
     inkscape:current-layer="Layer_1" />
  <defs
     id="defs4">
    <style
       id="style2">.cls-1{fill:#fff}.cls-2{fill:#231f20}.cls-3{fill:#639689}.cls-11,.cls-12,.cls-14,.cls-4,.cls-6{fill:none}.cls-11,.cls-12,.cls-14,.cls-4{stroke:#231f20}.cls-4{stroke-width:.58px}.cls-5{fill:#006b54}.cls-6{stroke:#006b54;stroke-width:.18px}.cls-7{fill:#ffd007}.cls-8{fill:#7ab0db}.cls-9{fill:#e23e43}.cls-10{fill:#ffd119}.cls-11{stroke-width:.47px}.cls-12{stroke-width:.29px}.cls-13{fill:#dadbdb}.cls-14{stroke-width:.59px}</style>
  </defs>
  <title
     id="title6">logo-secondary</title>
  <path
     class="cls-1"
     d="M50 44.49a3.61 3.61 0 0 0 .12-2.35 3.09 3.09 0 0 0-.46-.94L49.6 40a2.29 2.29 0 0 0-.8-1.7 2.34 2.34 0 0 0-.8-.44 3.61 3.61 0 0 0-1.29-2.21A3.45 3.45 0 0 0 44 35l-3.4.75 3.14 1.52c.14.07.38.21.43.37a1 1 0 0 1-.13.61l-.1.17a4.29 4.29 0 0 1-2.52.26 5.15 5.15 0 0 0-1.46 0V18.86l-.18-.11V18h-8.57l-.12-.25H32a1.43 1.43 0 0 0 .35 0 1.33 1.33 0 0 0 1.2-1.18 1.47 1.47 0 0 0 .05-.38 1.6 1.6 0 0 0-.4-1.05v-.16a1.32 1.32 0 0 0 .35-.75 1.48 1.48 0 0 0 .05-.38 1.57 1.57 0 0 0-.1-.54L36 7.9v-.11l.34-.73-8.24-4.42v-.2L25.24 0l-2.71 2.47v.18l-8.3 4.42 2.86 6.06a1.55 1.55 0 0 0-.15.66 1.6 1.6 0 0 0 .4 1.05v.24a1.6 1.6 0 0 0 1.21 2.66h1l-.12.25h-8.67v20.7a5.23 5.23 0 0 0-1.17 0 4.61 4.61 0 0 1-2.49-.22l-.1-.18a1 1 0 0 1-.13-.62c0-.17.29-.3.43-.37l3.14-1.52L7 35a3.44 3.44 0 0 0-2.7.61A3.61 3.61 0 0 0 3 37.85a2.35 2.35 0 0 0-.8.43 2.29 2.29 0 0 0-.8 1.7l-.06 1.21a3.1 3.1 0 0 0-.46.94 3.49 3.49 0 0 0 0 2.13 3.21 3.21 0 0 0 .92 1.82l.22.29a3 3 0 0 0-.25 3.81 2.62 2.62 0 0 0 2.26 1 8.4 8.4 0 0 0 2.31-.4 5.21 5.21 0 0 0-.53 4.05 3.23 3.23 0 0 0 .91 1.81l.22.29a3 3 0 0 0-.25 3.82 2.64 2.64 0 0 0 2.26 1 12.89 12.89 0 0 0 4.67-1.3h.12l.76 2.43.7-2.56c1.29-.1 2.26-.15 2.34-.15L18.8 60l-.06-.67a5 5 0 0 0 .61-.59 34.41 34.41 0 0 1 5.88-.47h.11a34.53 34.53 0 0 1 5.86.46 5.13 5.13 0 0 0 .57.56l-.07.75 1.26.06c.08 0 1 .05 2.3.15L36 63l.8-2.57h.24c2 .93 5.42 2.11 6.78.27a3 3 0 0 0-.25-3.82l.22-.29a3.16 3.16 0 0 0 .91-1.84 6 6 0 0 0 .11-1.88 5.5 5.5 0 0 0-.81-2.28 9.39 9.39 0 0 0 2.85.57 2.62 2.62 0 0 0 2.26-1 3 3 0 0 0-.25-3.82l.23-.3a3.74 3.74 0 0 0 .91-1.55zm-33.49 6.65l-1.2.31a5.07 5.07 0 0 1 1.56-.8zm17.86.09l-.37-.45a5.35 5.35 0 0 1 1.21.69z"
     transform="translate(-.74)"
     id="path8" />
  <path
     class="cls-2"
     d="M28.74 16.52l1.27 2.68h-3.86l-1.24-2.68h3.83zM21.04 16.52l-1.26 2.68h3.86l1.23-2.68h-3.83z"
     id="path10" />
  <path
     class="cls-2"
     d="M32.22 14.41a.4.4 0 0 0 0-.8H18.78a.4.4 0 1 0 0 .8zM32.22 16.76a.4.4 0 0 0 0-.8H18.78a.4.4 0 1 0 0 .8z"
     transform="translate(-.74)"
     id="path12" />
  <path
     class="cls-2"
     d="M18.03 14.41h13.45v1.55H18.03z"
     id="path14" />
  <path
     class="cls-3"
     d="M38.45 41.64A31.67 31.67 0 0 1 47 44.81a1.17 1.17 0 0 0 1.71-.57c.24.31-1.36 1.82-1.3 2.26s1.73 1.61.68 3-5.57-.78-5.57-.78a29.27 29.27 0 0 0-6.64-1.77"
     transform="translate(-.74)"
     id="path16" />
  <path
     class="cls-4"
     d="M38.45 41.64A31.67 31.67 0 0 1 47 44.81a1.17 1.17 0 0 0 1.71-.57c.24.31-1.36 1.82-1.3 2.26s1.73 1.61.68 3-5.57-.78-5.57-.78a29.27 29.27 0 0 0-6.64-1.77"
     transform="translate(-.74)"
     id="path18" />
  <path
     class="cls-3"
     d="M12.49 41.64a31.64 31.64 0 0 0-8.6 3.17 1.17 1.17 0 0 1-1.71-.57c-.25.31 1.36 1.82 1.3 2.26s-1.73 1.61-.68 3 5.57-.78 5.57-.78A29.26 29.26 0 0 1 15 46.93"
     transform="translate(-.74)"
     id="path20" />
  <path
     class="cls-4"
     d="M12.49 41.64a31.64 31.64 0 0 0-8.6 3.17 1.17 1.17 0 0 1-1.71-.57c-.25.31 1.36 1.82 1.3 2.26s-1.73 1.61-.68 3 5.57-.78 5.57-.78A29.29 29.29 0 0 1 15 46.93"
     transform="translate(-.74)"
     id="path22" />
  <path
     class="cls-5"
     d="M17.4 49.31c-3.57.37-5.79 4.68-5.79 4.68S9.3 55 9.18 55.13s-1.33 1-2-.2l-.09-.19A4.1 4.1 0 0 1 6.95 53c.28-3.43 6.49-7.23 7.32-7.69"
     transform="translate(-.74)"
     id="path24" />
  <path
     class="cls-4"
     d="M17.4 49.31c-3.57.37-5.79 4.68-5.79 4.68S9.3 55 9.18 55.13s-1.33 1-2-.2l-.09-.19A4.1 4.1 0 0 1 6.95 53c.28-3.43 6.49-7.23 7.32-7.69"
     transform="translate(-.74)"
     id="path26" />
  <path
     class="cls-5"
     d="M10.93 41.27c-.83.46-8-1.9-8.88 1.21a2.52 2.52 0 0 0 .14 1.74l.09.19c.66 1.16 1.87.29 2 .2s2.43-1.14 2.43-1.14A43.17 43.17 0 0 1 12 41.73s.6-2.15-2.29-1.83-3.85-.74-3.78-1a1.82 1.82 0 0 1 .8-2.7s-2.53-.55-2.66 2.72c0 0-1.42-.18-1.48 1.11 0 0 1.23-.8 1.54-.13a1.73 1.73 0 0 0 1.36 1"
     transform="translate(-.74)"
     id="path28" />
  <path
     class="cls-4"
     d="M10.93 41.27c-.83.46-8-1.9-8.88 1.21a2.52 2.52 0 0 0 .14 1.74l.09.19c.66 1.16 1.87.29 2 .2s2.43-1.14 2.43-1.14A43.17 43.17 0 0 1 12 41.73s.6-2.15-2.29-1.83-3.85-.74-3.78-1a1.82 1.82 0 0 1 .8-2.7s-2.53-.55-2.66 2.72c0 0-1.42-.18-1.48 1.11 0 0 1.23-.8 1.54-.13a1.73 1.73 0 0 0 1.36 1"
     transform="translate(-.74)"
     id="path30" />
  <path
     class="cls-5"
     d="M40.07 41.27c.83.46 8-1.9 8.88 1.21a2.53 2.53 0 0 1-.14 1.74l-.09.19c-.67 1.16-1.87.29-2 .2s-2.43-1.14-2.43-1.14A43.21 43.21 0 0 0 39 41.73s-.6-2.15 2.29-1.83 3.85-.74 3.78-1a1.82 1.82 0 0 0-.8-2.7s2.53-.55 2.66 2.72c0 0 1.42-.18 1.48 1.11 0 0-1.23-.8-1.54-.13a1.73 1.73 0 0 1-1.36 1"
     transform="translate(-.74)"
     id="path32" />
  <path
     class="cls-4"
     d="M40.07 41.27c.83.46 8-1.9 8.88 1.21a2.53 2.53 0 0 1-.14 1.74l-.09.19c-.67 1.16-1.87.29-2 .2s-2.43-1.14-2.43-1.14A43.21 43.21 0 0 0 39 41.73s-.6-2.15 2.29-1.83 3.85-.74 3.78-1a1.82 1.82 0 0 0-.8-2.7s2.53-.55 2.66 2.72c0 0 1.42-.18 1.48 1.11 0 0-1.23-.8-1.54-.13a1.73 1.73 0 0 1-1.36 1"
     transform="translate(-.74)"
     id="path34" />
  <path
     class="cls-5"
     d="M33.15 49.31c3.57.37 5.79 4.68 5.79 4.68s2.31 1 2.43 1.13 1.33 1 2-.2l.09-.19A4.1 4.1 0 0 0 43.6 53c-.28-3.43-6.49-7.23-7.32-7.69"
     transform="translate(-.74)"
     id="path36" />
  <path
     class="cls-4"
     d="M33.15 49.31c3.57.37 5.79 4.68 5.79 4.68s2.31 1 2.43 1.13 1.33 1 2-.2l.09-.19A4.1 4.1 0 0 0 43.6 53c-.28-3.43-6.49-7.23-7.32-7.69"
     transform="translate(-.74)"
     id="path38" />
  <path
     class="cls-2"
     d="M38.57 38.77V19.19l.37.23v19.35s-.31 10.9-13.65 15.48c0 0-11.92-3.15-13.32-15.42-1.42-12.52 26.6-.05 26.6-.05"
     transform="translate(-.74)"
     id="path40" />
  <path
     class="cls-6"
     d="M38.57 38.77V19.19l.37.23v19.35s-.31 10.9-13.65 15.48c0 0-11.92-3.15-13.32-15.42-1.42-12.53 26.6-.06 26.6-.06z"
     transform="translate(-.74)"
     id="path42" />
  <path
     class="cls-7"
     d="M31.25 13.38l2.73-5.79-9.45-5.1h-.01l-9.45 5.1 2.74 5.79h13.44z"
     id="path44" />
  <path
     class="cls-4"
     d="M31.25 13.38l2.73-5.79-9.45-5.1h-.01l-9.45 5.1 2.74 5.79h13.44z"
     id="path46" />
  <path
     class="cls-7"
     d="M26.15 3v10.38H23V3l1.53-1.39L26.15 3z"
     id="path48" />
  <path
     class="cls-4"
     d="M26.15 3v10.38H23V3l1.53-1.39L26.15 3z"
     id="path50" />
  <path
     class="cls-2"
     d="M25.27 5.85a.72.72 0 1 0-.72-.72.72.72 0 0 0 .72.72M25.27 9a.72.72 0 1 0-.72-.72.72.72 0 0 0 .72.72M25.27 12.11a.72.72 0 1 0-.72-.72.72.72 0 0 0 .72.72"
     transform="translate(-.74)"
     id="path52" />
  <path
     class="cls-7"
     d="M32 14.18a.4.4 0 0 0 0-.8H18.55a.4.4 0 1 0 0 .8z"
     transform="translate(-.74)"
     id="path54" />
  <path
     class="cls-4"
     d="M32 14.18a.4.4 0 0 0 0-.8H18.55a.4.4 0 0 0 0 .8z"
     transform="translate(-.74)"
     id="path56" />
  <path
     class="cls-7"
     d="M32 16.53a.4.4 0 0 0 0-.8H18.55a.4.4 0 1 0 0 .8z"
     transform="translate(-.74)"
     id="path58" />
  <path
     class="cls-4"
     d="M32 16.53a.4.4 0 0 0 0-.8H18.55a.4.4 0 0 0 0 .8z"
     transform="translate(-.74)"
     id="path60" />
  <path
     class="cls-7"
     d="M17.81 14.18h13.45v1.55H17.81z"
     id="path62" />
  <path
     class="cls-4"
     d="M17.81 14.18h13.45v1.55H17.81z"
     id="path64" />
  <path
     class="cls-2"
     d="M30.61 15.59a.45.45 0 1 0-.45-.45.45.45 0 0 0 .45.45M29.17 15.59a.45.45 0 1 0-.45-.45.45.45 0 0 0 .45.45M21.83 15.59a.45.45 0 1 0-.45-.45.45.45 0 0 0 .45.45M20.39 15.59a.45.45 0 1 0-.45-.45.45.45 0 0 0 .45.45"
     transform="translate(-.74)"
     id="path66" />
  <rect
     class="cls-2"
     x="23.65"
     y="14.72"
     width="1.76"
     height=".84"
     rx=".36"
     ry=".36"
     id="rect68" />
  <path
     class="cls-7"
     d="M28.37 16.52l1.27 2.68h-3.86l-1.24-2.68h3.83z"
     id="path70" />
  <path
     class="cls-4"
     d="M28.37 16.52l1.27 2.68h-3.86l-1.24-2.68h3.83z"
     id="path72" />
  <path
     class="cls-7"
     d="M25.27 53.83V19.19h13.3v19.39s0 10.66-13.3 15.25"
     transform="translate(-.74)"
     id="path74" />
  <path
     class="cls-4"
     d="M25.27 53.83V19.19h13.3v19.39s-.05 10.66-13.3 15.25z"
     transform="translate(-.74)"
     id="path76" />
  <path
     class="cls-8"
     d="M25.27 53.83V19.19H12v19.39s0 10.66 13.3 15.25"
     transform="translate(-.74)"
     id="path78" />
  <path
     class="cls-4"
     d="M25.27 53.83V19.19H12v19.39s0 10.66 13.27 15.25z"
     transform="translate(-.74)"
     id="path80" />
  <path
     class="cls-9"
     d="M27.52 50.18V21.36H36V38a14 14 0 0 1-8.51 12.19"
     transform="translate(-.74)"
     id="path82" />
  <path
     class="cls-4"
     d="M27.52 50.18V21.36H36V38a14 14 0 0 1-8.48 12.18z"
     transform="translate(-.74)"
     id="path84" />
  <path
     class="cls-2"
     d="M32.39 10.15a1.31 1.31 0 0 0-.56-.71.29.29 0 0 1 .17-.18c.13-.05-.26 0-.39.07a1.26 1.26 0 0 0-.88 0 1.07 1.07 0 0 0-.66 1.35.83.83 0 0 0 1.06.54.75.75 0 0 1-.9-.58A1 1 0 0 1 31 9.47a1.05 1.05 0 0 1 1.34.68 1.51 1.51 0 0 1-.87 1.85 1.82 1.82 0 0 1-2.32-1.17 2.33 2.33 0 0 1 .21-1.71c.09-.2.63-1.26.63-1.26a1.82 1.82 0 0 0 .11-1.16.26.26 0 0 1 .27 0c.14.06-.15-.2-.33-.21a1.41 1.41 0 0 0-1.78-.88.26.26 0 0 1 0-.27c.06-.15-.25.2-.21.37a1.16 1.16 0 0 0-.49 1.36.9.9 0 0 0 1.15.58.74.74 0 0 0 .45-.94.58.58 0 0 0-.73-.37.52.52 0 0 1 .62.4.67.67 0 0 1-.49.8.73.73 0 0 1-.93-.47 1 1 0 0 1 .58-1.27 1.27 1.27 0 0 1 1.62.82 1.65 1.65 0 0 1-.14 1.19S29 8.85 28.88 9a2.49 2.49 0 0 0-.22.82c-.19-.07-.36-.09-.24 0a.4.4 0 0 1 .23.33 2.64 2.64 0 0 0 .14.77c-.21 0-.37.09-.23.09a.4.4 0 0 1 .35.19 2 2 0 0 0 2.44 1 1.67 1.67 0 0 0 1-2.11M18.15 10.15a1.32 1.32 0 0 1 .56-.71.29.29 0 0 0-.17-.17c-.13-.05.26 0 .39.07a1.27 1.27 0 0 1 .88 0 1.07 1.07 0 0 1 .65 1.35.83.83 0 0 1-1.06.54.75.75 0 0 0 .9-.58 1 1 0 0 0-.71-1.15 1.05 1.05 0 0 0-1.34.68 1.51 1.51 0 0 0 .83 1.82 1.82 1.82 0 0 0 2.33-1.17 2.33 2.33 0 0 0-.21-1.73l-.63-1.26a1.82 1.82 0 0 1-.12-1.13.27.27 0 0 0-.27 0c-.14.06.15-.2.33-.21a1.41 1.41 0 0 1 1.78-.88.27.27 0 0 0 0-.27c-.06-.15.25.2.21.37a1.17 1.17 0 0 1 .5 1.34.9.9 0 0 1-1.15.58.74.74 0 0 1-.46-.94.57.57 0 0 1 .73-.37.52.52 0 0 0-.62.4.67.67 0 0 0 .49.8.73.73 0 0 0 .93-.47 1 1 0 0 0-.58-1.27 1.27 1.27 0 0 0-1.62.82 1.65 1.65 0 0 0 .15 1.19s.68 1.06.77 1.25a2.52 2.52 0 0 1 .22.82c.19-.07.36-.09.24 0a.4.4 0 0 0-.22.33 2.68 2.68 0 0 1-.14.77c.21 0 .37.09.23.09a.41.41 0 0 0-.35.19 2 2 0 0 1-2.44 1 1.68 1.68 0 0 1-1-2.11M29.59 17.53a.67.67 0 0 0-.54-.34H27c-.45 0-.81.59-.81 1.31l-.92-2h3.84z"
     transform="translate(-.74)"
     id="path86" />
  <path
     class="cls-7"
     d="M20.67 16.52l-1.26 2.68h3.86l1.23-2.68h-3.83z"
     id="path88" />
  <path
     class="cls-4"
     d="M20.67 16.52l-1.26 2.68h3.86l1.23-2.68h-3.83z"
     id="path90" />
  <path
     class="cls-2"
     d="M20.93 17.56a.68.68 0 0 1 .54-.34h2c.45 0 .81.59.81 1.32l.92-2h-3.8z"
     transform="translate(-.74)"
     id="path92" />
  <path
     class="cls-2"
     d="M26.52 3.58l-.37-.23v10.03h.37v-9.8zM31.58 13.55l2.64-5.58-.23-.37-2.74 5.79M17.81 14.18h13.44v.34H17.81z"
     id="path94" />
  <path
     class="cls-7"
     d="M29.71 28.72l.42 3.38h-2.21l.58-3.57"
     id="path96" />
  <path
     class="cls-4"
     d="M29.71 28.72l.42 3.38h-2.21l.58-3.57"
     id="path98" />
  <path
     class="cls-2"
     d="M30.56 29.79l-.09-.79s-.29.48-1.36.41l-.08.56a2.82 2.82 0 0 0 .67.08l-.28.87h.43v-.9L30 30v.44l.36-.07-.15-.37a1.07 1.07 0 0 0 .35-.18"
     transform="translate(-.74)"
     id="path100" />
  <path
     class="cls-7"
     d="M29.87 28.73l.27-.21.25.24.28-.24.23.24.21-.24.27.24c0-1.35-.69-1.93-1.53-1.93s-1.53.58-1.53 1.93l.29-.26.25.24.28-.24.23.24.21-.24z"
     transform="translate(-.74)"
     id="path102" />
  <path
     class="cls-4"
     d="M29.87 28.73l.27-.21.25.24.28-.24.23.24.21-.24.27.24c0-1.35-.69-1.93-1.53-1.93s-1.53.58-1.53 1.93l.29-.26.25.24.28-.24.23.24.21-.24z"
     transform="translate(-.74)"
     id="path104" />
  <path
     class="cls-10"
     d="M33.83 28.72l.42 3.38h-2.21l.58-3.57"
     id="path106" />
  <path
     class="cls-11"
     d="M33.83 28.72l.42 3.38h-2.21l.58-3.57"
     id="path108" />
  <path
     class="cls-2"
     d="M34.68 29.79L34.6 29s-.29.48-1.36.41l-.08.56a2.84 2.84 0 0 0 .67.08l-.28.87h.43v-.9h.15v.44l.36-.07-.16-.39a1.08 1.08 0 0 0 .35-.18"
     transform="translate(-.74)"
     id="path110" />
  <path
     class="cls-7"
     d="M34 28.73l.27-.21.25.24.28-.24.23.24.21-.24.27.24c0-1.35-.69-1.93-1.53-1.93s-1.53.58-1.53 1.93l.29-.26.25.24.28-.24.23.24.21-.24z"
     transform="translate(-.74)"
     id="path112" />
  <path
     class="cls-4"
     d="M34 28.73l.27-.21.25.24.28-.24.23.24.21-.24.27.24c0-1.35-.69-1.93-1.53-1.93s-1.53.58-1.53 1.93l.29-.26.25.24.28-.24.23.24.21-.24z"
     transform="translate(-.74)"
     id="path114" />
  <path
     class="cls-7"
     d="M31.73 36.87l.42 3.38h-2.21l.58-3.57"
     id="path116" />
  <path
     class="cls-4"
     d="M31.73 36.87l.42 3.38h-2.21l.58-3.57"
     id="path118" />
  <path
     class="cls-2"
     d="M32.58 37.94l-.08-.82s-.29.48-1.36.41l-.08.56a2.79 2.79 0 0 0 .67.08l-.28.87h.43v-.9h.15v.44l.36-.07-.15-.41a1.07 1.07 0 0 0 .35-.18"
     transform="translate(-.74)"
     id="path120" />
  <path
     class="cls-7"
     d="M31.89 36.88l.27-.21.25.24.28-.24.23.24.21-.24.27.24c0-1.35-.68-1.93-1.53-1.93s-1.53.58-1.53 1.93l.29-.26.25.24.28-.24.23.24.21-.24z"
     transform="translate(-.74)"
     id="path122" />
  <path
     class="cls-4"
     d="M31.89 36.88l.27-.21.25.24.28-.24.23.24.21-.24.27.24c0-1.35-.68-1.93-1.53-1.93s-1.53.58-1.53 1.93l.29-.26.25.24.28-.24.23.24.21-.24z"
     transform="translate(-.74)"
     id="path124" />
  <path
     class="cls-12"
     d="M14.12 28.62h.84"
     id="path126" />
  <path
     class="cls-2"
     d="M18.14 38.59l.29-.67.3.67.72-.09-.43.59.44.59-.73-.07-.28.66-.31-.66-.72.09.43-.6-.44-.58.73.07zM18.14 47.36l.29-.67.3.67.72-.09-.43.6.44.58-.73-.07-.28.67-.31-.67-.72.09.43-.59-.44-.59.73.07zM22.02 42.85l.29-.67.3.66.73-.08-.43.59.43.58-.72-.07-.29.67-.3-.66-.72.08.42-.59-.43-.59.72.08zM14.45 42.85l.28-.67.3.66.73-.08-.43.59.44.58-.73-.07-.28.67-.31-.66-.72.08.43-.59-.44-.59.73.08z"
     id="path128" />
  <path
     class="cls-13"
     d="M17.79 47.01l.29-.67.3.66.72-.08-.42.59.43.59-.72-.08-.29.67-.3-.66-.73.09.43-.6-.44-.58.73.07z"
     id="path130" />
  <path
     class="cls-4"
     d="M17.79 47.01l.29-.67.3.66.72-.08-.42.59.43.59-.72-.08-.29.67-.3-.66-.73.09.43-.6-.44-.58.73.07z"
     id="path132" />
  <path
     class="cls-13"
     d="M21.73 42.51l.29-.67.3.67.73-.09-.43.6.44.58-.73-.08-.29.68-.3-.67-.72.09.42-.59-.43-.59.72.07z"
     id="path134" />
  <path
     class="cls-4"
     d="M21.73 42.51l.29-.67.3.67.73-.09-.43.6.44.58-.73-.08-.29.68-.3-.67-.72.09.42-.59-.43-.59.72.07z"
     id="path136" />
  <path
     class="cls-13"
     d="M13.92 42.51l.29-.67.3.67.72-.09-.42.6.43.58-.72-.08-.29.68-.3-.67-.72.09.42-.59-.44-.59.73.07z"
     id="path138" />
  <path
     class="cls-4"
     d="M13.92 42.51l.29-.67.3.67.72-.09-.42.6.43.58-.72-.08-.29.68-.3-.67-.72.09.42-.59-.44-.59.73.07z"
     id="path140" />
  <path
     class="cls-13"
     d="M18.58 36.14l6.67 6.08V36l-6.66-6L12 36.07v2.76a13.35 13.35 0 0 0 .55 2.91z"
     transform="translate(-.74)"
     id="path142" />
  <path
     class="cls-4"
     d="M18.58 36.14l6.67 6.08V36l-6.66-6L12 36.07v2.76a13.35 13.35 0 0 0 .55 2.91z"
     transform="translate(-.74)"
     id="path144" />
  <path
     class="cls-2"
     d="M15.53 32.56h4.64v3.21h-4.64z"
     id="path146" />
  <path
     class="cls-1"
     d="M16.53 32.6v2.88a1.23 1.23 0 0 0 .82-.06 6 6 0 0 1 1.23-.29v-2.7s-.71-.7-2.06.18"
     transform="translate(-.74)"
     id="path148" />
  <path
     class="cls-4"
     d="M16.53 32.6v2.88a1.23 1.23 0 0 0 .82-.06 6 6 0 0 1 1.23-.29v-2.7s-.7-.71-2.05.17z"
     transform="translate(-.74)"
     id="path150" />
  <path
     class="cls-1"
     d="M20.64 32.6v2.88a1.24 1.24 0 0 1-.82-.06 6.08 6.08 0 0 0-1.23-.29v-2.7s.7-.7 2.05.18"
     transform="translate(-.74)"
     id="path152" />
  <path
     class="cls-4"
     d="M20.64 32.6v2.88a1.24 1.24 0 0 1-.82-.06 6.08 6.08 0 0 0-1.23-.29v-2.7s.7-.71 2.05.17z"
     transform="translate(-.74)"
     id="path154" />
  <path
     class="cls-7"
     d="M15.55 27.12a3 3 0 0 1 .45-1.57c.65-.76 1.77-2 1.69-3.39a1.77 1.77 0 0 0-2.25-1.61 1.67 1.67 0 0 0-1.42 1.83s0 .51.07.79a2.82 2.82 0 0 1-.28 1.64s.72-.09.83-1.18a1.59 1.59 0 0 0 1-.49s-1.23.18-1.21-.91A1.11 1.11 0 0 1 15.61 21a1.32 1.32 0 0 1 1.65 1.22 3.8 3.8 0 0 1-1.15 2.5 4 4 0 0 0-1 2.39"
     transform="translate(-.74)"
     id="path156" />
  <path
     class="cls-4"
     d="M15.55 27.12a3 3 0 0 1 .45-1.57c.65-.76 1.77-2 1.69-3.39a1.77 1.77 0 0 0-2.25-1.61 1.67 1.67 0 0 0-1.42 1.83s0 .51.07.79a2.82 2.82 0 0 1-.28 1.64s.72-.09.83-1.18a1.59 1.59 0 0 0 1-.49s-1.23.18-1.21-.91A1.11 1.11 0 0 1 15.61 21a1.32 1.32 0 0 1 1.65 1.22 3.8 3.8 0 0 1-1.15 2.5 4 4 0 0 0-1 2.39"
     transform="translate(-.74)"
     id="path158" />
  <path
     class="cls-7"
     d="M21.5 33.28v-6.16h-.61v5.62l.61.54z"
     id="path160" />
  <path
     class="cls-4"
     d="M21.5 33.28v-6.16h-.61v5.62l.61.54z"
     id="path162" />
  <path
     class="cls-7"
     d="M22.3 22.74l1.11 4.38h-4.42l1.11-4.38h2.2z"
     id="path164" />
  <path
     class="cls-4"
     d="M22.3 22.74l1.11 4.38h-4.42l1.11-4.38h2.2z"
     id="path166" />
  <path
     class="cls-7"
     d="M23 22.74c0 .27-.7.49-1.1.49s-1.1-.22-1.1-.49z"
     transform="translate(-.74)"
     id="path168" />
  <path
     class="cls-4"
     d="M23 22.74c0 .27-.7.49-1.1.49s-1.1-.22-1.1-.49z"
     transform="translate(-.74)"
     id="path170" />
  <path
     class="cls-7"
     d="M22.31 20.88c0-.29-.17-.46-.38-.46s-.38.17-.38.46a.65.65 0 0 0 .08.31v1.54h.6V21.2a.67.67 0 0 0 .08-.31"
     transform="translate(-.74)"
     id="path172" />
  <path
     class="cls-4"
     d="M22.31 20.88c0-.29-.17-.46-.38-.46s-.38.17-.38.46a.65.65 0 0 0 .08.31v1.54h.6V21.2a.67.67 0 0 0 .08-.32z"
     transform="translate(-.74)"
     id="path174" />
  <path
     class="cls-3"
     d="M25.33 57.1a31.22 31.22 0 0 1 11.95 2.13s4.52 2.19 5.57.77-.62-2.6-.68-3 1.55-1.95 1.3-2.26a1.17 1.17 0 0 1-1.71.58 33.19 33.19 0 0 0-16.45-3.94 33.17 33.17 0 0 0-16.49 3.97 1.17 1.17 0 0 1-1.71-.58C6.84 55 8.45 56.55 8.39 57s-1.73 1.61-.68 3 5.57-.77 5.57-.77a31.21 31.21 0 0 1 11.94-2.13z"
     transform="translate(-.74)"
     id="path176" />
  <path
     class="cls-4"
     d="M25.33 57.1a31.22 31.22 0 0 1 11.95 2.13s4.52 2.19 5.57.77-.62-2.6-.68-3 1.55-1.95 1.3-2.26a1.17 1.17 0 0 1-1.71.58 33.19 33.19 0 0 0-16.45-3.94 33.17 33.17 0 0 0-16.49 3.97 1.17 1.17 0 0 1-1.71-.58C6.84 55 8.45 56.55 8.39 57s-1.73 1.61-.68 3 5.57-.77 5.57-.77a31.21 31.21 0 0 1 11.94-2.13z"
     transform="translate(-.74)"
     id="path178" />
  <path
     class="cls-5"
     d="M37.42 59.28a3.3 3.3 0 0 0-.62-2.21 9.65 9.65 0 0 0-1.1-.51 4.24 4.24 0 0 1 .36 2.13 3.75 3.75 0 0 0-1.75-2.53 11 11 0 0 0-1.82-.48c.74.83.51 3.26.51 3.26s2.16.11 4.42.34"
     transform="translate(-.74)"
     id="path180" />
  <path
     class="cls-4"
     d="M37.42 59.28a3.3 3.3 0 0 0-.62-2.21 9.65 9.65 0 0 0-1.1-.51 4.24 4.24 0 0 1 .36 2.13 3.75 3.75 0 0 0-1.75-2.53 11 11 0 0 0-1.82-.48c.74.83.51 3.26.51 3.26s2.17.06 4.42.34z"
     transform="translate(-.74)"
     id="path182" />
  <path
     class="cls-2"
     d="M31.45 57.6s.88 1.28 1.56 1.34v-1zM35.7 56.57a4.53 4.53 0 0 1 .36 2.13 4.3 4.3 0 0 0-1.75-2.53s1.1.7 1.39.4"
     transform="translate(-.74)"
     id="path184" />
  <path
     class="cls-5"
     d="M13.11 59.28a3.31 3.31 0 0 1 .62-2.21 9.54 9.54 0 0 1 1.1-.51 4.23 4.23 0 0 0-.36 2.13 3.75 3.75 0 0 1 1.75-2.53 11 11 0 0 1 1.78-.48c-.74.83-.51 3.26-.51 3.26s-2.16.11-4.42.34"
     transform="translate(-.74)"
     id="path186" />
  <path
     class="cls-11"
     d="M13.11 59.28a3.31 3.31 0 0 1 .62-2.21 9.54 9.54 0 0 1 1.1-.51 4.23 4.23 0 0 0-.36 2.13 3.75 3.75 0 0 1 1.75-2.53 11 11 0 0 1 1.78-.48c-.74.83-.51 3.26-.51 3.26s-2.12.06-4.38.34z"
     transform="translate(-.74)"
     id="path188" />
  <path
     class="cls-2"
     d="M19.09 57.6s-.88 1.28-1.56 1.34v-1zM14.83 56.57a4.5 4.5 0 0 0-.36 2.13 4.3 4.3 0 0 1 1.75-2.53s-1.1.7-1.39.4"
     transform="translate(-.74)"
     id="path190" />
  <path
     class="cls-1"
     d="M11.51 57c0-.32-.13-1.15-.16-1.32a.26.26 0 0 0 0-.08h-.08l.2-.1.15-.09a.22.22 0 0 0-.08.07.46.46 0 0 0 0 .24l.06.65c0 .35.05.61.06.73s0 .18 0 .2 0 0-.13-.09l-1.12-1c-.1-.09-.14-.09-.22-.08h-.08l.23-.11.18-.1h.06-.07a.05.05 0 0 0 0 .05.92.92 0 0 0 .14.14zM12.69 56c.08.2.15.36.2.44s.06.1.13.08h.1l-.25.1-.2.09h.06v-.14c0-.07-.09-.25-.18-.45l-.15-.36-.19-.44c0-.07-.07-.09-.12-.09h-.07l.21-.08.2-.09c-.05 0-.05.07 0 .15s0 .12.18.44zM13.71 56c.06.17.1.22.16.22h.11l-.23.07-.2.07h.08v-.29l-.39-1.21v-.12c0-.01.07 0 .09 0l.91.51.69.39-.38-1.07c0-.14-.08-.18-.15-.18h-.11l.22-.06.18-.07c-.07 0-.06.09 0 .21l.4 1.24v.16c0 .01 0 0-.2-.09l-.74-.39-.8-.39zM15.8 55.45a.85.85 0 0 1-.42-.58.89.89 0 0 1 .1-.65.9.9 0 0 1 .6-.39 1.71 1.71 0 0 1 .32 0h.23V54.22c0 .05 0 0 0 0a.3.3 0 0 0-.14-.2.75.75 0 0 0-.46 0 .68.68 0 0 0-.46.28.75.75 0 0 0-.06.61.8.8 0 0 0 1 .6.52.52 0 0 0 .35-.2.42.42 0 0 0 0-.2 2.37 2.37 0 0 1 0 .29.07.07 0 0 1 0 .08 1.27 1.27 0 0 1-.38.14 1 1 0 0 1-.77-.06M17.73 54.57c0 .21.07.38.1.47s0 .11.11.1h.12-.48.07v-.13c0-.06 0-.27-.08-.48l-.07-.38c-.07-.34-.08-.4-.09-.47s0-.11-.1-.11h-.09.43-.05c-.06 0-.07.06-.06.14s0 .13.09.47zM19.1 54.34c0 .21.06.39.08.48s0 .11.1.11h.12-.48.07v-.13c0-.06 0-.27-.06-.48l-.14-.93-.33.05c-.13 0-.19 0-.21.1a.41.41 0 0 0 0 .07v-.23c0-.01 0 0 0 0a.32.32 0 0 0 .1 0h.17l.82-.12a1.12 1.12 0 0 0 .21-.06v.24c0 .02 0 0 0 0 0-.06-.08-.11-.29-.08h-.28zM21 53.84a.64.64 0 0 1 .59-.78c.35 0 .7.23.74.76s-.35.79-.55.81c-.4 0-.74-.28-.78-.79m1.46 1a2 2 0 0 0 .94.23 1.7 1.7 0 0 0 .69-.21 1.21 1.21 0 0 1-.43.12 2 2 0 0 1-1-.19l-.47-.2a.91.91 0 0 0 .33-.78.81.81 0 0 0-.94-.76.86.86 0 0 0-.81.94.84.84 0 0 0 .94.8.87.87 0 0 0 .34-.1z"
     transform="translate(-.74)"
     id="path192" />
  <path
     class="cls-1"
     d="M23.13 53.56v-.48c0-.07 0-.11-.1-.12h-.09.48-.02c-.06 0-.08.05-.08.13v.79a.69.69 0 0 0 .18.54.43.43 0 0 0 .34.11.46.46 0 0 0 .34-.17.87.87 0 0 0 .12-.55v-.28-.48c0-.07 0-.11-.1-.12h-.1.42-.07c-.06 0-.08.05-.08.13v.72a.88.88 0 0 1-.19.67.65.65 0 0 1-.46.18.68.68 0 0 1-.46-.14.74.74 0 0 1-.21-.58zM25.43 53.92v.48c0 .09 0 .12.09.13h.12-.49.08s.06-.06.07-.12 0-.27 0-.48v-.39-.48c0-.07 0-.11-.07-.13h-.09.44-.07c-.06 0-.08 0-.08.13v.48zM27 54.58v-.09-.23c0-.03 0 0 0 0a.47.47 0 0 0 0 .08.3.3 0 0 0 .32.24.29.29 0 0 0 .33-.28c0-.15-.05-.25-.23-.41l-.1-.09c-.22-.21-.27-.35-.26-.5a.41.41 0 0 1 .48-.38h.29a2.31 2.31 0 0 0 0 .24v.05a.35.35 0 0 0 0-.11s-.07-.12-.27-.13a.25.25 0 0 0-.29.24c0 .13.05.21.25.39l.06.05c.25.22.3.36.29.54a.46.46 0 0 1-.21.36.58.58 0 0 1-.34.07.65.65 0 0 1-.3-.08M28.6 53.67v-.48c0-.07 0-.11-.08-.14h-.08.89v.25a.24.24 0 0 0 0-.08s0-.07-.15-.09h-.3l-.06.61H29.28V54a.23.23 0 0 0 0-.08s0-.07-.11-.09h-.32V54.41c0 .05 0 .19.24.21a.66.66 0 0 0 .21 0c.06 0 .09-.06.12-.15s0 .17 0 .21 0 .06-.13 0l-.55-.06h-.22.07s.06-.05.08-.12 0-.27.06-.48zM31.28 54.77c.17-.27.59-1 .66-1.15v-.08a.06.06 0 0 0 0-.05h-.08H32.29a.18.18 0 0 0-.11 0s-.07 0-.15.19l-.34.56-.39.62c-.08.12-.1.16-.12.15s0 0-.06-.15l-.33-1.43c0-.13-.06-.16-.13-.2h-.08H31.16 31a.92.92 0 0 0 0 .19zM32.77 54.66c0 .21-.08.38-.08.48s0 .11.06.14h.1l-.27-.06h-.21.07s.07 0 .09-.11.06-.26.11-.47l.08-.38c.07-.34.08-.4.09-.47s0-.12-.05-.14h-.07l.22.05h.21-.08c-.06 0-.08 0-.11.11s0 .13-.1.47zM33.65 55.19v.27h.1l-.23-.07h-.21.11c.06 0 .08-.06.13-.26l.32-1.23c0-.08 0-.1.05-.1s0 .06.06.09l.49.92.37.69.26-1.1v-.23H35l.22.06h.19-.08c-.08 0-.1 0-.13.17l-.33 1.26c0 .14 0 .15-.06.15s0 0-.12-.18-.25-.43-.41-.73l-.4-.76zM35.7 55.86a.85.85 0 0 1 0-.71.84.84 0 0 1 1.15-.49 2 2 0 0 1 .3.13l.2.11-.05.11-.08.21v-.05a.31.31 0 0 0 0-.24.74.74 0 0 0-.38-.27.68.68 0 0 0-.54 0 .75.75 0 0 0-.38.48.8.8 0 0 0 .49 1 .51.51 0 0 0 .4 0 .45.45 0 0 0 .14-.15 2 2 0 0 1-.14.25h-.08a1.24 1.24 0 0 1-.39-.08 1 1 0 0 1-.61-.47M37.8 56.2c-.09.2-.16.36-.18.45s0 .11 0 .15h.09l-.25-.12-.2-.08h.06s.07 0 .11-.09.12-.24.2-.44l.15-.36c.14-.32.17-.37.19-.44s0-.11 0-.14h-.06l.2.1.2.08h-.05c-.06 0-.09 0-.13.08l-.19.44zM39.05 56.82c-.1.19-.19.34-.22.43s0 .11 0 .15l.08.06-.24-.14-.2-.1h.06s.08 0 .11-.08.14-.23.24-.42l.45-.83-.29-.15c-.12-.07-.18-.08-.23 0h-.07l.15-.18a.3.3 0 0 0 .07.07l.15.09.73.4a1.06 1.06 0 0 0 .2.09l-.13.21c0-.06 0-.13-.18-.24l-.22-.18z"
     transform="translate(-.74)"
     id="path194" />
  <path
     class="cls-2"
     d="M7.24 45.93a.4.4 0 0 0-.36.22h-.37v-.37a.41.41 0 1 0-.38 0v.37h-.39a.41.41 0 1 0-.36.59.41.41 0 0 0 .36-.21h.39V47a.41.41 0 1 0 .38 0v-.42h.37a.41.41 0 1 0 .36-.61M10.69 44.57a.4.4 0 0 0-.36.22H10v-.37a.41.41 0 1 0-.39 0v.37h-.42a.41.41 0 1 0-.36.59.41.41 0 0 0 .36-.21h.39v.42a.41.41 0 1 0 .39 0v-.42h.37a.41.41 0 1 0 .36-.61M43 45.93a.41.41 0 0 1 .36.22h.36v-.37a.41.41 0 1 1 .6-.36.41.41 0 0 1-.21.36v.37h.38a.41.41 0 1 1 0 .39h-.39V47a.41.41 0 1 1-.38 0v-.42h-.37a.41.41 0 1 1-.36-.61M39.52 44.57a.4.4 0 0 1 .36.22h.36v-.37a.41.41 0 1 1 .39 0v.37H41a.41.41 0 1 1 .36.59.41.41 0 0 1-.36-.21h-.39v.42a.41.41 0 1 1-.39 0v-.42h-.37a.41.41 0 1 1-.36-.61M16.76 52.39l1.48-2 1.85 1.36s-2.53.49-3.34.68M34.06 52.39l-1.48-2-1.85 1.36s2.53.49 3.34.68M14 45.54s2 2.35-.25 5.56A10.71 10.71 0 0 1 17 49.31zM36.63 45.54s-2.13 2.42.16 5.63a6.83 6.83 0 0 0-3.38-1.83z"
     transform="translate(-.74)"
     id="path196" />
  <path
     class="cls-2"
     d="M38.15 41.55l2 .51s-3.43 2.08-1.53 4.77l-2.13-1.39a11.14 11.14 0 0 0 1.62-3.89M12.48 41.55l-2 .51s3.43 2.08 1.53 4.77l2.13-1.39a11.14 11.14 0 0 1-1.62-3.89"
     transform="translate(-.74)"
     id="path198" />
  <path
     class="cls-4"
     d="M20.89 22.74v.45M21.5 22.74v.45"
     id="path200" />
  <path
     class="cls-7"
     d="M14.14 33.38v-6.26h.83v5.5l-.83.76z"
     id="path202" />
  <path
     class="cls-4"
     d="M14.14 33.38v-6.26h.83v5.5l-.83.76z"
     id="path204" />
  <path
     class="cls-2"
     d="M9.75 54.85s-1.39-.09-.65-1.44c0 0-2 .6-1.85-.7s.18-1.62 1.81-3.43c0 0-3.07 2.69-1.94 5.48.69 1.7 2.64.08 2.64.08"
     transform="translate(-.74)"
     id="path206" />
  <path
     class="cls-14"
     d="M9.75 54.85s-1.39-.09-.65-1.44c0 0-2 .6-1.85-.7s.18-1.62 1.81-3.43c0 0-3.07 2.69-1.94 5.48.68 1.71 2.63.09 2.63.09z"
     transform="translate(-.74)"
     id="path208" />
  <path
     class="cls-2"
     d="M40.86 54.85s1.39-.09.65-1.44c0 0 2 .6 1.85-.7s-.19-1.62-1.81-3.43c0 0 3.07 2.69 1.94 5.48-.69 1.7-2.64.08-2.64.08"
     transform="translate(-.74)"
     id="path210" />
  <path
     class="cls-13"
     d="M17.79 38.34l.29-.67.3.66.72-.08-.42.59.43.58-.72-.07-.29.67-.3-.66-.73.09.43-.6-.44-.58.73.07z"
     id="path212" />
  <path
     class="cls-4"
     d="M17.79 38.34l.29-.67.3.66.72-.08-.42.59.43.58-.72-.07-.29.67-.3-.66-.73.09.43-.6-.44-.58.73.07z"
     id="path214" />
</svg>
