<?xml version="1.0" encoding="UTF-8" standalone="no"?>
<svg
   version="1.1"
   id="Layer_1"
   x="0px"
   y="0px"
   viewBox="0 0 111 108.4"
   xml:space="preserve"
   width="111"
   height="108.4"
   xmlns="http://www.w3.org/2000/svg"
   xmlns:svg="http://www.w3.org/2000/svg"
   xmlns:rdf="http://www.w3.org/1999/02/22-rdf-syntax-ns#"
   xmlns:cc="http://creativecommons.org/ns#"
   xmlns:dc="http://purl.org/dc/elements/1.1/"><metadata
   id="metadata81"><rdf:RDF><cc:Work
       rdf:about=""><dc:format>image/svg+xml</dc:format><dc:type
         rdf:resource="http://purl.org/dc/dcmitype/StillImage" /><dc:title /></cc:Work></rdf:RDF></metadata><defs
   id="defs79" />
<style
   type="text/css"
   id="style2">
	.st0{fill:#5B0023;}
	.st1{fill:#CC9933;}
	.st2{fill:#C89E4B;}
	.st3{fill:#990033;}
	.st4{fill:#2062AF;}
	.st5{fill:#FFFFFF;}
</style>
<path
   class="st0"
   d="m 111,101.1 v 0 c -0.2,-1.2 -1,-2.7 -1.4,-4.2 -0.3,-1.1 -0.5,-2.1 -1.2,-2.8 -0.8,-0.8 -2,-1.4 -2.8,-2.1 -1.7,-1.6 -3,-3.3 -4.4,-5.3 -0.9,-1.3 -1.8,-3.2 -4,-3.2 -0.3,0 -0.5,0 -0.9,0.1 -1.2,0.2 -2.2,1.2 -3.2,1.8 -2.1,1.2 -4.2,2.6 -6.5,3.7 -3,1.4 -6.1,2.8 -9.5,4 -6.1,2.2 -13.6,3.9 -21.6,4 -8.1,0 -15.6,-1.7 -21.6,-4 -3.4,-1.2 -6.5,-2.6 -9.5,-4 -2.3,-1.1 -4.4,-2.4 -6.5,-3.7 -1,-0.6 -2,-1.5 -3.2,-1.8 -0.3,-0.1 -0.6,-0.1 -0.9,-0.1 -2.2,0 -3.1,1.9 -4,3.2 -1.4,2 -2.7,3.7 -4.4,5.3 -0.8,0.8 -2,1.4 -2.8,2.1 -0.7,0.7 -0.9,1.6 -1.2,2.8 -0.4,1.5 -1.2,3 -1.4,4.2 v 0 0 c 0.8,0.5 2.1,0.5 3,0.5 -0.3,0.7 -0.8,1.2 -0.9,2.1 v 0 0 c 0.6,0.1 1.1,0.1 1.6,0.1 5.2,0 8,-4.5 10,-7.6 5.1,3.7 11.5,6.6 18.5,8.6 7,2 14.5,3.4 23.1,3.4 8.5,0 16.1,-1.4 23.1,-3.4 7,-2 13.4,-4.9 18.5,-8.6 2,3.1 4.9,7.6 10,7.6 0.5,0 1.1,0 1.6,-0.1 v 0 0 c -0.1,-0.9 -0.5,-1.5 -0.9,-2.1 1.2,0.1 2.5,0 3.4,-0.5 z"
   id="path4" />
<g
   id="g8">
	<path
   class="st1"
   d="m 97.2,84.5 c 1.2,0 1.9,0.8 2.7,2.2 0.1,0.2 0.3,0.4 0.4,0.6 1.6,2.3 2.9,3.9 4.5,5.5 0.5,0.5 1,0.8 1.6,1.2 0.5,0.3 0.9,0.6 1.2,0.9 0.5,0.5 0.7,1.1 0.9,2 l 0.1,0.3 c 0.2,0.7 0.4,1.3 0.7,2 0.2,0.5 0.4,0.9 0.5,1.3 -0.7,0.2 -1.5,0.2 -1.9,0.2 h -1.6 l 0.7,1.4 c 0.1,0.2 0.2,0.4 0.3,0.5 0.1,0.1 0.1,0.2 0.2,0.3 -0.1,0 -0.2,0 -0.3,0 -4.6,0 -7.3,-4.1 -9.2,-7.1 l -0.6,-0.9 -0.9,0.6 C 91.7,99 85.4,102 78.4,104 c -8.1,2.3 -15.3,3.4 -22.8,3.4 -7.4,0 -14.7,-1.1 -22.8,-3.4 -7.1,-2 -13.3,-4.9 -18.1,-8.5 l -0.9,-0.6 -0.6,0.9 c -1.9,3 -4.6,7.1 -9.2,7.1 -0.1,0 -0.2,0 -0.3,0 0.1,-0.1 0.1,-0.2 0.2,-0.3 0.1,-0.2 0.2,-0.3 0.3,-0.5 l 0.7,-1.4 H 3.3 c -0.4,0 -1.2,0 -1.9,-0.2 0.1,-0.4 0.3,-0.9 0.5,-1.3 0.3,-0.6 0.5,-1.3 0.7,-2 L 2.7,96.9 C 2.9,96 3.1,95.3 3.6,94.9 3.9,94.6 4.4,94.3 4.8,94 5.3,93.6 5.9,93.3 6.4,92.8 8,91.3 9.3,89.6 10.9,87.3 c 0.1,-0.2 0.3,-0.4 0.4,-0.6 0.9,-1.4 1.5,-2.2 2.7,-2.2 0.2,0 0.4,0 0.7,0.1 0.6,0.1 1.3,0.6 1.9,1 0.3,0.2 0.6,0.4 0.9,0.6 l 1,0.6 c 1.8,1.1 3.6,2.2 5.5,3.1 3.3,1.6 6.4,2.9 9.6,4.1 5,1.8 12.8,4 22,4 9.2,0 17,-2.2 22,-4 3.1,-1.1 6.2,-2.5 9.6,-4.1 1.9,-0.9 3.8,-2 5.5,-3.1 l 1,-0.6 c 0.3,-0.2 0.6,-0.4 0.9,-0.6 0.7,-0.5 1.3,-0.9 1.9,-1 0.3,-0.1 0.5,-0.1 0.7,-0.1 m 0,-1 c -0.3,0 -0.5,0 -0.9,0.1 -1.2,0.2 -2.2,1.2 -3.2,1.8 -2.1,1.2 -4.2,2.6 -6.5,3.7 -3,1.4 -6.1,2.8 -9.5,4 -6.1,2.2 -13.6,3.9 -21.6,4 -8.1,0 -15.6,-1.7 -21.6,-4 -3.4,-1.2 -6.5,-2.6 -9.5,-4 -2.3,-1.1 -4.4,-2.4 -6.5,-3.7 -1,-0.6 -2,-1.5 -3.2,-1.8 -0.3,-0.1 -0.6,-0.1 -0.9,-0.1 -2.2,0 -3.1,1.9 -4,3.2 -1.4,2 -2.7,3.7 -4.4,5.3 -0.8,0.8 -2,1.4 -2.8,2.1 -0.7,0.7 -0.9,1.6 -1.2,2.8 -0.4,1.5 -1.2,3 -1.4,4.2 v 0 0 c 0.8,0.5 2.1,0.5 3,0.5 -0.3,0.7 -0.8,1.2 -0.9,2.1 v 0 0 c 0.6,0.1 1.1,0.1 1.6,0.1 5.2,0 8,-4.5 10,-7.6 5.1,3.7 11.5,6.6 18.5,8.6 7,2 14.5,3.4 23.1,3.4 8.5,0 16.1,-1.4 23.1,-3.4 7,-2 13.4,-4.9 18.5,-8.6 2,3.1 4.9,7.6 10,7.6 0.5,0 1.1,0 1.6,-0.1 v 0 0 c -0.1,-0.9 -0.5,-1.5 -0.9,-2.1 0.9,0 2.2,-0.1 3,-0.5 v 0 0 c -0.2,-1.2 -1,-2.7 -1.4,-4.2 -0.3,-1.1 -0.5,-2.1 -1.2,-2.8 -0.8,-0.8 -2,-1.4 -2.8,-2.1 -1.7,-1.6 -3,-3.3 -4.4,-5.3 -0.6,-1.3 -1.4,-3.2 -3.6,-3.2 z"
   id="path6" />
</g>
<path
   class="st2"
   d="m 105.5,92.1 c -1.7,-1.6 -3,-3.3 -4.4,-5.3 -0.9,-1.3 -1.8,-3.2 -4,-3.2 -0.3,0 -0.5,0 -0.9,0.1 -1.2,0.2 -2.2,1.2 -3.2,1.8 -2.1,1.2 -4.2,2.6 -6.5,3.7 -3,1.4 -6.1,2.8 -9.5,4 -6.1,2.2 -13.6,3.9 -21.6,4 -8.1,0 -15.5,-1.7 -21.6,-4 -3.4,-1.2 -6.5,-2.6 -9.5,-4 -2.3,-1.1 -4.4,-2.4 -6.5,-3.7 -1,-0.6 -2,-1.5 -3.2,-1.8 -0.3,-0.1 -0.6,-0.1 -0.9,-0.1 -2.2,0 -3.1,1.9 -4,3.2 -1.4,2 -2.7,3.7 -4.4,5.3 -0.5,0.5 -1.1,0.9 -1.7,1.3 l 2.1,0.1 c 2.8,0.3 6.4,1.4 8,2.9 5.1,3.7 11.5,6.6 18.5,8.6 7,2 14.5,3.4 23,3.4 v 0 0 0 0 c 8.5,0 16,-1.4 23,-3.4 7,-2 13.4,-4.9 18.5,-8.6 1.6,-1.5 5.3,-2.6 8,-2.9 l 2.1,-0.1 c -0.2,-0.5 -0.9,-0.9 -1.3,-1.3 z"
   id="path10" />
<path
   class="st3"
   d="m 101,88.9 c -1,-1.3 -1.8,-3.7 -3.6,-4 -0.2,0 -0.3,0 -0.4,0 -1.1,0 -1.7,0.7 -2.6,1.3 -4.8,3 -10.3,5.7 -15.9,7.9 -6.6,2.5 -14.2,4.1 -22.7,4.3 -0.1,0 -0.2,0 -0.3,0 -0.1,0 -0.2,0 -0.3,0 C 46.8,98.2 39.2,96.6 32.5,94.1 26.8,92 21.4,89.2 16.6,86.2 15.7,85.6 15,84.9 14,84.9 c -0.1,0 -0.3,0 -0.4,0 -1.7,0.3 -2.5,2.7 -3.6,4 -0.9,1.2 -1.9,2.2 -2.5,3.2 4.2,0.6 7.1,3.4 10.3,5.4 3.2,2 7,3.5 10.9,4.9 7.5,2.7 17.2,4.6 26.7,4.7 v 0 0 0 0 c 9.5,-0.1 19.2,-2 26.7,-4.7 3.9,-1.4 7.7,-2.9 10.9,-4.9 3.3,-2 6.1,-4.8 10.3,-5.4 -0.4,-1 -1.4,-2 -2.3,-3.2 z"
   id="path12" />
<path
   class="st1"
   d="m 78.3,100.2 v 0 C 78,99.2 77.2,99 76,99.1 c -1,0 -1.3,0 -1.4,-0.4 v 0 c -0.1,-0.3 0.1,-0.6 0.6,-0.7 0.5,-0.1 1,-0.1 1.6,0.1 L 77.2,97 c -0.7,-0.3 -1.5,-0.3 -2.3,-0.1 -1.1,0.3 -1.7,1.3 -1.4,2.3 v 0 c 0.3,1.1 1.1,1.2 2.3,1.1 1,0 1.2,0.1 1.3,0.4 v 0 c 0.1,0.3 -0.1,0.6 -0.6,0.8 -0.6,0.2 -1.2,0.1 -1.9,-0.2 l -0.5,1.1 c 0.8,0.4 1.8,0.4 2.6,0.2 1.3,-0.4 2,-1.3 1.6,-2.4 m -7.2,3.8 -1.3,-5.6 -1.2,0.3 1.3,5.6 z m -4.5,0.9 -0.2,-1.1 -2.9,0.4 -0.6,-4.6 -1.3,0.2 0.8,5.7 z m -7.6,0.7 v -1.1 l -3.1,0.1 v -1.2 l 2.7,-0.1 v -1.1 l -2.7,0.1 v -1.2 L 59,101 v -1.1 l -4.4,0.1 0.2,5.8 z m -9,-3 c -0.1,1 -0.9,1.6 -1.9,1.6 l -1,-0.1 0.3,-3.5 1,0.1 c 1.1,0 1.7,0.8 1.6,1.9 z m 1.4,0.1 v 0 c 0.2,-1.6 -1,-3 -2.8,-3.2 l -2.2,-0.2 -0.5,5.8 2.2,0.2 c 1.7,0.1 3.1,-1 3.3,-2.6 m -9.3,1.6 1.1,-5.7 -1.2,-0.2 -1.1,5.7 z m -3.3,-5.5 0.3,-1.1 -4.2,-1.2 -1.6,5.5 1.2,0.4 0.6,-2.1 2.6,0.8 L 38,100 35.4,99.2 35.7,98 Z"
   id="path14" />
<path
   class="st1"
   d="M 61.5,5.1 C 58.9,5.1 57,3.3 55.6,0 54.2,3.3 52.3,5.1 49.7,5.1 H 11.3 c 3.5,3.2 5.7,7.4 5.7,10.1 v 59.7 c 0,6.2 6.2,10.7 14.8,10.7 h 9.4 c 7.5,0 12.1,4.2 14.4,7.1 2.3,-2.9 6.9,-7.1 14.4,-7.1 h 9.4 C 88,85.6 94.2,81 94.2,74.9 V 15.2 c 0,-2.7 2.3,-7 5.7,-10.1 z"
   id="path16" />
<path
   class="st4"
   d="m 55.6,3.7 c 1.2,1.6 3.1,3.1 5.9,3.1 h 34.3 c -2.1,2.8 -3.3,5.8 -3.3,8.2 v 60.2 c 0,5.1 -5.4,8.8 -12.9,8.8 H 70.1 C 63,84 58.3,87.3 55.6,90.2 52.9,87.4 48.1,84 41.1,84 H 31.6 C 24.1,84 18.7,80.3 18.7,75.2 V 15 c 0,-2.4 -1.3,-5.4 -3.3,-8.2 h 34.3 c 2.8,0 4.7,-1.5 5.9,-3.1"
   id="path18" />
<path
   class="st5"
   d="m 73.2,75.4 c -9.2,0 -17.8,0.3 -26.3,0.2 -2.9,0 -5.8,0.2 -8.6,0.1 -4.4,-0.3 -6.9,-3.5 -7.2,-7.9 -0.3,-3.8 1.2,-7.5 2.4,-10.3 0.7,-1.6 1.3,-3 2.1,-4.4 2.3,-4 5.3,-7.7 5.2,-13.9 -0.3,0 -2.3,0.1 -3.9,0.1 -1.7,0 -2.5,-1.6 -2.4,-3.2 0.1,-1.2 0.7,-2.3 1.3,-2.8 0.5,-0.4 1.3,-0.6 1.8,-0.7 1.4,-0.2 1.7,-0.1 2.6,0.1 0.6,0.1 1.5,0.1 2.2,0.1 9.5,0 17.3,0.5 26.5,0.3 1.9,-0.1 4.1,-0.3 5.5,0.2 3,0.9 5,3.8 5.5,7.3 0.3,2 0.1,3.8 -0.2,5.6 -0.3,1.7 -0.9,3.2 -1.6,4.6 -1.4,3 -2.7,5.7 -4.1,8.6 -1,2 -2.3,4.1 -2.4,6.8 0,0.9 -0.1,1.9 0.3,2.5 0.4,0.6 1.4,0.8 1.9,1.5 0.5,0.6 0.7,1.4 0.7,2.1 0.2,1.1 -0.4,2.3 -1.3,3.1"
   id="path20" />
<g
   id="g52">
	<path
   class="st1"
   d="m 57.2,23.2 1.4,0.1 c 0.2,0 0.3,-0.1 0.4,-0.3 0,-0.2 -0.1,-0.3 -0.3,-0.4 l -1.4,-0.1 c -0.2,0 -0.3,0.1 -0.4,0.3 0,0.3 0.1,0.4 0.3,0.4 z"
   id="path22" />
	<path
   class="st1"
   d="m 61.8,23.7 1.4,0.3 c 0.2,0 0.4,-0.1 0.4,-0.3 0,-0.2 -0.1,-0.4 -0.3,-0.4 L 61.9,23 c -0.2,0 -0.4,0.1 -0.4,0.3 0,0.2 0.1,0.4 0.3,0.4 z"
   id="path24" />
	<path
   class="st1"
   d="m 68.4,17 c 0.1,0.1 0.2,0 0.3,0 l 2,-3.2 c 0.1,-0.1 0,-0.2 -0.1,-0.3 -0.1,-0.1 -0.2,0 -0.3,0 l -2,3.2 c 0,0.1 0,0.2 0.1,0.3 z"
   id="path26" />
	<path
   class="st1"
   d="m 66.4,16 c 0.1,0 0.2,0 0.3,-0.1 l 1.6,-3.5 c 0,-0.1 0,-0.2 -0.1,-0.3 -0.1,0 -0.2,0 -0.3,0.1 l -1.6,3.5 c 0,0.2 0,0.3 0.1,0.3 z"
   id="path28" />
	<path
   class="st1"
   d="m 61.2,14.9 c 0.1,0 0.2,0 0.2,-0.1 l 0.8,-3.7 c 0,-0.1 -0.1,-0.2 -0.2,-0.2 -0.1,0 -0.2,0 -0.2,0.1 L 61,14.7 c 0,0 0.1,0.1 0.2,0.2 z"
   id="path30" />
	<path
   class="st1"
   d="m 58.8,14.5 c 0.1,0 0.2,-0.1 0.2,-0.2 l 0.3,-3.8 c 0,-0.1 -0.1,-0.2 -0.2,-0.2 -0.1,0 -0.2,0.1 -0.2,0.2 l -0.3,3.8 c 0,0.1 0.1,0.2 0.2,0.2 z"
   id="path32" />
	<path
   class="st1"
   d="m 71.6,14.7 c 0,1 -0.4,1.8 -0.8,2.4 -1,0.8 -2.8,1.8 -4.4,1.3 -0.6,-0.2 -1.2,-0.5 -1.6,-0.9 -0.7,-0.9 -1.2,-2.4 -0.6,-3.5 0.2,-0.4 0.9,-1.2 0.9,-1.2 l -0.7,-1.5 -1.2,1 c 0,0 0.1,1.8 -0.1,2.6 -0.5,1.5 -1.8,2.7 -3.8,2.3 -2.2,-0.4 -4.3,-3.3 -2.8,-5.7 -0.4,-0.4 -1,-1.5 -1,-1.5 v 0 0 c 0,0 -0.6,1 -1,1.5 1.5,2.4 -0.6,5.4 -2.8,5.7 -2,0.3 -3.4,-0.9 -3.8,-2.3 -0.3,-0.8 -0.1,-2.6 -0.1,-2.6 l -1.2,-1 -0.7,1.5 c 0,0 0.6,0.7 0.9,1.2 0.6,1.1 0.1,2.6 -0.6,3.5 -0.4,0.4 -0.9,0.7 -1.6,0.9 -1.5,0.5 -3.4,-0.5 -4.3,-1.3 -0.5,-0.6 -0.8,-1.4 -0.8,-2.4 -0.5,-0.3 -1.8,-0.8 -1.8,-0.8 v 1.9 c 0,0 0.7,0.5 1.1,0.8 2.2,3.1 7,10.9 7.3,11.3 1,1.2 5.5,1.8 9.4,1.8 v 0 0 0 0 c 4,0 8.4,-0.5 9.5,-1.8 0.3,-0.4 5.1,-8.2 7.3,-11.3 0.4,-0.3 1.1,-0.8 1.1,-0.8 v -1.9 c 0,-0.1 -1.3,0.5 -1.8,0.8 z m -16,14 c -2.7,0 -5.2,-0.2 -6.4,-0.6 0.7,-0.2 3.4,-0.5 3.7,-0.5 -0.7,-0.1 -1.8,-0.3 -2.4,-0.5 0.7,-0.2 2.3,-0.3 2.6,-0.4 -0.2,-0.2 -1.4,-0.4 -2,-0.7 1.4,-0.1 2.9,-0.2 4.5,-0.2 1.5,0 3.1,0.1 4.5,0.2 -0.6,0.3 -1.8,0.5 -2,0.7 0.3,0.1 1.9,0.2 2.6,0.4 -0.6,0.2 -1.7,0.3 -2.4,0.5 0.3,0 3,0.4 3.7,0.5 -1.3,0.4 -3.8,0.6 -6.4,0.6 z m 8.8,-2.9 c -2.7,-0.7 -5.8,-1 -8.8,-1.1 v 0 0 0 0 c -3,0.1 -6.1,0.4 -8.8,1.1 -0.6,-0.9 -1.6,-2.1 -2.2,-3 3.2,-0.9 7.1,-1.7 11.1,-1.7 4,0 7.9,0.7 11.1,1.7 -0.8,0.9 -1.8,2.1 -2.4,3 z m 2.9,-3.6 c -3.5,-1 -7.6,-1.7 -11.7,-1.7 v 0 0 0 0 c -4.1,0 -8.2,0.7 -11.7,1.7 -1,-1.4 -2.1,-2.9 -3.1,-4.4 1.5,1.1 2.9,1.4 4.2,1 1.8,-0.6 2.3,-1.6 2.7,-3 0.6,0.9 1.7,2.3 4.2,1.9 1.7,-0.2 2.9,-1.5 3.7,-3 0.7,1.5 1.9,2.8 3.7,3 2.6,0.4 3.6,-1 4.2,-1.9 0.3,1.4 0.8,2.4 2.7,3 1.4,0.4 2.7,0.1 4.2,-1 -1,1.5 -2.1,3 -3.1,4.4 z"
   id="path34" />
	<path
   class="st1"
   d="m 53.9,22.6 -1.4,0.1 c -0.2,0 -0.3,0.2 -0.3,0.4 0,0.2 0.2,0.3 0.4,0.3 L 54,23.3 c 0.2,0 0.3,-0.2 0.3,-0.4 -0.1,-0.2 -0.3,-0.3 -0.4,-0.3 z"
   id="path36" />
	<path
   class="st1"
   d="m 49.2,23.1 -1.4,0.3 c -0.2,0 -0.3,0.2 -0.3,0.4 0,0.2 0.2,0.3 0.4,0.3 l 1.4,-0.3 c 0.2,0 0.3,-0.2 0.3,-0.4 -0.1,-0.2 -0.2,-0.3 -0.4,-0.3 z"
   id="path38" />
	<path
   class="st1"
   d="m 42.4,16.9 c 0.1,0.1 0.2,0.1 0.3,0 0.1,-0.1 0.1,-0.2 0.1,-0.3 l -2,-3.2 c -0.1,-0.1 -0.2,-0.1 -0.3,0 -0.1,0.1 -0.1,0.2 -0.1,0.3 z"
   id="path40" />
	<path
   class="st1"
   d="m 44.4,16 c 0,0.1 0.2,0.1 0.3,0.1 0.1,0 0.2,-0.2 0.1,-0.3 l -1.6,-3.5 c 0,-0.1 -0.2,-0.1 -0.3,-0.1 -0.1,0 -0.2,0.2 -0.1,0.3 z"
   id="path42" />
	<path
   class="st1"
   d="m 50,14.9 c 0.1,0 0.2,-0.1 0.2,-0.2 L 49.4,11 c 0,-0.1 -0.1,-0.2 -0.2,-0.1 -0.1,0 -0.2,0.1 -0.2,0.2 l 0.8,3.7 c -0.1,0 0.1,0.1 0.2,0.1 z"
   id="path44" />
	<path
   class="st1"
   d="m 52.3,14.5 c 0.1,0 0.2,-0.1 0.2,-0.2 l -0.3,-3.8 c 0,-0.1 -0.1,-0.2 -0.2,-0.2 -0.1,0 -0.2,0.1 -0.2,0.2 l 0.3,3.8 c 0,0.1 0.1,0.2 0.2,0.2 z"
   id="path46" />
	<path
   class="st1"
   d="m 73.2,75.4 c -9.2,0 -17.8,0.3 -26.3,0.2 -2.9,0 -5.8,0.2 -8.6,0.1 -4.4,-0.3 -6.9,-3.5 -7.2,-7.9 -0.3,-3.8 1.2,-7.5 2.4,-10.3 0.7,-1.6 1.3,-3 2.1,-4.4 2.3,-4 5.3,-7.7 5.2,-13.9 -0.3,0 -2.3,0.1 -3.9,0.1 -1.7,0 -2.5,-1.6 -2.4,-3.2 0.1,-1.2 0.7,-2.3 1.3,-2.8 0.5,-0.4 1.3,-0.6 1.8,-0.7 1.4,-0.2 1.7,-0.1 2.6,0.1 0.6,0.1 1.5,0.1 2.2,0.1 9.5,0 17.3,0.5 26.5,0.3 1.9,-0.1 4.1,-0.3 5.5,0.2 3,0.9 5,3.8 5.5,7.3 0.3,2 0.1,3.8 -0.2,5.6 -0.3,1.7 -0.9,3.2 -1.6,4.6 -1.4,3 -2.7,5.7 -4.1,8.6 -1,2 -2.3,4.1 -2.4,6.8 0,0.9 -0.1,1.9 0.3,2.5 0.4,0.6 1.4,0.8 1.9,1.5 0.5,0.6 0.7,1.4 0.7,2.1 0.2,1.1 -0.4,2.3 -1.3,3.1 M 38.3,33.5 c -2,0.1 -2.7,1.4 -2.7,2.6 0,1.7 0.5,2.2 2.2,2.1 0,0 0.1,-1.1 0,-2 0,0 1.9,0 2.7,-0.1 -0.4,-1.1 -0.8,-2.6 -2.2,-2.6 z m 2.7,0.8 c 1.6,3.6 0.7,8.7 -0.4,11.9 -0.9,2.4 -2.4,4.4 -3.7,6.6 -1.3,2.2 -2.4,4.4 -3.3,7 -1.1,3.3 -2.4,8 -0.6,11.4 0.7,1.4 2.3,2.8 3.9,3.1 1.9,0.4 3,-0.3 3.2,-2 0,0 -2.1,0 -3.3,0 0,0 -0.2,-3.6 2.3,-3.6 0.6,0 1.4,0 2.1,0 10.5,-0.1 20.1,0 29.8,-0.1 -1,-3.8 0.8,-6.7 2,-9.5 1,-2.2 2.3,-4.8 3.4,-7.2 0.5,-1.2 1.2,-2.3 1.7,-3.6 C 79.9,43.6 79.3,36.4 75,34.2 73.5,33.4 71.2,33.8 68.8,33.8 59.7,34 50,33.5 40.8,33.5 c -0.1,0.3 0.1,0.7 0.2,0.8 z M 38.8,37 c 0,0.6 -0.1,0.9 0,1.2 0.5,0.2 2.1,-0.1 2.1,-0.1 l -0.2,-1.3 c -0.4,0.1 -1.3,0.1 -1.9,0.2 z m -1,34.3 c 0.6,0 1.9,0 2.6,-0.1 0.2,-2 -2.2,-2 -2.6,0.1 z m 3.4,-1.5 c 0.7,1.5 0.1,3.8 -0.7,4.7 0,0 21.8,-0.2 32,-0.1 0.6,-0.6 1.2,-1.5 1.2,-2.3 0,-0.8 -0.9,-2 -1.7,-2.2 -1,-0.2 -30.8,-0.2 -30.8,-0.1 z"
   id="path48" />
	<path
   class="st1"
   d="m 69.1,55.6 c -0.5,-0.1 -1.2,0.3 -1.7,0.5 -0.9,0.3 -1.8,0.8 -2.8,0.9 -3.1,0.5 -5.5,0.7 -5.5,0.7 0,0 0,-3.3 0,-5 0.9,0.2 1.3,1.1 2.1,1.4 -0.1,-1.7 -0.1,-3.4 0,-5.1 -0.7,0.4 -1.2,1.1 -2.1,1.2 0,-0.6 0,-1.2 0,-1.8 0,-0.3 0,-1.8 0,-1.8 0,0 1.8,0.1 2.6,0.3 0,0 0.5,1 0.6,1.3 0.3,0.6 0.7,1.1 1.3,1.3 -0.1,-0.6 -0.3,-1 -0.2,-2.1 1.3,0.2 2.5,0.6 3.5,1.4 0.7,0.5 1.6,2.2 2.7,1.8 0,-1.2 -0.9,-2.3 -0.7,-3.6 0.1,-0.6 1.4,-2.2 0,-2.3 -0.9,0 -1.2,1.1 -1.8,1.4 -0.4,0.2 -1.4,-0.2 -1.8,-0.3 -0.3,-0.1 -0.6,-0.2 -1,-0.3 -0.5,-0.1 -1,-0.3 -1,-0.3 0,-1.7 0.5,-3 1.1,-4.1 0.2,-0.3 0.7,-0.9 0.3,-1.2 -0.5,-0.5 -1.4,-0.1 -2,0.2 -0.4,0.2 -3.7,1.4 -3.7,0.9 0,-0.6 0,-1.2 0,-1.8 0,-0.5 0.3,-1.1 0.6,-1.5 0.2,-0.3 1.1,-0.5 0.5,-0.9 -0.9,-0.6 -1.8,0.9 -2.7,0.1 -0.9,-0.8 -1.4,-1.7 -2.8,-1.4 -0.8,0.1 -1.3,1.1 -1,1.8 0.4,1.1 1.2,0 1.7,-0.1 1.1,-0.3 1.1,1 1.1,1.7 0,0.8 0,1.6 0,2.4 -2.6,0 -4.9,-0.5 -7.5,-1.2 0.6,1.1 0.7,2.3 0.7,3.5 0,0.5 0,1 0,1.5 -0.6,0.2 -1.2,0.4 -1.8,0.6 -2.2,0.9 -4.7,2.3 -5.3,4.7 -0.6,2.4 0.4,4.6 2.5,5.9 1.2,0.8 2.6,1.3 3.9,1.8 0.4,0.1 0.8,0.1 0.7,0.5 0,0.2 -0.2,0.4 -0.3,0.6 -0.3,0.3 -0.7,0.5 -0.8,1 1.3,0.1 2.4,0.7 3.3,1.6 0.9,0.8 2.2,1.9 1.4,3.1 -0.6,0.9 -1.8,1.3 -2.8,1.5 -0.5,0.1 -1,0 -1.3,-0.3 -0.3,-0.4 -0.7,-1.2 -0.1,-1.5 0.3,-0.2 0.9,-0.1 0.9,-0.6 0,-0.4 -0.4,-0.6 -0.7,-0.7 -1,-0.4 -2.4,0.4 -2.7,1.3 -0.6,1.8 1,2.9 2.7,3 0.8,0 1.6,-0.1 2.4,-0.3 1,-0.3 1.5,-0.9 2.2,-1.5 1,-0.8 1.6,0.4 2.4,0.9 1.2,0.7 2.7,1.1 4.2,1 0.9,-0.1 2,-0.6 2.1,-1.6 0.1,-1.2 -1.1,-2 -2.3,-1.5 -1.1,0.5 0.5,1.7 -0.7,2.1 C 58.6,67 57.1,66.6 56.3,66 55.7,65.6 55,64.7 55.4,63.9 c 0.3,-0.6 0.9,-1.1 1.4,-1.6 0.6,-0.6 1.2,-0.8 1.9,-0.6 0.5,0.1 1,0.3 1,0.3 0,0 -0.6,-1.8 -0.5,-2.7 0,0 0.5,0 1,-0.1 0.6,-0.1 1.1,-0.1 1.7,-0.2 1.3,-0.1 2.6,-0.3 3.9,-0.6 1.1,-0.2 2.1,-0.6 3.1,-1.2 0.3,-0.1 1.2,-1.4 0.2,-1.6 m -16.8,-3.2 4,-0.2 -0.1,5.4 c 0,0 -1.3,0 -2.1,0 -0.8,-0.1 -1.8,-0.3 -1.8,-0.4 0,-1.6 0.1,-3.2 0,-4.8 m 9.4,-9.9 c -0.1,0.8 -0.2,1.7 -0.1,2.5 -0.7,-0.1 -1.1,-0.2 -1.7,-0.2 -0.4,0 -0.7,0 -0.7,0 V 43 c 0,0 0,0 0.4,-0.1 0.3,0 0.6,-0.1 1,-0.2 0.3,0 0.7,-0.1 1.1,-0.2 m -9.2,2.3 c 0,0 0,-1.8 0,-1.9 1.3,0.2 2.7,0.3 4,0.3 0,0.5 0,1 0,1.6 -1.4,-0.1 -2.8,0 -4,0 M 49.8,56.7 C 47.3,56.1 45,54.8 45,52.2 c 0,-1.2 0.5,-2.5 1.4,-3.4 0.4,-0.4 1,-0.8 1.6,-1 0.1,-0.1 1.8,-0.5 1.8,-0.4 0,3 0,6.1 0,9.3 m 4.5,6.6 c -1.3,-1 -2.1,-2.5 -2,-4.1 0.8,0.1 1.6,0.1 2.4,0.2 0.4,0 1.1,0.1 1.5,0.1 0,0 0.1,0.3 0,0.8 -0.2,1.2 -1,2.3 -1.9,3 m 2.1,-12.9 c 0,0 -1.9,0.1 -2.8,0.1 -0.6,0 -1.2,0 -1.2,0 0,0 0,-2.1 0,-2.9 0,-0.3 0,-0.6 0,-0.9 0.4,0 0.8,-0.1 1.2,-0.1 0.9,-0.1 1.9,-0.1 2.8,0 0.1,1.2 0.1,2.5 0,3.8"
   id="path50" />
</g>
<g
   id="g74">
	<g
   id="g72">
		
		
		
		
		
		
		
		
		
	</g>
</g>
</svg>
