<?xml version="1.0" encoding="UTF-8" standalone="no"?>
<svg
   xmlns:dc="http://purl.org/dc/elements/1.1/"
   xmlns:cc="http://creativecommons.org/ns#"
   xmlns:rdf="http://www.w3.org/1999/02/22-rdf-syntax-ns#"
   xmlns:svg="http://www.w3.org/2000/svg"
   xmlns="http://www.w3.org/2000/svg"
   xmlns:sodipodi="http://sodipodi.sourceforge.net/DTD/sodipodi-0.dtd"
   xmlns:inkscape="http://www.inkscape.org/namespaces/inkscape"
   width="19.808119mm"
   height="18.754372mm"
   viewBox="0 0 19.808119 18.754371"
   version="1.1"
   id="svg237171"
   inkscape:version="1.0.1 (3bc2e813f5, 2020-09-07)"
   sodipodi:docname="goulburn-valley-grammar-school.svg">
  <defs
     id="defs237165">
    <clipPath
       id="clipPath237315"
       clipPathUnits="userSpaceOnUse">
      <path
         inkscape:connector-curvature="0"
         id="path237313"
         d="M 0,528.236 H 183.406 V 672.345 H 0 Z" />
    </clipPath>
    <clipPath
       id="clipPath237329"
       clipPathUnits="userSpaceOnUse">
      <path
         inkscape:connector-curvature="0"
         id="path237327"
         d="M 187.934,528.236 H 371.34 V 672.345 H 187.934 Z" />
    </clipPath>
    <clipPath
       id="clipPath237343"
       clipPathUnits="userSpaceOnUse">
      <path
         inkscape:connector-curvature="0"
         id="path237341"
         d="M 375.87,528.236 H 559.276 V 672.345 H 375.87 Z" />
    </clipPath>
    <clipPath
       id="clipPath237541"
       clipPathUnits="userSpaceOnUse">
      <path
         inkscape:connector-curvature="0"
         id="path237539"
         d="m 32.875,730.543 h 241.646 v 53.252 H 32.875 Z" />
    </clipPath>
  </defs>
  <sodipodi:namedview
     id="base"
     pagecolor="#ffffff"
     bordercolor="#666666"
     borderopacity="1.0"
     inkscape:pageopacity="0.0"
     inkscape:pageshadow="2"
     inkscape:zoom="2.8"
     inkscape:cx="127.04744"
     inkscape:cy="60.875715"
     inkscape:document-units="mm"
     inkscape:current-layer="g237537"
     showgrid="false"
     inkscape:pagecheckerboard="true"
     fit-margin-top="0"
     fit-margin-left="0"
     fit-margin-right="0"
     fit-margin-bottom="0"
     inkscape:window-width="1920"
     inkscape:window-height="1000"
     inkscape:window-x="1920"
     inkscape:window-y="0"
     inkscape:window-maximized="1"
     inkscape:document-rotation="0" />
  <metadata
     id="metadata237168">
    <rdf:RDF>
      <cc:Work
         rdf:about="">
        <dc:format>image/svg+xml</dc:format>
        <dc:type
           rdf:resource="http://purl.org/dc/dcmitype/StillImage" />
        <dc:title />
      </cc:Work>
    </rdf:RDF>
  </metadata>
  <g
     inkscape:label="Layer 1"
     inkscape:groupmode="layer"
     id="layer1"
     transform="translate(57.872757,-59.413294)">
    <g
       id="g237535"
       transform="matrix(0.35277777,0,0,-0.35277777,-69.47022,335.88689)">
      <g
         id="g237537"
         clip-path="url(#clipPath237541)">
        <g
           id="g237651"
           transform="translate(83.3746,754.0865)">
          <path
             d="m 0,0 c 0,-11.982 -9.714,-21.695 -21.696,-21.695 -11.982,0 -21.695,9.713 -21.695,21.695 V 27.899 H 0 Z"
             style="fill:#ffce35;fill-opacity:1;fill-rule:nonzero;stroke:none"
             id="path237653"
             inkscape:connector-curvature="0" />
        </g>
        <g
           id="g237655"
           transform="translate(61.6786,751.7687)">
          <path
             d="m 0,0 -13.232,-13.234 c -4.223,3.566 -6.984,8.808 -7.257,14.7 l 8.95,8.951 -8.973,8.973 v 9.38 H -8.337 L 0.016,20.417 8.37,28.77 h 12.09 v -9.433 l -8.92,-8.92 8.898,-8.9 C 20.181,-4.384 17.428,-9.635 13.209,-13.21 Z M -23.281,31.936 V 2.03 c 0,-12.844 10.412,-23.256 23.255,-23.256 12.845,0 23.255,10.412 23.255,23.256 v 29.906 z"
             style="fill:#0d2c6c;fill-opacity:1;fill-rule:nonzero;stroke:none"
             id="path237657"
             inkscape:connector-curvature="0" />
        </g>
        <g
           id="g237659"
           transform="translate(33.5842,747.1784)">
          <path
             d="m 0,0 c 0,0 0.856,0.508 1.973,0.508 0,0 -0.192,0.611 1.012,0.611 l 2.811,0.436 c 0,0 -0.174,2.27 2.288,2.775 0,0 0.787,1.624 2.131,1.973 0,0 0.569,0.242 0.56,0.391 0,0 -0.502,1.249 -0.691,1.447 0,0 -0.644,2.047 -1.011,3.671 0,0 -1.038,5.081 2.048,6.996 0.616,0.383 1.436,-4.533 2.175,-4.046 0.755,0.496 1.564,1.012 2.386,1.507 3.085,1.86 6.348,3.441 7.591,2.72 0,0 1.336,-0.236 2.802,-3.379 0,0 2.226,-5.107 6.784,-5.185 0,0 -4.426,5.446 2.174,6.207 0,0 3.666,0.576 4.975,-2.253 l 6.652,-2.043 2.775,-1.048 c 0,0 4.846,-1.255 5.631,-2.88 0,0 -0.654,0.366 -0.733,0.288 -0.078,-0.079 -2.016,-0.157 -2.016,-0.157 0,0 -4.531,-0.026 -7.726,1.204 0,0 -3.169,1.048 -4.923,0.368 0,0 1.754,-2.384 -0.367,-4.689 0,0 -0.759,-0.628 -3.693,-1.78 L 27.884,1.127 c 0,0 -5.658,-1.44 -9.902,-0.628 0,0 -4.059,0.891 -7.043,0.733 0,0 -2.645,-0.079 -5.711,-1.309 0,0 -1.439,-1.18 -3.98,-0.236 z"
             style="fill:#ffffff;fill-opacity:1;fill-rule:nonzero;stroke:none"
             id="path237661"
             inkscape:connector-curvature="0" />
        </g>
        <g
           id="g237663"
           transform="translate(70.8302,761.7061)">
          <path
             d="M 0,0 C 0,0.252 0.312,0.457 0.696,0.457 1.083,0.457 1.393,0.252 1.393,0 1.393,-0.252 1.083,-0.457 0.696,-0.457 0.312,-0.457 0,-0.252 0,0 M 1.515,0.539 C 1.324,0.676 0.932,0.755 0.637,0.799 0.483,0.82 0.107,0.713 -0.146,0.62 L -0.197,0.601 C -0.427,0.518 -0.665,0.432 -0.698,0.196 -0.714,0.095 -0.618,0.052 -0.549,0.02 c 0.037,-0.017 0.09,-0.041 0.107,-0.063 0.026,-0.036 0.05,-0.073 0.075,-0.111 0.151,-0.225 0.319,-0.481 0.788,-0.548 0.089,-0.013 0.179,-0.019 0.269,-0.019 0.546,0 0.964,0.246 1.016,0.607 0.03,0.206 0.069,0.468 -0.191,0.653"
             style="fill:#231f20;fill-opacity:1;fill-rule:nonzero;stroke:none"
             id="path237665"
             inkscape:connector-curvature="0" />
        </g>
        <g
           id="g237667"
           transform="translate(72.2239,761.7061)">
          <path
             d="m 0,0 c 0,0.252 -0.311,0.457 -0.697,0.457 -0.385,0 -0.696,-0.205 -0.696,-0.457 0,-0.252 0.311,-0.457 0.696,-0.457 C -0.311,-0.457 0,-0.252 0,0"
             style="fill:#ffffff;fill-opacity:1;fill-rule:nonzero;stroke:none"
             id="path237669"
             inkscape:connector-curvature="0" />
        </g>
        <g
           id="g237671"
           transform="translate(70.9898,761.6891)">
          <path
             d="M 0,0 C 0,0.232 0.257,0.42 0.572,0.42 0.888,0.42 1.145,0.232 1.145,0 1.145,-0.232 0.888,-0.421 0.572,-0.421 0.257,-0.421 0,-0.232 0,0"
             style="fill:#231f20;fill-opacity:1;fill-rule:nonzero;stroke:none"
             id="path237673"
             inkscape:connector-curvature="0" />
        </g>
        <g
           id="g237675"
           transform="translate(88.4127,755.8275)">
          <path
             d="M 0,0 C -0.255,0.076 -0.515,0.155 -0.82,0.155 -0.87,0.155 -0.923,0.153 -0.978,0.147 -1.114,0.135 -1.249,0.12 -1.384,0.104 -1.57,0.082 -1.764,0.061 -1.951,0.05 -3.516,-0.051 -5.12,0.059 -6.593,0.368 c -1.142,0.241 -2.297,0.519 -3.414,0.788 -0.783,0.189 -1.592,0.385 -2.389,0.565 -0.46,0.103 -0.914,0.114 -1.453,0.099 -0.294,-0.009 -0.582,-0.054 -0.86,-0.097 -0.532,-0.082 -1.034,-0.162 -1.537,0.009 -0.594,0.199 -1.131,0.573 -1.598,1.111 0.206,0.139 0.688,0.406 1.672,0.706 C -15.641,3.53 -8.438,3.273 -4.7,2.238 l 0.001,0.002 c 0.187,-0.067 0.374,-0.135 0.557,-0.199 1.096,-0.388 2.228,-0.79 3.281,-1.368 0.329,-0.179 0.67,-0.43 0.872,-0.676 C 0.009,-0.002 0.003,0 0,0 m -15.57,-3.038 c -1.113,-0.957 -2.433,-1.405 -3.83,-1.88 l -0.289,-0.098 c -1.36,-0.464 -3.154,-1.071 -4.964,-1.635 -2.51,-0.781 -5.517,-1.581 -8.783,-1.586 -0.87,-0.008 -1.747,0.04 -2.615,0.121 -0.928,0.087 -1.866,0.246 -2.771,0.4 -0.904,0.153 -1.84,0.311 -2.772,0.4 -1.52,0.144 -3.122,0.055 -4.761,-0.262 -1.127,-0.216 -2.283,-0.577 -3.432,-1.069 l -0.23,-0.093 c -0.754,-0.311 -1.254,-0.516 -2.113,-0.396 -0.388,0.055 -0.784,0.15 -1.167,0.244 -0.402,0.096 -0.812,0.197 -1.228,0.253 0.404,0.167 0.923,0.224 1.365,0.272 0.141,0.014 0.275,0.03 0.397,0.048 l 0.201,0.028 -0.042,0.197 c -0.007,0.035 -0.023,0.184 0.033,0.26 0.015,0.021 0.045,0.048 0.126,0.057 0.108,0.009 2.627,0.246 3.438,0.501 0.384,0.084 1.416,0.271 3.968,1.578 0.702,0.317 1.796,0.776 2.544,0.908 0,0 -1.564,-0.027 -2.715,-0.578 -2.125,-1.086 -3.226,-1.404 -3.636,-1.494 0.01,0.527 0.223,1.928 2.138,2.336 0.144,0.033 0.216,0.18 0.311,0.401 0.013,0.03 0.023,0.055 0.029,0.068 0.203,0.333 0.467,0.713 0.873,1.012 0.628,0.459 1.387,0.707 2.19,0.865 0.549,0.11 1.118,0.179 1.68,0.246 0.676,0.082 1.375,0.166 2.007,0.32 1.478,0.366 2.627,0.764 3.492,1.315 0.005,0.004 0.011,0.008 0.017,0.013 0.154,0.097 0.298,0.203 0.433,0.312 1.276,0.962 1.646,1.701 1.646,1.701 -1.16,-1.033 -2.14,-1.634 -2.573,-1.878 -0.793,-0.414 -1.834,-0.782 -3.106,-1.095 -0.607,-0.15 -1.265,-0.229 -1.961,-0.312 0,0 -1.711,-0.283 -1.713,-0.283 l -0.406,-0.086 -0.7,1.567 c -3.026,7.066 0.745,10.2 0.745,10.2 l 0.058,-0.149 c -1.286,-1.622 -1.817,-4.052 -1.394,-6.179 0.14,-0.706 0.385,-1.379 0.743,-1.976 0.361,-0.603 0.942,-1.124 1.598,-1.394 0.923,-0.381 2.033,-0.358 2.96,0.009 -3.108,3.716 1.199,4.766 1.199,4.766 -0.536,1.928 1.218,1.354 1.218,1.354 -0.401,2.193 1.281,1.07 1.281,1.07 l -0.164,0.998 c -0.095,1.564 1.426,0.025 1.426,0.025 0.697,-0.726 0.437,0.788 0.437,0.788 -0.112,1.378 0.948,0.237 0.948,0.237 1.008,-1.14 0.661,0.384 0.661,0.384 -0.055,0.944 0.927,0.373 0.927,0.373 1.842,-0.834 1.929,-2.842 1.929,-2.842 0.148,-1.54 0.283,-2.265 0.283,-2.265 0.257,-2.06 4.366,-2.72 4.366,-2.72 L -21.406,1.5 c 0,0 -4.117,4.087 0.656,6.076 0.993,0.282 4.594,0.736 5.768,-1.794 -0.674,-0.358 -1.208,-1.534 -1.357,-1.891 -1.488,-0.458 -1.875,-0.848 -1.914,-0.892 l -0.109,-0.12 0.101,-0.125 c 0.541,-0.674 1.179,-1.139 1.895,-1.381 0.347,-0.116 0.689,-0.132 1.025,-0.11 0.931,-1.251 1.15,-3.115 -0.229,-4.301 m 1.285,8.429 c 0.042,-0.009 0.074,-0.015 0.087,-0.019 0.549,-0.158 1.097,-0.32 1.644,-0.484 1.404,-0.421 2.898,-0.874 4.346,-1.368 0.419,-0.142 0.804,-0.276 1.169,-0.408 -3.469,0.565 -7.767,0.761 -8.878,0.805 0.131,0.29 0.308,0.619 0.502,0.902 0.648,-0.094 2.61,-0.379 3.5,-0.551 l -3.308,0.807 c 0.17,0.206 0.349,0.363 0.516,0.416 0.098,-0.032 0.232,-0.062 0.422,-0.1 M 0.557,-0.258 C 0.444,0.347 -0.418,0.861 -0.68,1.005 -1.76,1.598 -2.905,2.004 -4.016,2.397 -4.51,2.572 -5.021,2.753 -5.52,2.948 c -0.764,0.3 -1.579,0.595 -2.567,0.93 -1.454,0.495 -2.95,0.95 -4.36,1.373 -0.548,0.163 -1.097,0.325 -1.647,0.484 -0.016,0.005 -0.058,0.014 -0.116,0.025 -0.078,0.016 -0.297,0.061 -0.39,0.092 -1.115,2.572 -4.529,2.547 -6.159,2.113 -0.115,3.093 -1.578,5.394 -1.578,5.394 -1.157,1.446 -0.723,-0.146 -0.723,-0.146 l 0.216,-0.904 c 0.362,-1.337 -0.254,-0.794 -0.254,-0.794 l -1.554,1.663 c -1.729,1.693 -0.301,-1.492 -0.739,-1.603 -0.453,-0.114 -1.493,1.852 -1.853,1.225 -0.254,-0.445 0.386,-1.345 0.495,-1.765 0.003,-0.013 0.075,-0.383 0.035,-0.349 -0.043,0.038 -1.048,0.904 -1.048,0.904 -1.01,0.903 -0.251,-0.868 -0.251,-0.868 0.72,-1.663 -0.723,0.218 -0.723,0.218 -0.94,0.76 -0.074,-1.482 -0.074,-1.482 0.506,-1.41 -0.217,-0.723 -0.217,-0.723 -2.637,3.797 -0.502,7.809 -0.502,7.809 l 0.434,0.777 c 0.547,1.352 -1.681,-0.759 -1.681,-0.759 -0.919,-0.772 -0.868,10e-4 -0.868,10e-4 l 0.218,2.06 c 0.573,3.458 -1.41,-0.92 -1.41,-0.92 -0.869,-2.332 -1.03,-0.815 -1.03,-0.815 l -0.757,3.745 c -0.759,2.331 -1.249,-2.928 -1.249,-2.928 -0.218,-2.332 -0.707,-1.301 -0.707,-1.301 l -0.919,3.362 c -0.595,2.278 -0.868,0.76 -0.868,0.76 l -0.041,-5.569 c -0.054,-2.711 -2.399,3.022 -2.399,3.022 -1.518,2.44 0.322,-4.502 0.322,-4.502 0.324,-1.952 -1.571,1.466 -1.571,1.466 -1.382,2.009 -0.219,-2.169 -0.219,-2.169 0.564,-2.009 -0.11,-1.302 -0.11,-1.302 l -1.462,1.736 c -0.596,0.652 -0.025,-2.621 -0.025,-2.621 l -0.182,-0.205 c -1.023,-1.15 -1.578,-2.33 -1.834,-3.468 0,0 -1.063,-3.572 1.676,-8.861 0.01,-0.026 0.022,-0.049 0.031,-0.064 -0.392,-0.083 -0.801,-0.298 -0.801,-0.298 -0.258,-0.119 -0.504,-0.262 -0.736,-0.431 -0.46,-0.338 -0.75,-0.757 -0.973,-1.12 -0.013,-0.021 -0.032,-0.063 -0.054,-0.116 -0.019,-0.046 -0.06,-0.143 -0.09,-0.19 -2.214,-0.496 -2.388,-2.241 -2.388,-2.781 -0.873,-0.229 -3.235,-0.454 -3.257,-0.455 -0.213,-0.018 -0.333,-0.123 -0.395,-0.206 -0.085,-0.113 -0.11,-0.25 -0.114,-0.36 -0.07,-0.008 -0.141,-0.017 -0.212,-0.024 -0.688,-0.076 -1.544,-0.169 -2.026,-0.656 l -0.312,-0.311 0.439,-0.01 c 0.572,-0.014 1.153,-0.155 1.712,-0.29 0.393,-0.095 0.798,-0.194 1.205,-0.251 0.189,-0.027 0.362,-0.038 0.525,-0.038 0.665,0 1.155,0.2 1.784,0.459 l 0.231,0.094 c 1.128,0.482 2.257,0.835 3.358,1.046 1.605,0.311 3.169,0.398 4.654,0.257 0.918,-0.087 1.847,-0.244 2.745,-0.396 0.913,-0.155 1.856,-0.315 2.798,-0.403 0.882,-0.082 1.771,-0.121 2.651,-0.124 3.317,0.005 6.357,0.813 8.895,1.605 1.815,0.565 3.613,1.171 4.973,1.635 l 0.29,0.1 c 1.431,0.485 2.785,0.946 3.956,1.952 1.488,1.28 1.337,3.247 0.409,4.634 0.088,0.014 0.176,0.025 0.261,0.04 0.268,0.041 0.545,0.084 0.814,0.092 0.512,0.015 0.937,0.005 1.356,-0.091 0.796,-0.179 1.604,-0.374 2.387,-0.562 1.119,-0.271 2.278,-0.55 3.423,-0.791 1.507,-0.316 3.146,-0.429 4.743,-0.326 0.2,0.011 0.396,0.034 0.586,0.057 0.133,0.015 0.266,0.03 0.399,0.041 0.3,0.027 0.562,-0.05 0.835,-0.132 0.141,-0.042 0.286,-0.085 0.445,-0.117 l 0.275,-0.055 z"
             style="fill:#231f20;fill-opacity:1;fill-rule:nonzero;stroke:none"
             id="path237677"
             inkscape:connector-curvature="0" />
        </g>
      </g>
    </g>
  </g>
</svg>
