<?xml version="1.0" encoding="UTF-8" standalone="no"?>
<svg
   width="32.946278mm"
   height="41.29044mm"
   viewBox="0 0 32.946277 41.29044"
   version="1.1"
   id="svg67976"
   xmlns="http://www.w3.org/2000/svg"
   xmlns:svg="http://www.w3.org/2000/svg"
   xmlns:rdf="http://www.w3.org/1999/02/22-rdf-syntax-ns#"
   xmlns:cc="http://creativecommons.org/ns#"
   xmlns:dc="http://purl.org/dc/elements/1.1/">
  <defs
     id="defs67970">
    <clipPath
       id="clipPath133548"
       clipPathUnits="userSpaceOnUse">
      <path
         id="path133546"
         d="M 0,0 H 518.74 V 694.488 H 0 Z" />
    </clipPath>
    <clipPath
       id="clipPath133794"
       clipPathUnits="userSpaceOnUse">
      <path
         id="path133792"
         d="m 79.405,445.217 c 0.598,-0.088 1.189,-0.187 1.773,-0.295 v 0 l 3.053,-0.668 h 0.002 l 1.232,-0.352 0.022,0.081 -1.233,0.352 c -1.393,0.352 -2.823,0.648 -4.294,0.882 v 0 z m 12.988,-3.799 0.348,-0.144 0.003,-10e-4 2.13,-1.018 0.084,0.052 -2.179,1.044 -0.353,0.146 z m -20.843,-6.101 -0.878,-0.012 v -0.086 l 0.882,0.016 c 2.152,-0.054 4.237,-0.271 6.267,-0.631 v 0 l 0.127,-0.03 0.018,0.082 -0.126,0.027 -0.003,0.002 c -2.034,0.362 -4.126,0.58 -6.282,0.632 v 0 z m 34.497,-1.921 1.652,-1.152 v -0.001 l 1.543,-1.158 h 0.14 l -1.635,1.225 -1.784,1.248 z m -20.516,-0.933 1.064,-0.387 2.32,-0.991 v 0.083 l 0.032,-0.008 -2.317,0.996 -0.006,10e-4 -1.065,0.385 z m 36.694,-11.136 1.741,-1.229 c 0.792,-0.545 1.59,-1.081 2.398,-1.603 v 0 l 1.243,-0.774 0.045,0.072 -1.242,0.774 c -0.806,0.521 -1.606,1.054 -2.395,1.601 v 0 l -1.766,1.243 z m -16.263,-0.771 3.948,-2.967 c 1.631,-1.246 3.251,-2.496 4.869,-3.727 v 0 l 3.467,-2.569 0.013,0.082 0.035,-0.016 -3.463,2.571 -4.869,3.724 -3.915,2.946 z m 32.167,-8.175 1.115,-0.437 c 2.775,-0.992 5.688,-1.758 8.785,-2.23 v 0 l 0.002,-0.002 1.433,-0.166 0.01,0.083 -1.432,0.168 c -3.092,0.471 -6,1.236 -8.771,2.227 v 0 l -1.111,0.433 z m -8.567,-8.429 2.167,-1.097 c 5.005,-2.395 10.233,-3.915 15.876,-3.957 v 0 h 0.495 c 0.058,0 0.117,10e-4 0.176,0.002 v 0 l 1.198,0.068 -0.004,0.084 -1.194,-0.069 h -0.006 l -2.139,0.045 c -4.242,0.225 -8.253,1.278 -12.125,2.898 v 0 l -1.918,0.853 -0.004,10e-4 -2.482,1.249 z" />
    </clipPath>
    <clipPath
       id="clipPath133804"
       clipPathUnits="userSpaceOnUse">
      <path
         id="path133802"
         d="m 70.671011,398.89759 v 46.31998 h 78.802559 v -46.31998 z" />
    </clipPath>
    <clipPath
       id="clipPath136188"
       clipPathUnits="userSpaceOnUse">
      <path
         id="path136186"
         d="m 303.989,587.94 h -95.2 V 422.386 h 95.2 z" />
    </clipPath>
  </defs>
  <metadata
     id="metadata67973">
    <rdf:RDF>
      <cc:Work
         rdf:about="">
        <dc:format>image/svg+xml</dc:format>
        <dc:type
           rdf:resource="http://purl.org/dc/dcmitype/StillImage" />
        <dc:title />
      </cc:Work>
    </rdf:RDF>
  </metadata>
  <g
     id="layer1"
     transform="translate(277.9922,36.812645)">
    <g
       id="g1270">
      <g
         transform="matrix(0.35277777,0,0,-0.35277777,130.47731,130.73488)"
         id="g133542">
        <g
           clip-path="url(#clipPath133548)"
           id="g133544">
          <text
             id="text133554"
             style="font-variant:normal;font-weight:bold;font-stretch:normal;font-size:17px;font-family:'DDEYKP +Montserrat-Bold';-inkscape-font-specification:Montserrat-Bold;writing-mode:lr-tb;fill:#00437b;fill-opacity:1;fill-rule:nonzero;stroke:none"
             transform="matrix(1,0,0,-1,562.7269,59.67)"
             y="0"><tspan
               id="tspan133550"
               y="0"
               x="0 12.665 22.559 32.452999 42.959 51.799 60.639 65.126999 72.607002 83.470001 93.975998 98.463997 109.497 120.819 132.14101 143.174 150.161 157.64101 168.521 179.384 184.34801 191.828 201.858 206.34599 213.724 224.757 229.245 238.901 249.407 259.505 266.492 277.35501 282.40399">Access the opportunity to Learn,</tspan><tspan
               id="tspan133552"
               y="24.395"
               x="9.809 22.882 33.251999 43.214001 53.720001 58.683998 69.717003 81.039001 86.087997 90.575996 101.422 111.928 118.915 128.877 139.383 144.43201 148.92 161.67 168.521 179.384 194.718 199.20599 209.304 220.16701 231.489 235.97701 247.095 257.04001 266.93399 277.44">Develop, Serve, Grow and Excel</tspan></text>
        </g>
      </g>
      <g
         transform="matrix(0.35277777,0,0,-0.35277777,130.47731,130.73488)"
         id="g133788">
        <g
           clip-path="url(#clipPath133794)"
           id="g133790">
          <g
             id="g133796">
            <g
               id="g133798">
              <g
                 clip-path="url(#clipPath133804)"
                 id="g133800" />
            </g>
          </g>
        </g>
      </g>
      <g
         transform="matrix(0.35277777,0,0,-0.35277777,-351.64832,170.60022)"
         id="g136182">
        <g
           clip-path="url(#clipPath136188)"
           id="g136184">
          <g
             transform="translate(223.598,479.46)"
             id="g136190">
            <path
               id="path136192"
               style="fill:none;stroke:#c08f40;stroke-width:0.941;stroke-linecap:butt;stroke-linejoin:miter;stroke-miterlimit:4;stroke-dasharray:none;stroke-opacity:1"
               d="m 0,0 c -4.233,-6.407 -12.988,-3.853 -12.988,-3.853 2.919,1.667 3.442,3.169 3.442,3.169 -3.168,1.33 -4.452,5.071 -4.452,5.071 3.153,-1.527 7.386,-2.63 10.14,1.627" />
          </g>
        </g>
      </g>
      <g
         transform="matrix(0.35277777,0,0,-0.35277777,-272.27121,-0.23347111)"
         id="g136194">
        <path
           id="path136196"
           style="fill:none;stroke:#c08f40;stroke-width:0.939;stroke-linecap:butt;stroke-linejoin:miter;stroke-miterlimit:4;stroke-dasharray:none;stroke-opacity:1"
           d="m 0,0 c -1.627,0.125 -6.021,1.076 -8.02,2.974 -2.504,2.378 -0.421,3.496 2.629,8.262 2.004,3.13 4.758,1.753 6.385,0.25 1.367,-1.262 2.504,-4.131 3.005,-6.01" />
      </g>
      <g
         transform="matrix(0.35277777,0,0,-0.35277777,-270.86715,-2.3547243)"
         id="g136198">
        <path
           id="path136200"
           style="fill:#ffffff;fill-opacity:1;fill-rule:nonzero;stroke:none"
           d="M 0,0 C 0,0 1.774,-1.196 3.424,-2.629" />
      </g>
      <g
         transform="matrix(0.35277777,0,0,-0.35277777,-270.86715,-2.3547243)"
         id="g136202">
        <path
           id="path136204"
           style="fill:none;stroke:#c08f40;stroke-width:0.939;stroke-linecap:butt;stroke-linejoin:miter;stroke-miterlimit:4;stroke-dasharray:none;stroke-opacity:1"
           d="M 0,0 C 0,0 1.774,-1.196 3.424,-2.629" />
      </g>
      <g
         transform="matrix(0.35277777,0,0,-0.35277777,-268.71274,-2.85108e-4)"
         id="g136206">
        <path
           id="path136208"
           style="fill:#c08f40;fill-opacity:1;fill-rule:nonzero;stroke:none"
           d="m 0,0 c -1.116,4.183 -3.587,5.792 -8.052,7.456 -3.058,1.137 -3.439,1.376 -3.92,1.679 -0.08,0.05 -0.162,0.103 -0.259,0.161 -0.299,0.178 -0.474,0.477 -0.466,0.797 0.006,0.248 0.12,0.455 0.305,0.555 0.295,0.158 0.825,0.216 1.354,-0.117 -0.004,0.002 0.913,-0.574 1.148,-1.122 l 0.261,0.262 c -0.052,0.363 -0.568,1.211 -0.967,1.497 -1.094,0.784 -1.886,0.496 -2.24,0.306 -0.486,-0.261 -0.786,-0.769 -0.8,-1.358 -0.016,-0.661 0.329,-1.271 0.922,-1.626 0.088,-0.053 0.167,-0.102 0.242,-0.15 0.548,-0.344 0.944,-0.592 4.092,-1.765 4.811,-1.792 6.557,-3.384 7.472,-6.817 L 0,0" />
      </g>
      <g
         transform="matrix(0.35277777,0,0,-0.35277777,-272.28496,-1.9726661)"
         id="g136210">
        <path
           id="path136212"
           style="fill:#c08f40;fill-opacity:1;fill-rule:nonzero;stroke:none"
           d="M 0,0 C 1.471,-0.589 6.573,-2.034 7.433,-4.772 L 6.729,-4.538 C 5.79,-2.034 1.471,-0.589 0,0" />
      </g>
      <g
         transform="matrix(0.35277777,0,0,-0.35277777,-272.28496,-1.9726661)"
         id="g136214">
        <path
           id="path136216"
           style="fill:none;stroke:#c08f40;stroke-width:0.156;stroke-linecap:butt;stroke-linejoin:miter;stroke-miterlimit:4;stroke-dasharray:none;stroke-opacity:1"
           d="M 0,0 C 1.471,-0.589 6.573,-2.034 7.433,-4.772 L 6.729,-4.538 C 5.79,-2.034 1.471,-0.589 0,0" />
      </g>
      <g
         transform="matrix(0.35277777,0,0,-0.35277777,-272.40209,-1.4932411)"
         id="g136218">
        <path
           id="path136220"
           style="fill:#c08f40;fill-opacity:1;fill-rule:nonzero;stroke:none"
           d="M 0,0 C 1.471,-0.589 4.089,-0.909 5.732,-3.022 L 5.497,-3.335 C 3.463,-1.222 1.471,-0.589 0,0" />
      </g>
      <g
         transform="matrix(0.35277777,0,0,-0.35277777,-272.40209,-1.4932411)"
         id="g136222">
        <path
           id="path136224"
           style="fill:none;stroke:#c08f40;stroke-width:0.156;stroke-linecap:butt;stroke-linejoin:miter;stroke-miterlimit:4;stroke-dasharray:none;stroke-opacity:1"
           d="M 0,0 C 1.471,-0.589 4.089,-0.909 5.732,-3.022 L 5.497,-3.335 C 3.463,-1.222 1.471,-0.589 0,0" />
      </g>
      <g
         transform="matrix(0.35277777,0,0,-0.35277777,-272.56789,-0.99617711)"
         id="g136226">
        <path
           id="path136228"
           style="fill:#c08f40;fill-opacity:1;fill-rule:nonzero;stroke:none"
           d="m 0,0 c 1.472,-0.589 2.015,-0.246 4.089,-1.537 v -0.39 C 1.507,-0.44 1.472,-0.589 0,0" />
      </g>
      <g
         transform="matrix(0.35277777,0,0,-0.35277777,-272.56789,-0.99617711)"
         id="g136230">
        <path
           id="path136232"
           style="fill:none;stroke:#c08f40;stroke-width:0.156;stroke-linecap:butt;stroke-linejoin:miter;stroke-miterlimit:4;stroke-dasharray:none;stroke-opacity:1"
           d="m 0,0 c 1.472,-0.589 2.015,-0.246 4.089,-1.537 v -0.39 C 1.507,-0.44 1.472,-0.589 0,0" />
      </g>
      <g
         transform="matrix(0.35277777,0,0,-0.35277777,-273.88375,-1.2487661)"
         id="g136234">
        <path
           id="path136236"
           style="fill:none;stroke:#c08f40;stroke-width:0.47;stroke-linecap:butt;stroke-linejoin:miter;stroke-miterlimit:4;stroke-dasharray:none;stroke-opacity:1"
           d="M 0,0 2.155,3.5" />
      </g>
      <g
         transform="matrix(0.35277777,0,0,-0.35277777,-273.74511,-2.3444937)"
         id="g136238">
        <path
           id="path136240"
           style="fill:none;stroke:#c08f40;stroke-width:0.47;stroke-linecap:butt;stroke-linejoin:miter;stroke-miterlimit:4;stroke-dasharray:none;stroke-opacity:1"
           d="M 0,0 2.19,-1.374" />
      </g>
      <g
         transform="matrix(0.35277777,0,0,-0.35277777,-250.27128,1.4573919)"
         id="g136242">
        <path
           id="path136244"
           style="fill:none;stroke:#c08f40;stroke-width:0.941;stroke-linecap:butt;stroke-linejoin:miter;stroke-miterlimit:4;stroke-dasharray:none;stroke-opacity:1"
           d="M 0,0 C 4.234,-6.407 12.989,-3.853 12.989,-3.853 10.07,-2.186 9.546,-0.684 9.546,-0.684 12.715,0.646 14,4.387 14,4.387 10.845,2.86 6.613,1.757 3.859,6.014" />
      </g>
      <g
         transform="matrix(0.35277777,0,0,-0.35277777,-250.76799,-0.23347111)"
         id="g136246">
        <path
           id="path136248"
           style="fill:none;stroke:#c08f40;stroke-width:0.939;stroke-linecap:butt;stroke-linejoin:miter;stroke-miterlimit:4;stroke-dasharray:none;stroke-opacity:1"
           d="m 0,0 c 1.628,0.125 6.021,1.076 8.021,2.974 2.504,2.378 0.421,3.496 -2.629,8.262 -2.003,3.13 -4.758,1.753 -6.385,0.25 -1.368,-1.262 -2.503,-4.131 -3.005,-6.01" />
      </g>
      <g
         transform="matrix(0.35277777,0,0,-0.35277777,-250.75423,-1.9726661)"
         id="g136250">
        <path
           id="path136252"
           style="fill:#c08f40;fill-opacity:1;fill-rule:nonzero;stroke:none"
           d="m 0,0 c -1.47,-0.589 -6.572,-2.034 -7.432,-4.772 l 0.704,0.234 C -5.789,-2.034 -1.47,-0.589 0,0" />
      </g>
      <g
         transform="matrix(0.35277777,0,0,-0.35277777,-250.75423,-1.9726661)"
         id="g136254">
        <path
           id="path136256"
           style="fill:none;stroke:#c08f40;stroke-width:0.156;stroke-linecap:butt;stroke-linejoin:miter;stroke-miterlimit:4;stroke-dasharray:none;stroke-opacity:1"
           d="m 0,0 c -1.47,-0.589 -6.572,-2.034 -7.432,-4.772 l 0.704,0.234 C -5.789,-2.034 -1.47,-0.589 0,0" />
      </g>
      <g
         transform="matrix(0.35277777,0,0,-0.35277777,-250.63676,-1.4932411)"
         id="g136258">
        <path
           id="path136260"
           style="fill:#c08f40;fill-opacity:1;fill-rule:nonzero;stroke:none"
           d="m 0,0 c -1.471,-0.589 -4.089,-0.909 -5.731,-3.022 l 0.234,-0.313 C -3.463,-1.222 -1.471,-0.589 0,0" />
      </g>
      <g
         transform="matrix(0.35277777,0,0,-0.35277777,-250.63676,-1.4932411)"
         id="g136262">
        <path
           id="path136264"
           style="fill:none;stroke:#c08f40;stroke-width:0.156;stroke-linecap:butt;stroke-linejoin:miter;stroke-miterlimit:4;stroke-dasharray:none;stroke-opacity:1"
           d="m 0,0 c -1.471,-0.589 -4.089,-0.909 -5.731,-3.022 l 0.234,-0.313 C -3.463,-1.222 -1.471,-0.589 0,0" />
      </g>
      <g
         transform="matrix(0.35277777,0,0,-0.35277777,-250.4713,-0.99617711)"
         id="g136266">
        <path
           id="path136268"
           style="fill:#c08f40;fill-opacity:1;fill-rule:nonzero;stroke:none"
           d="m 0,0 c -1.471,-0.589 -2.016,-0.246 -4.088,-1.537 v -0.39 C -1.507,-0.44 -1.471,-0.589 0,0" />
      </g>
      <g
         transform="matrix(0.35277777,0,0,-0.35277777,-250.4713,-0.99617711)"
         id="g136270">
        <path
           id="path136272"
           style="fill:none;stroke:#c08f40;stroke-width:0.156;stroke-linecap:butt;stroke-linejoin:miter;stroke-miterlimit:4;stroke-dasharray:none;stroke-opacity:1"
           d="m 0,0 c -1.471,-0.589 -2.016,-0.246 -4.088,-1.537 v -0.39 C -1.507,-0.44 -1.471,-0.589 0,0" />
      </g>
      <g
         transform="matrix(0.35277777,0,0,-0.35277777,-261.51924,-17.852957)"
         id="g136274">
        <path
           id="path136276"
           style="fill:none;stroke:#c08f40;stroke-width:0.941;stroke-linecap:butt;stroke-linejoin:miter;stroke-miterlimit:4;stroke-dasharray:none;stroke-opacity:1"
           d="m 0,0 h 22.972 c 1.003,-1.502 4.32,-6.573 4.32,-6.573 0,0 -4.17,0.1 -4.257,-7.699 -0.112,-10.265 0,-19.655 0,-19.655 0,-1.377 -0.063,-6.135 -4.193,-8.263 C 15.389,-43.968 0,-52.705 0,-52.705 c 0,0 -15.39,8.737 -18.842,10.515 -4.132,2.128 -4.194,6.886 -4.194,8.263 0,0 0.113,9.39 0,19.655 -0.086,7.799 -4.257,7.699 -4.257,7.699 0,0 3.318,5.071 4.319,6.573 L 0,0" />
      </g>
      <g
         transform="matrix(0.35277777,0,0,-0.35277777,-261.51924,-17.048271)"
         id="g136278">
        <path
           id="path136280"
           style="fill:none;stroke:#c08f40;stroke-width:0.941;stroke-linecap:butt;stroke-linejoin:miter;stroke-miterlimit:4;stroke-dasharray:none;stroke-opacity:1"
           d="m 0,0 h 21.309 c 0.903,-1.356 2.296,-3.617 2.296,-3.617 0,0 -2.858,-1.795 -2.816,-9.263 0.052,-9.265 0,-18.005 0,-18.005 0,-1.243 -0.057,-5.492 -3.784,-7.412 C 13.888,-39.902 0,-47.788 0,-47.788 c 0,0 -13.889,7.886 -17.005,9.491 -3.728,1.92 -3.785,6.169 -3.785,7.412 0,0 -0.051,8.74 0,18.005 0.042,7.468 -2.817,9.263 -2.817,9.263 0,0 1.393,2.261 2.297,3.617 L 0,0" />
      </g>
      <g
         transform="matrix(0.35277777,0,0,-0.35277777,-261.51466,-34.311098)"
         id="g136282">
        <path
           id="path136284"
           style="fill:none;stroke:#c08f40;stroke-width:0.941;stroke-linecap:butt;stroke-linejoin:miter;stroke-miterlimit:4;stroke-dasharray:none;stroke-opacity:1"
           d="M 0,0 V 7.091" />
      </g>
      <g
         transform="matrix(0.35277777,0,0,-0.35277777,-260.64788,-36.008665)"
         id="g136286">
        <path
           id="path136288"
           style="fill:none;stroke:#c08f40;stroke-width:0.941;stroke-linecap:butt;stroke-linejoin:miter;stroke-miterlimit:4;stroke-dasharray:none;stroke-opacity:1"
           d="M 0,0 H -4.728" />
      </g>
      <g
         transform="matrix(0.35277777,0,0,-0.35277777,-263.75092,-25.656754)"
         id="g136290">
        <path
           id="path136292"
           style="fill:none;stroke:#c08f40;stroke-width:0.782;stroke-linecap:butt;stroke-linejoin:miter;stroke-miterlimit:4;stroke-dasharray:none;stroke-opacity:1"
           d="M 0,0 -1.827,5.58" />
      </g>
      <g
         transform="matrix(0.35277777,0,0,-0.35277777,-263.57841,-27.224851)"
         id="g136294">
        <path
           id="path136296"
           style="fill:none;stroke:#c08f40;stroke-width:0.782;stroke-linecap:butt;stroke-linejoin:miter;stroke-miterlimit:4;stroke-dasharray:none;stroke-opacity:1"
           d="M 0,0 -3.501,-1.181" />
      </g>
      <g
         transform="matrix(0.35277777,0,0,-0.35277777,-249.11381,-1.2487661)"
         id="g136298">
        <path
           id="path136300"
           style="fill:none;stroke:#c08f40;stroke-width:0.47;stroke-linecap:butt;stroke-linejoin:miter;stroke-miterlimit:4;stroke-dasharray:none;stroke-opacity:1"
           d="M 0,0 -2.155,3.5" />
      </g>
      <g
         transform="matrix(0.35277777,0,0,-0.35277777,-249.25281,-2.3444937)"
         id="g136302">
        <path
           id="path136304"
           style="fill:none;stroke:#c08f40;stroke-width:0.47;stroke-linecap:butt;stroke-linejoin:miter;stroke-miterlimit:4;stroke-dasharray:none;stroke-opacity:1"
           d="M 0,0 -2.191,-1.374" />
      </g>
      <g
         transform="matrix(0.35277777,0,0,-0.35277777,-259.24665,-25.656754)"
         id="g136306">
        <path
           id="path136308"
           style="fill:none;stroke:#c08f40;stroke-width:0.782;stroke-linecap:butt;stroke-linejoin:miter;stroke-miterlimit:4;stroke-dasharray:none;stroke-opacity:1"
           d="M 0,0 1.827,5.58" />
      </g>
      <g
         transform="matrix(0.35277777,0,0,-0.35277777,-259.41916,-27.224851)"
         id="g136310">
        <path
           id="path136312"
           style="fill:none;stroke:#c08f40;stroke-width:0.782;stroke-linecap:butt;stroke-linejoin:miter;stroke-miterlimit:4;stroke-dasharray:none;stroke-opacity:1"
           d="M 0,0 3.501,-1.181" />
      </g>
      <g
         transform="matrix(0.35277777,0,0,-0.35277777,-265.19166,-20.649074)"
         id="g136314">
        <path
           id="path136316"
           style="fill:none;stroke:#c08f40;stroke-width:0.941;stroke-linecap:butt;stroke-linejoin:miter;stroke-miterlimit:4;stroke-dasharray:none;stroke-opacity:1"
           d="m 0,0 c -1.653,9.495 -6.456,20.87 -6.639,21.237 -0.185,0.368 16.044,16.477 17.055,17.49" />
      </g>
      <g
         transform="matrix(0.35277777,0,0,-0.35277777,-261.49843,-30.50886)"
         id="g136318">
        <path
           id="path136320"
           style="fill:#c08f40;fill-opacity:1;fill-rule:nonzero;stroke:none"
           d="M 0,0 C 0.414,0 0.749,0.336 0.749,0.749 0.749,1.163 0.414,1.498 0,1.498 -0.414,1.498 -0.749,1.163 -0.749,0.749 -0.749,0.336 -0.414,0 0,0" />
      </g>
      <g
         transform="matrix(0.35277777,0,0,-0.35277777,-261.49843,-32.359532)"
         id="g136322">
        <path
           id="path136324"
           style="fill:#c08f40;fill-opacity:1;fill-rule:nonzero;stroke:none"
           d="m 0,0 c 0.414,0 0.749,0.335 0.749,0.748 0,0.414 -0.335,0.75 -0.749,0.75 -0.414,0 -0.749,-0.336 -0.749,-0.75 C -0.749,0.335 -0.414,0 0,0" />
      </g>
      <g
         transform="matrix(0.35277777,0,0,-0.35277777,-261.49843,-28.65854)"
         id="g136326">
        <path
           id="path136328"
           style="fill:#c08f40;fill-opacity:1;fill-rule:nonzero;stroke:none"
           d="M 0,0 C 0.414,0 0.749,0.335 0.749,0.749 0.749,1.162 0.414,1.498 0,1.498 -0.414,1.498 -0.749,1.162 -0.749,0.749 -0.749,0.335 -0.414,0 0,0" />
      </g>
      <g
         transform="matrix(0.35277777,0,0,-0.35277777,-261.49843,-26.808221)"
         id="g136330">
        <path
           id="path136332"
           style="fill:#c08f40;fill-opacity:1;fill-rule:nonzero;stroke:none"
           d="M 0,0 C 0.414,0 0.749,0.335 0.749,0.749 0.749,1.162 0.414,1.498 0,1.498 -0.414,1.498 -0.749,1.162 -0.749,0.749 -0.749,0.335 -0.414,0 0,0" />
      </g>
      <g
         transform="matrix(0.35277777,0,0,-0.35277777,-261.49843,-24.957549)"
         id="g136334">
        <path
           id="path136336"
           style="fill:#c08f40;fill-opacity:1;fill-rule:nonzero;stroke:none"
           d="M 0,0 C 0.414,0 0.749,0.336 0.749,0.75 0.749,1.163 0.414,1.498 0,1.498 -0.414,1.498 -0.749,1.163 -0.749,0.75 -0.749,0.336 -0.414,0 0,0" />
      </g>
      <g
         transform="matrix(0.35277777,0,0,-0.35277777,-261.49843,-23.268096)"
         id="g136338">
        <path
           id="path136340"
           style="fill:#c08f40;fill-opacity:1;fill-rule:nonzero;stroke:none"
           d="M 0,0 C 0.414,0 0.749,0.334 0.749,0.748 0.749,1.161 0.414,1.497 0,1.497 -0.414,1.497 -0.749,1.161 -0.749,0.748 -0.749,0.334 -0.414,0 0,0" />
      </g>
      <g
         transform="matrix(0.35277777,0,0,-0.35277777,-262.66965,-23.202479)"
         id="g136342">
        <path
           id="path136344"
           style="fill:#c08f40;fill-opacity:1;fill-rule:nonzero;stroke:none"
           d="M 0,0 C 0.413,0 0.748,0.335 0.748,0.748 0.748,1.162 0.413,1.497 0,1.497 -0.414,1.497 -0.749,1.162 -0.749,0.748 -0.749,0.335 -0.414,0 0,0" />
      </g>
      <g
         transform="matrix(0.35277777,0,0,-0.35277777,-263.88391,-23.055018)"
         id="g136346">
        <path
           id="path136348"
           style="fill:#c08f40;fill-opacity:1;fill-rule:nonzero;stroke:none"
           d="M 0,0 C 0.413,0 0.748,0.335 0.748,0.748 0.748,1.162 0.413,1.497 0,1.497 -0.414,1.497 -0.749,1.162 -0.749,0.748 -0.749,0.335 -0.414,0 0,0" />
      </g>
      <g
         transform="matrix(0.35277777,0,0,-0.35277777,-260.25207,-23.171082)"
         id="g136350">
        <path
           id="path136352"
           style="fill:#c08f40;fill-opacity:1;fill-rule:nonzero;stroke:none"
           d="m 0,0 c -0.458,0 -0.829,0.371 -0.829,0.829 0,0.459 0.371,0.83 0.829,0.83 0.459,0 0.831,-0.371 0.831,-0.83 C 0.831,0.371 0.459,0 0,0" />
      </g>
      <g
         transform="matrix(0.35277777,0,0,-0.35277777,-259.00747,-22.993282)"
         id="g136354">
        <path
           id="path136356"
           style="fill:#c08f40;fill-opacity:1;fill-rule:nonzero;stroke:none"
           d="m 0,0 c -0.458,0 -0.828,0.372 -0.828,0.83 0,0.458 0.37,0.829 0.828,0.829 0.459,0 0.831,-0.371 0.831,-0.829 C 0.831,0.372 0.459,0 0,0" />
      </g>
      <g
         transform="matrix(0.35277777,0,0,-0.35277777,-263.5075,-19.827455)"
         id="g136358">
        <path
           id="path136360"
           style="fill:none;stroke:#c08f40;stroke-width:0.939;stroke-linecap:butt;stroke-linejoin:miter;stroke-miterlimit:4;stroke-dasharray:none;stroke-opacity:1"
           d="M 0,0 C 1.265,-0.287 4.42,-0.453 5.638,-0.453" />
      </g>
      <g
         transform="matrix(0.35277777,0,0,-0.35277777,-261.42258,-22.749513)"
         id="g136362">
        <path
           id="path136364"
           style="fill:none;stroke:#c08f40;stroke-width:0.941;stroke-linecap:butt;stroke-linejoin:miter;stroke-miterlimit:4;stroke-dasharray:none;stroke-opacity:1"
           d="M 0,0 C -6.234,0 -11.287,-1.308 -11.287,-2.921" />
      </g>
      <g
         transform="matrix(0.35277777,0,0,-0.35277777,-261.42258,-24.324313)"
         id="g136366">
        <path
           id="path136368"
           style="fill:none;stroke:#c08f40;stroke-width:0.941;stroke-linecap:butt;stroke-linejoin:miter;stroke-miterlimit:4;stroke-dasharray:none;stroke-opacity:1"
           d="M 0,0 C -6.787,0 -12.288,-1.424 -12.288,-3.18" />
      </g>
      <g
         transform="matrix(0.35277777,0,0,-0.35277777,-266.88464,-26.812101)"
         id="g136370">
        <path
           id="path136372"
           style="fill:none;stroke:#c08f40;stroke-width:0.941;stroke-linecap:butt;stroke-linejoin:miter;stroke-miterlimit:4;stroke-dasharray:none;stroke-opacity:1"
           d="M 0,0 C -0.128,0.255 7.71,8.207 12.899,13.318 V -7.113" />
      </g>
      <g
         transform="matrix(0.35277777,0,0,-0.35277777,-263.05101,-20.385549)"
         id="g136374">
        <path
           id="path136376"
           style="fill:none;stroke:#c08f40;stroke-width:0.518;stroke-linecap:butt;stroke-linejoin:miter;stroke-miterlimit:4;stroke-dasharray:none;stroke-opacity:1"
           d="M 0,0 C 1.208,-0.231 3.124,-0.338 4.342,-0.338" />
      </g>
      <g
         transform="matrix(0.35277777,0,0,-0.35277777,-262.84569,-20.78066)"
         id="g136378">
        <path
           id="path136380"
           style="fill:none;stroke:#c08f40;stroke-width:0.518;stroke-linecap:butt;stroke-linejoin:miter;stroke-miterlimit:4;stroke-dasharray:none;stroke-opacity:1"
           d="M 0,0 C 1.09,-0.097 2.542,-0.234 3.76,-0.234" />
      </g>
      <g
         transform="matrix(0.35277777,0,0,-0.35277777,-262.84569,-21.184238)"
         id="g136382">
        <path
           id="path136384"
           style="fill:none;stroke:#c08f40;stroke-width:0.518;stroke-linecap:butt;stroke-linejoin:miter;stroke-miterlimit:4;stroke-dasharray:none;stroke-opacity:1"
           d="M 0,0 C 1.09,-0.098 2.542,-0.234 3.76,-0.234" />
      </g>
      <g
         transform="matrix(0.35277777,0,0,-0.35277777,-266.3837,-26.359135)"
         id="g136386">
        <path
           id="path136388"
           style="fill:#c08f40;fill-opacity:1;fill-rule:nonzero;stroke:none"
           d="M 0,0 C 0.184,-0.368 3.216,-5.203 4.869,-14.697 L 4.367,-15.04 C 2.714,-5.546 0.184,-0.368 0,0" />
      </g>
      <g
         transform="matrix(0.35277777,0,0,-0.35277777,-266.3837,-26.359135)"
         id="g136390">
        <path
           id="path136392"
           style="fill:none;stroke:#c08f40;stroke-width:0.086;stroke-linecap:butt;stroke-linejoin:miter;stroke-miterlimit:4;stroke-dasharray:none;stroke-opacity:1"
           d="M 0,0 C 0.184,-0.368 3.216,-5.203 4.869,-14.697 L 4.367,-15.04 C 2.714,-5.546 0.184,-0.368 0,0" />
      </g>
      <g
         transform="matrix(0.35277777,0,0,-0.35277777,-266.81056,-28.074693)"
         id="g136394">
        <path
           id="path136396"
           style="fill:#c08f40;fill-opacity:1;fill-rule:nonzero;stroke:none"
           d="m 0,0 c 0.322,-0.645 5.945,-9.621 7.565,-18.927 l -0.653,-0.17 C 5.292,-9.791 0.322,-0.645 0,0" />
      </g>
      <g
         transform="matrix(0.35277777,0,0,-0.35277777,-266.81056,-28.074693)"
         id="g136398">
        <path
           id="path136400"
           style="fill:none;stroke:#c08f40;stroke-width:0.091;stroke-linecap:butt;stroke-linejoin:miter;stroke-miterlimit:4;stroke-dasharray:none;stroke-opacity:1"
           d="m 0,0 c 0.322,-0.645 5.945,-9.621 7.565,-18.927 l -0.653,-0.17 C 5.292,-9.791 0.322,-0.645 0,0" />
      </g>
      <g
         transform="matrix(0.35277777,0,0,-0.35277777,-262.56982,-21.531724)"
         id="g136402">
        <path
           id="path136404"
           style="fill:none;stroke:#c08f40;stroke-width:0.941;stroke-linecap:butt;stroke-linejoin:miter;stroke-miterlimit:4;stroke-dasharray:none;stroke-opacity:1"
           d="m 0,0 c -2.156,-4.226 -3.623,-7.764 -7.902,-5.723 -6.282,2.997 -7.195,4.861 -13.457,1.864 -4.685,-2.241 -4.947,-3.957 -10.927,0 l 4.594,0.668 0.742,3.68 c 0.415,-0.805 1.864,-4.348 5.591,-4.348 3.726,0 8.891,-6.726 12.422,-2.277 1.835,2.312 2.64,3.836 3.33,5.101" />
      </g>
      <g
         transform="matrix(0.35277777,0,0,-0.35277777,-261.42258,-21.624504)"
         id="g136406">
        <path
           id="path136408"
           style="fill:none;stroke:#c08f40;stroke-width:0.941;stroke-linecap:butt;stroke-linejoin:miter;stroke-miterlimit:4;stroke-dasharray:none;stroke-opacity:1"
           d="m 0,0 c -5.9,0 -10.685,-1.237 -10.685,-2.765 0,-0.224 0.174,-0.463 0.464,-0.701" />
      </g>
      <g
         transform="matrix(0.35277777,0,0,-0.35277777,-257.84718,-20.649074)"
         id="g136410">
        <path
           id="path136412"
           style="fill:none;stroke:#c08f40;stroke-width:0.941;stroke-linecap:butt;stroke-linejoin:miter;stroke-miterlimit:4;stroke-dasharray:none;stroke-opacity:1"
           d="m 0,0 c 1.652,9.495 6.454,20.87 6.639,21.237 0.185,0.368 -16.044,16.477 -17.055,17.49" />
      </g>
      <g
         transform="matrix(0.35277777,0,0,-0.35277777,-261.61626,-22.749513)"
         id="g136414">
        <path
           id="path136416"
           style="fill:none;stroke:#c08f40;stroke-width:0.941;stroke-linecap:butt;stroke-linejoin:miter;stroke-miterlimit:4;stroke-dasharray:none;stroke-opacity:1"
           d="M 0,0 C 6.233,0 11.287,-1.308 11.287,-2.921" />
      </g>
      <g
         transform="matrix(0.35277777,0,0,-0.35277777,-261.61626,-24.324313)"
         id="g136418">
        <path
           id="path136420"
           style="fill:none;stroke:#c08f40;stroke-width:0.941;stroke-linecap:butt;stroke-linejoin:miter;stroke-miterlimit:4;stroke-dasharray:none;stroke-opacity:1"
           d="M 0,0 C 6.787,0 12.289,-1.424 12.289,-3.18" />
      </g>
      <g
         transform="matrix(0.35277777,0,0,-0.35277777,-256.1542,-26.812101)"
         id="g136422">
        <path
           id="path136424"
           style="fill:none;stroke:#c08f40;stroke-width:0.941;stroke-linecap:butt;stroke-linejoin:miter;stroke-miterlimit:4;stroke-dasharray:none;stroke-opacity:1"
           d="M 0,0 C 0.128,0.255 -7.71,8.207 -12.899,13.318 V -7.113" />
      </g>
      <g
         transform="matrix(0.35277777,0,0,-0.35277777,-256.6555,-26.359135)"
         id="g136426">
        <path
           id="path136428"
           style="fill:#c08f40;fill-opacity:1;fill-rule:nonzero;stroke:none"
           d="m 0,0 c -0.184,-0.368 -3.217,-5.203 -4.869,-14.697 l 0.502,-0.343 C -2.714,-5.546 -0.184,-0.368 0,0" />
      </g>
      <g
         transform="matrix(0.35277777,0,0,-0.35277777,-256.6555,-26.359135)"
         id="g136430">
        <path
           id="path136432"
           style="fill:none;stroke:#c08f40;stroke-width:0.086;stroke-linecap:butt;stroke-linejoin:miter;stroke-miterlimit:4;stroke-dasharray:none;stroke-opacity:1"
           d="m 0,0 c -0.184,-0.368 -3.217,-5.203 -4.869,-14.697 l 0.502,-0.343 C -2.714,-5.546 -0.184,-0.368 0,0" />
      </g>
      <g
         transform="matrix(0.35277777,0,0,-0.35277777,-256.22864,-28.074693)"
         id="g136434">
        <path
           id="path136436"
           style="fill:#c08f40;fill-opacity:1;fill-rule:nonzero;stroke:none"
           d="m 0,0 c -0.321,-0.645 -5.945,-9.621 -7.566,-18.927 l 0.653,-0.17 C -5.292,-9.791 -0.321,-0.645 0,0" />
      </g>
      <g
         transform="matrix(0.35277777,0,0,-0.35277777,-256.22864,-28.074693)"
         id="g136438">
        <path
           id="path136440"
           style="fill:none;stroke:#c08f40;stroke-width:0.091;stroke-linecap:butt;stroke-linejoin:miter;stroke-miterlimit:4;stroke-dasharray:none;stroke-opacity:1"
           d="m 0,0 c -0.321,-0.645 -5.945,-9.621 -7.566,-18.927 l 0.653,-0.17 C -5.292,-9.791 -0.321,-0.645 0,0" />
      </g>
      <g
         transform="matrix(0.35277777,0,0,-0.35277777,-261.61626,-21.624504)"
         id="g136442">
        <path
           id="path136444"
           style="fill:none;stroke:#c08f40;stroke-width:0.941;stroke-linecap:butt;stroke-linejoin:miter;stroke-miterlimit:4;stroke-dasharray:none;stroke-opacity:1"
           d="m 0,0 c 5.901,0 10.684,-1.237 10.684,-2.765 0,-0.224 -0.173,-0.463 -0.463,-0.701" />
      </g>
      <g
         transform="matrix(0.35277777,0,0,-0.35277777,-259.53099,-19.827455)"
         id="g136446">
        <path
           id="path136448"
           style="fill:none;stroke:#c08f40;stroke-width:0.939;stroke-linecap:butt;stroke-linejoin:miter;stroke-miterlimit:4;stroke-dasharray:none;stroke-opacity:1"
           d="M 0,0 C -1.265,-0.287 -4.421,-0.453 -5.639,-0.453" />
      </g>
      <g
         transform="matrix(0.35277777,0,0,-0.35277777,-259.98748,-20.385549)"
         id="g136450">
        <path
           id="path136452"
           style="fill:none;stroke:#c08f40;stroke-width:0.518;stroke-linecap:butt;stroke-linejoin:miter;stroke-miterlimit:4;stroke-dasharray:none;stroke-opacity:1"
           d="M 0,0 C -1.208,-0.231 -3.124,-0.338 -4.342,-0.338" />
      </g>
      <g
         transform="matrix(0.35277777,0,0,-0.35277777,-260.19315,-20.78066)"
         id="g136454">
        <path
           id="path136456"
           style="fill:none;stroke:#c08f40;stroke-width:0.518;stroke-linecap:butt;stroke-linejoin:miter;stroke-miterlimit:4;stroke-dasharray:none;stroke-opacity:1"
           d="M 0,0 C -1.089,-0.097 -2.541,-0.234 -3.759,-0.234" />
      </g>
      <g
         transform="matrix(0.35277777,0,0,-0.35277777,-260.19315,-21.184238)"
         id="g136458">
        <path
           id="path136460"
           style="fill:none;stroke:#c08f40;stroke-width:0.518;stroke-linecap:butt;stroke-linejoin:miter;stroke-miterlimit:4;stroke-dasharray:none;stroke-opacity:1"
           d="M 0,0 C -1.089,-0.098 -2.541,-0.234 -3.759,-0.234" />
      </g>
      <g
         transform="matrix(0.35277777,0,0,-0.35277777,-260.46902,-21.531724)"
         id="g136462">
        <path
           id="path136464"
           style="fill:none;stroke:#c08f40;stroke-width:0.941;stroke-linecap:butt;stroke-linejoin:miter;stroke-miterlimit:4;stroke-dasharray:none;stroke-opacity:1"
           d="m 0,0 c 2.156,-4.226 3.623,-7.764 7.902,-5.723 6.282,2.997 7.193,4.861 13.457,1.864 4.684,-2.241 4.946,-3.957 10.927,0 l -4.594,0.668 -0.743,3.68 c -0.415,-0.805 -1.863,-4.348 -5.59,-4.348 -3.726,0 -8.892,-6.726 -12.422,-2.277 -1.835,2.312 -2.641,3.836 -3.33,5.101" />
      </g>
      <g
         transform="matrix(0.35277777,0,0,-0.35277777,-266.15263,-14.183716)"
         id="g136466">
        <path
           id="path136468"
           style="fill:none;stroke:#c08f40;stroke-width:0.939;stroke-linecap:butt;stroke-linejoin:miter;stroke-miterlimit:5;stroke-dasharray:none;stroke-opacity:1"
           d="m 0,0 c -1.223,-2.591 -2.644,-5.574 -0.44,-6.373 2.631,-0.954 0.856,-5.159 0.856,-5.159 0,0 3.791,2.357 3.397,4.89 C 3.442,-4.252 2.294,-4.931 1.035,-3.34 0.089,-2.143 0,0 0,0 Z" />
      </g>
      <g
         transform="matrix(0.35277777,0,0,-0.35277777,-261.36896,-10.575857)"
         id="g136470">
        <path
           id="path136472"
           style="fill:none;stroke:#c08f40;stroke-width:0.939;stroke-linecap:butt;stroke-linejoin:miter;stroke-miterlimit:4;stroke-dasharray:none;stroke-opacity:1"
           d="M 0,0 C 0.78,0 1.414,0.632 1.414,1.412 1.414,2.192 0.78,2.823 0,2.823 -0.778,2.823 -1.411,2.192 -1.411,1.412 -1.411,0.632 -0.778,0 0,0 Z" />
      </g>
      <g
         transform="matrix(0.35277777,0,0,-0.35277777,-260.94704,-6.0027992)"
         id="g136474">
        <path
           id="path136476"
           style="fill:none;stroke:#c08f40;stroke-width:0.939;stroke-linecap:butt;stroke-linejoin:miter;stroke-miterlimit:4;stroke-dasharray:none;stroke-opacity:1"
           d="M 0,0 C 1.182,-1.109 4.141,-3.255 4.141,-3.255 H -6.043 c 0,0 2.47,2.146 3.652,3.255" />
      </g>
      <g
         transform="matrix(0.35277777,0,0,-0.35277777,-254.88208,-8.4870603)"
         id="g136478">
        <path
           id="path136480"
           style="fill:none;stroke:#c08f40;stroke-width:0.939;stroke-linecap:butt;stroke-linejoin:miter;stroke-miterlimit:4;stroke-dasharray:none;stroke-opacity:1"
           d="M 0,0 C -0.293,2.008 -1.311,1.46 -5.866,1.56 -6.295,1.568 -7.12,1.565 -18.388,1.565 -23.538,1.54 -31.97,1.551 -31.97,1.551 h -5.447 c 0,0 3.581,-0.994 4.954,-1.857 3.18,-1.996 6.608,-6.663 14.075,-6.663 7.1,0 12.304,6.421 15.278,8.182" />
      </g>
      <g
         transform="matrix(0.35277777,0,0,-0.35277777,-257.3607,-9.0934852)"
         id="g136482">
        <path
           id="path136484"
           style="fill:none;stroke:#c08f40;stroke-width:0.939;stroke-linecap:butt;stroke-linejoin:miter;stroke-miterlimit:4;stroke-dasharray:none;stroke-opacity:1"
           d="m 0,0 c -1.636,1.72 -6.899,3.503 -11.362,3.503 -4.665,0 -10.064,-1.848 -11.561,-3.694" />
      </g>
      <g
         transform="matrix(0.35277777,0,0,-0.35277777,-255.44617,-7.9074464)"
         id="g136486">
        <path
           id="path136488"
           style="fill:none;stroke:#c08f40;stroke-width:0.939;stroke-linecap:butt;stroke-linejoin:miter;stroke-miterlimit:4;stroke-dasharray:none;stroke-opacity:1"
           d="M 0,0 C 0.882,0 1.599,0.716 1.599,1.598 1.599,2.48 0.882,3.195 0,3.195 -0.884,3.195 -1.598,2.48 -1.598,1.598 -1.598,0.716 -0.884,0 0,0 Z" />
      </g>
      <g
         transform="matrix(0.35277777,0,0,-0.35277777,-261.36896,-9.5647964)"
         id="g136490">
        <path
           id="path136492"
           style="fill:#ffffff;fill-opacity:1;fill-rule:nonzero;stroke:none"
           d="M 0,0 C 2.707,0 4.295,-0.655 6.218,-1.554 H 7.139 C 5.217,-0.655 2.707,0 0,0 -0.74,0 -0.976,-0.047 -1.675,-0.133" />
      </g>
      <g
         transform="matrix(0.35277777,0,0,-0.35277777,-261.36896,-9.5647964)"
         id="g136494">
        <path
           id="path136496"
           style="fill:none;stroke:#c08f40;stroke-width:0.313;stroke-linecap:butt;stroke-linejoin:miter;stroke-miterlimit:4;stroke-dasharray:none;stroke-opacity:1"
           d="M 0,0 C 2.707,0 4.295,-0.655 6.218,-1.554 H 7.139 C 5.217,-0.655 2.707,0 0,0 -0.74,0 -0.976,-0.047 -1.675,-0.133" />
      </g>
      <g
         transform="matrix(0.35277777,0,0,-0.35277777,-261.36896,-9.8837075)"
         id="g136498">
        <path
           id="path136500"
           style="fill:#ffffff;fill-opacity:1;fill-rule:nonzero;stroke:none"
           d="m 0,0 c 3.337,0 6.162,-1.079 8.167,-2.301 l 0.658,0.084 C 6.82,-0.996 3.337,0 0,0" />
      </g>
      <g
         transform="matrix(0.35277777,0,0,-0.35277777,-261.36896,-9.8837075)"
         id="g136502">
        <path
           id="path136504"
           style="fill:none;stroke:#c08f40;stroke-width:0.313;stroke-linecap:butt;stroke-linejoin:miter;stroke-miterlimit:4;stroke-dasharray:none;stroke-opacity:1"
           d="m 0,0 c 3.337,0 6.162,-1.079 8.167,-2.301 l 0.658,0.084 C 6.82,-0.996 3.337,0 0,0" />
      </g>
      <g
         transform="matrix(0.35277777,0,0,-0.35277777,-261.36896,-9.8837075)"
         id="g136506">
        <path
           id="path136508"
           style="fill:none;stroke:#c08f40;stroke-width:0.313;stroke-linecap:butt;stroke-linejoin:miter;stroke-miterlimit:4;stroke-dasharray:none;stroke-opacity:1"
           d="M 0,0 C -1.899,0 -3.203,-0.308 -4.761,-0.796" />
      </g>
      <g
         transform="matrix(0.35277777,0,0,-0.35277777,-254.32611,-2.85108e-4)"
         id="g136674">
        <path
           id="path136676"
           style="fill:#c08f40;fill-opacity:1;fill-rule:nonzero;stroke:none"
           d="m 0,0 c 1.115,4.183 3.586,5.792 8.052,7.456 3.058,1.137 3.439,1.376 3.92,1.679 0.079,0.05 0.162,0.103 0.258,0.161 0.301,0.178 0.475,0.477 0.467,0.797 -0.006,0.248 -0.12,0.455 -0.306,0.555 -0.295,0.158 -0.823,0.216 -1.352,-0.117 C 11.041,10.533 10.124,9.957 9.89,9.409 L 9.629,9.671 c 0.052,0.363 0.568,1.211 0.966,1.497 1.095,0.784 1.887,0.496 2.241,0.306 0.486,-0.261 0.784,-0.769 0.799,-1.358 C 13.652,9.455 13.307,8.845 12.713,8.49 12.626,8.437 12.547,8.388 12.471,8.34 11.923,7.996 11.529,7.748 8.38,6.575 3.569,4.783 1.821,3.191 0.908,-0.242 L 0,0" />
      </g>
      <g
         transform="matrix(0.35277777,0,0,-0.35277777,-253.94546,3.0015009)"
         id="g136678">
        <path
           id="path136680"
           style="fill:none;stroke:#c08f40;stroke-width:0.939;stroke-linecap:butt;stroke-linejoin:miter;stroke-miterlimit:4;stroke-dasharray:none;stroke-opacity:1"
           d="m 0,0 c 5.51,-7.01 13.78,-2.761 11.394,1.752 0,0 -1.566,1.745 -0.999,3.625 0.502,1.664 1.497,2.156 0.873,2.886 C 9.826,9.945 3.05,9.758 -1.627,7.888 -9.164,4.873 -19.092,4.006 -21.47,4.131 c -2.379,0.125 -12.305,0.742 -19.843,3.757 -4.678,1.87 -11.453,2.057 -12.895,0.375 -0.625,-0.73 0.37,-1.222 0.873,-2.886 0.567,-1.88 -0.998,-3.625 -0.998,-3.625 C -56.72,-2.761 -48.449,-7.01 -42.941,0" />
      </g>
      <g
         transform="matrix(0.35277777,0,0,-0.35277777,-253.21591,2.7810149)"
         id="g136682">
        <path
           id="path136684"
           style="fill:none;stroke:#c08f40;stroke-width:0.939;stroke-linecap:butt;stroke-linejoin:miter;stroke-miterlimit:4;stroke-dasharray:none;stroke-opacity:1"
           d="m 0,0 c 1.564,-2.878 7.073,-3.253 7.699,-1.126 1.062,3.613 -6.886,1.878 -11.268,0.376 -4.383,-1.502 -14.585,-3.004 -19.968,-3.004 -5.384,0 -15.587,1.502 -19.969,3.004 -4.381,1.502 -12.33,3.237 -11.267,-0.376 0.626,-2.127 6.134,-1.752 7.699,1.126" />
      </g>
      <g
         transform="matrix(0.35277777,0,0,-0.35277777,-252.34561,2.5167839)"
         id="g136686">
        <path
           id="path136688"
           style="fill:#c08f40;fill-opacity:1;fill-rule:nonzero;stroke:none"
           d="M 0,0 C 1.905,-1.93 4.798,-0.994 5.398,-0.524 L 5.504,-0.835 C 4.904,-1.303 1.905,-1.93 0,0" />
      </g>
      <g
         transform="matrix(0.35277777,0,0,-0.35277777,-252.34561,2.5167839)"
         id="g136690">
        <path
           id="path136692"
           style="fill:none;stroke:#c08f40;stroke-width:0.156;stroke-linecap:butt;stroke-linejoin:miter;stroke-miterlimit:4;stroke-dasharray:none;stroke-opacity:1"
           d="M 0,0 C 1.905,-1.93 4.798,-0.994 5.398,-0.524 L 5.504,-0.835 C 4.904,-1.303 1.905,-1.93 0,0" />
      </g>
      <g
         transform="matrix(0.35277777,0,0,-0.35277777,-252.58515,2.7566729)"
         id="g136694">
        <path
           id="path136696"
           style="fill:#c08f40;fill-opacity:1;fill-rule:nonzero;stroke:none"
           d="m 0,0 c 1.904,-1.93 4.852,-1.592 5.45,-1.122 l 0.053,0.288 C 4.902,-1.304 1.904,-1.93 0,0" />
      </g>
      <g
         transform="matrix(0.35277777,0,0,-0.35277777,-252.58515,2.7566729)"
         id="g136698">
        <path
           id="path136700"
           style="fill:none;stroke:#c08f40;stroke-width:0.156;stroke-linecap:butt;stroke-linejoin:miter;stroke-miterlimit:4;stroke-dasharray:none;stroke-opacity:1"
           d="m 0,0 c 1.904,-1.93 4.852,-1.592 5.45,-1.122 l 0.053,0.288 C 4.902,-1.304 1.904,-1.93 0,0" />
      </g>
      <g
         transform="matrix(0.35277777,0,0,-0.35277777,-270.69358,2.5167839)"
         id="g136702">
        <path
           id="path136704"
           style="fill:#c08f40;fill-opacity:1;fill-rule:nonzero;stroke:none"
           d="M 0,0 C -1.904,-1.93 -4.798,-0.994 -5.398,-0.524 L -5.503,-0.835 C -4.904,-1.303 -1.904,-1.93 0,0" />
      </g>
      <g
         transform="matrix(0.35277777,0,0,-0.35277777,-270.69358,2.5167839)"
         id="g136706">
        <path
           id="path136708"
           style="fill:none;stroke:#c08f40;stroke-width:0.156;stroke-linecap:butt;stroke-linejoin:miter;stroke-miterlimit:4;stroke-dasharray:none;stroke-opacity:1"
           d="M 0,0 C -1.904,-1.93 -4.798,-0.994 -5.398,-0.524 L -5.503,-0.835 C -4.904,-1.303 -1.904,-1.93 0,0" />
      </g>
      <g
         transform="matrix(0.35277777,0,0,-0.35277777,-270.45369,2.7566729)"
         id="g136710">
        <path
           id="path136712"
           style="fill:#c08f40;fill-opacity:1;fill-rule:nonzero;stroke:none"
           d="m 0,0 c -1.904,-1.93 -4.851,-1.592 -5.451,-1.122 l -0.053,0.288 C -4.903,-1.304 -1.904,-1.93 0,0" />
      </g>
      <g
         transform="matrix(0.35277777,0,0,-0.35277777,-270.45369,2.7566729)"
         id="g136714">
        <path
           id="path136716"
           style="fill:none;stroke:#c08f40;stroke-width:0.156;stroke-linecap:butt;stroke-linejoin:miter;stroke-miterlimit:4;stroke-dasharray:none;stroke-opacity:1"
           d="m 0,0 c -1.904,-1.93 -4.851,-1.592 -5.451,-1.122 l -0.053,0.288 C -4.903,-1.304 -1.904,-1.93 0,0" />
      </g>
      <g
         transform="matrix(0.35277777,0,0,-0.35277777,-270.435,1.7374979)"
         id="g136718">
        <path
           id="path136720"
           style="fill:#c08f40;fill-opacity:1;fill-rule:nonzero;stroke:none"
           d="M 0,0 0.575,2.766 1.153,2.646 0.674,0.339 1.54,0.16 1.444,-0.301 0,0" />
      </g>
      <g
         transform="matrix(0.35277777,0,0,-0.35277777,-268.52365,1.1973949)"
         id="g136722">
        <path
           id="path136724"
           style="fill:#c08f40;fill-opacity:1;fill-rule:nonzero;stroke:none"
           d="m 0,0 -0.567,-1.922 c -0.12,-0.405 -0.475,-0.766 -1.166,-0.562 -0.622,0.185 -0.827,0.595 -0.677,1.107 l 0.568,1.92 0.567,-0.167 -0.557,-1.884 c -0.098,-0.335 0.005,-0.508 0.212,-0.568 0.247,-0.074 0.409,0.058 0.497,0.358 L -0.566,0.165 0,0" />
      </g>
      <g
         transform="matrix(0.35277777,0,0,-0.35277777,-267.9338,1.8856649)"
         id="g136726">
        <path
           id="path136728"
           style="fill:#c08f40;fill-opacity:1;fill-rule:nonzero;stroke:none"
           d="m 0,0 -1.086,-1.243 0.59,-0.156 0.669,0.83 L 0.344,-1.621 0.99,-1.792 0.664,-0.228 1.702,0.94 1.108,1.097 0.489,0.303 0.336,1.303 -0.314,1.475 0,0" />
      </g>
      <g
         transform="matrix(0.35277777,0,0,-0.35277777,-266.30362,2.7824259)"
         id="g136730">
        <path
           id="path136732"
           style="fill:#c08f40;fill-opacity:1;fill-rule:nonzero;stroke:none"
           d="M 0,0 0.466,2.786 1.404,2.628 1.523,0.66 H 1.53 L 2.311,2.475 3.217,2.325 2.751,-0.461 2.183,-0.368 2.544,1.783 2.536,1.785 1.64,-0.275 1.084,-0.183 0.935,2.052 0.927,2.053 0.567,-0.095 0,0" />
      </g>
      <g
         transform="matrix(0.35277777,0,0,-0.35277777,-264.19295,3.1002779)"
         id="g136734">
        <path
           id="path136736"
           style="fill:#c08f40;fill-opacity:1;fill-rule:nonzero;stroke:none"
           d="m 0,0 0.056,0.43 -0.973,0.128 0.106,0.818 0.869,-0.114 0.057,0.432 -0.869,0.113 0.09,0.69 L 0.279,2.373 0.334,2.805 -1.193,3.004 -1.56,0.204 0,0" />
      </g>
      <g
         transform="matrix(0.35277777,0,0,-0.35277777,-263.23092,2.3950759)"
         id="g136738">
        <path
           id="path136740"
           style="fill:#c08f40;fill-opacity:1;fill-rule:nonzero;stroke:none"
           d="M 0,0 H -0.008 L -0.392,-1.188 0.169,-1.242 Z M -1.349,-2.163 -0.303,0.575 0.472,0.5 0.967,-2.383 0.349,-2.324 0.252,-1.686 -0.55,-1.609 -0.77,-2.218 -1.349,-2.163" />
      </g>
      <g
         transform="matrix(0.35277777,0,0,-0.35277777,-261.62296,2.8018279)"
         id="g136742">
        <path
           id="path136744"
           style="fill:#c08f40;fill-opacity:1;fill-rule:nonzero;stroke:none"
           d="M 0,0 C -0.015,0.747 -0.028,1.459 0.946,1.477 1.548,1.49 1.797,1.161 1.786,0.555 L 1.206,0.544 C 1.2,0.919 1.13,1.058 0.954,1.057 0.622,1.049 0.584,0.734 0.599,0.011 c 0.013,-0.724 0.062,-1.035 0.395,-1.03 0.274,0.007 0.255,0.358 0.259,0.581 l 0.582,0.01 C 1.849,-1.181 1.552,-1.43 1.002,-1.441 0.028,-1.459 0.014,-0.739 0,0" />
      </g>
      <g
         transform="matrix(0.35277777,0,0,-0.35277777,-259.98113,2.6187369)"
         id="g136746">
        <path
           id="path136748"
           style="fill:#c08f40;fill-opacity:1;fill-rule:nonzero;stroke:none"
           d="m 0,0 -0.094,1.128 0.589,0.05 0.237,-2.814 -0.587,-0.05 -0.108,1.255 -0.674,-0.058 0.106,-1.255 -0.588,-0.05 -0.238,2.815 0.589,0.05 0.094,-1.127 L 0,0" />
      </g>
      <g
         transform="matrix(0.35277777,0,0,-0.35277777,-258.94996,2.5400669)"
         id="g136750">
        <path
           id="path136752"
           style="fill:#c08f40;fill-opacity:1;fill-rule:nonzero;stroke:none"
           d="M 0,0 0.26,0.031 C 0.493,0.061 0.529,0.302 0.507,0.48 0.475,0.748 0.349,0.835 0.163,0.812 L -0.097,0.778 Z M 0.197,-1.593 -0.39,-1.665 -0.737,1.138 0.346,1.273 C 0.745,1.321 1.034,1.098 1.093,0.619 1.138,0.263 1.03,-0.022 0.657,-0.131 L 0.658,-0.14 c 0.132,0.001 0.515,0.017 0.579,-0.487 0.022,-0.179 0.1,-0.706 0.167,-0.814 L 0.83,-1.515 c -0.1,0.163 -0.107,0.355 -0.131,0.538 -0.041,0.333 -0.045,0.621 -0.495,0.565 l -0.151,-0.02 0.144,-1.161" />
      </g>
      <g
         transform="matrix(0.35277777,0,0,-0.35277777,-257.91244,2.9715149)"
         id="g136754">
        <path
           id="path136756"
           style="fill:#c08f40;fill-opacity:1;fill-rule:nonzero;stroke:none"
           d="M 0,0 -0.422,2.794 0.163,2.881 0.584,0.089 0,0" />
      </g>
      <g
         transform="matrix(0.35277777,0,0,-0.35277777,-256.58459,2.4737449)"
         id="g136758">
        <path
           id="path136760"
           style="fill:#c08f40;fill-opacity:1;fill-rule:nonzero;stroke:none"
           d="m 0,0 c -0.157,0.875 -1.32,0.618 -1.413,1.146 -0.036,0.192 0.058,0.316 0.246,0.351 0.234,0.042 0.308,-0.164 0.345,-0.372 l 0.566,0.101 C -0.322,1.814 -0.648,2.017 -1.214,1.917 -1.923,1.79 -2.069,1.406 -1.99,0.97 c 0.148,-0.827 1.324,-0.648 1.413,-1.15 0.034,-0.188 -0.04,-0.332 -0.236,-0.367 -0.32,-0.058 -0.371,0.164 -0.417,0.429 l -0.583,-0.104 c 0.056,-0.486 0.267,-0.885 0.987,-0.757 C -0.385,-0.9 0.128,-0.719 0,0" />
      </g>
      <g
         transform="matrix(0.35277777,0,0,-0.35277777,-255.60492,1.5240669)"
         id="g136762">
        <path
           id="path136764"
           style="fill:#c08f40;fill-opacity:1;fill-rule:nonzero;stroke:none"
           d="M 0,0 0.104,-0.459 -0.537,-0.603 -0.021,-2.9 -0.597,-3.03 -1.113,-0.732 -1.755,-0.877 -1.857,-0.419 0,0" />
      </g>
      <g
         transform="matrix(0.35277777,0,0,-0.35277777,-254.52789,1.2019809)"
         id="g136766">
        <path
           id="path136768"
           style="fill:#c08f40;fill-opacity:1;fill-rule:nonzero;stroke:none"
           d="m 0,0 0.633,-1.9 c 0.133,-0.401 0.048,-0.9 -0.635,-1.127 -0.616,-0.205 -1.019,0.015 -1.188,0.519 l -0.632,1.902 0.56,0.187 0.62,-1.864 c 0.111,-0.33 0.294,-0.413 0.5,-0.346 0.244,0.081 0.301,0.282 0.202,0.579 L -0.56,-0.186 0,0" />
      </g>
      <g
         transform="matrix(0.35277777,0,0,-0.35277777,-253.14783,1.5695759)"
         id="g136770">
        <path
           id="path136772"
           style="fill:#c08f40;fill-opacity:1;fill-rule:nonzero;stroke:none"
           d="m 0,0 c -0.219,0.861 -1.361,0.523 -1.493,1.041 -0.048,0.19 0.035,0.32 0.221,0.367 0.232,0.059 0.319,-0.141 0.371,-0.345 l 0.557,0.142 C -0.451,1.787 -0.793,1.966 -1.35,1.824 -2.047,1.647 -2.166,1.253 -2.056,0.825 c 0.209,-0.815 1.369,-0.552 1.494,-1.044 0.047,-0.186 -0.016,-0.335 -0.209,-0.385 -0.314,-0.08 -0.381,0.137 -0.449,0.399 l -0.573,-0.147 c 0.092,-0.481 0.33,-0.864 1.039,-0.684 C -0.317,-0.924 0.181,-0.708 0,0" />
      </g>
      <g
         transform="matrix(0.35277777,0,0,-0.35277777,-270.435,1.7374979)"
         id="g136774">
        <path
           id="path136776"
           style="fill:#c08f40;fill-opacity:1;fill-rule:nonzero;stroke:none"
           d="M 0,0 0.575,2.766 1.153,2.646 0.674,0.339 1.54,0.16 1.444,-0.301 0,0" />
      </g>
      <g
         transform="matrix(0.35277777,0,0,-0.35277777,-268.52365,1.1973949)"
         id="g136778">
        <path
           id="path136780"
           style="fill:#c08f40;fill-opacity:1;fill-rule:nonzero;stroke:none"
           d="m 0,0 -0.567,-1.922 c -0.12,-0.405 -0.475,-0.766 -1.166,-0.562 -0.622,0.185 -0.827,0.595 -0.677,1.107 l 0.568,1.92 0.567,-0.167 -0.557,-1.884 c -0.098,-0.335 0.005,-0.508 0.212,-0.568 0.247,-0.074 0.409,0.058 0.497,0.358 L -0.566,0.165 0,0" />
      </g>
      <g
         transform="matrix(0.35277777,0,0,-0.35277777,-267.9338,1.8856649)"
         id="g136782">
        <path
           id="path136784"
           style="fill:#c08f40;fill-opacity:1;fill-rule:nonzero;stroke:none"
           d="m 0,0 -1.086,-1.243 0.59,-0.156 0.669,0.83 L 0.344,-1.621 0.99,-1.792 0.664,-0.228 1.702,0.94 1.108,1.097 0.489,0.303 0.336,1.303 -0.314,1.475 0,0" />
      </g>
      <g
         transform="matrix(0.35277777,0,0,-0.35277777,-266.30362,2.7824259)"
         id="g136786">
        <path
           id="path136788"
           style="fill:#c08f40;fill-opacity:1;fill-rule:nonzero;stroke:none"
           d="M 0,0 0.466,2.786 1.404,2.628 1.523,0.66 H 1.53 L 2.311,2.475 3.217,2.325 2.751,-0.461 2.183,-0.368 2.544,1.783 2.536,1.785 1.64,-0.275 1.084,-0.183 0.935,2.052 0.927,2.053 0.567,-0.095 0,0" />
      </g>
      <g
         transform="matrix(0.35277777,0,0,-0.35277777,-264.19295,3.1002779)"
         id="g136790">
        <path
           id="path136792"
           style="fill:#c08f40;fill-opacity:1;fill-rule:nonzero;stroke:none"
           d="m 0,0 0.056,0.43 -0.973,0.128 0.106,0.818 0.869,-0.114 0.057,0.432 -0.869,0.113 0.09,0.69 L 0.279,2.373 0.334,2.805 -1.193,3.004 -1.56,0.204 0,0" />
      </g>
      <g
         transform="matrix(0.35277777,0,0,-0.35277777,-263.23092,2.3950759)"
         id="g136794">
        <path
           id="path136796"
           style="fill:#c08f40;fill-opacity:1;fill-rule:nonzero;stroke:none"
           d="M 0,0 H -0.008 L -0.392,-1.188 0.169,-1.242 Z M -1.349,-2.163 -0.303,0.575 0.472,0.5 0.967,-2.383 0.349,-2.324 0.252,-1.686 -0.55,-1.609 -0.77,-2.218 -1.349,-2.163" />
      </g>
      <g
         transform="matrix(0.35277777,0,0,-0.35277777,-261.62296,2.8018279)"
         id="g136798">
        <path
           id="path136800"
           style="fill:#c08f40;fill-opacity:1;fill-rule:nonzero;stroke:none"
           d="M 0,0 C -0.015,0.747 -0.028,1.459 0.946,1.477 1.548,1.49 1.797,1.161 1.786,0.555 L 1.206,0.544 C 1.2,0.919 1.13,1.058 0.954,1.057 0.622,1.049 0.584,0.734 0.599,0.011 c 0.013,-0.724 0.062,-1.035 0.395,-1.03 0.274,0.007 0.255,0.358 0.259,0.581 l 0.582,0.01 C 1.849,-1.181 1.552,-1.43 1.002,-1.441 0.028,-1.459 0.014,-0.739 0,0" />
      </g>
      <g
         transform="matrix(0.35277777,0,0,-0.35277777,-259.98113,2.6187369)"
         id="g136802">
        <path
           id="path136804"
           style="fill:#c08f40;fill-opacity:1;fill-rule:nonzero;stroke:none"
           d="m 0,0 -0.094,1.128 0.589,0.05 0.237,-2.814 -0.587,-0.05 -0.108,1.255 -0.674,-0.058 0.106,-1.255 -0.588,-0.05 -0.238,2.815 0.589,0.05 0.094,-1.127 L 0,0" />
      </g>
      <g
         transform="matrix(0.35277777,0,0,-0.35277777,-258.94996,2.5400669)"
         id="g136806">
        <path
           id="path136808"
           style="fill:#c08f40;fill-opacity:1;fill-rule:nonzero;stroke:none"
           d="M 0,0 0.26,0.031 C 0.493,0.061 0.529,0.302 0.507,0.48 0.475,0.748 0.349,0.835 0.163,0.812 L -0.097,0.778 Z M 0.197,-1.593 -0.39,-1.665 -0.737,1.138 0.346,1.273 C 0.745,1.321 1.034,1.098 1.093,0.619 1.138,0.263 1.03,-0.022 0.657,-0.131 L 0.658,-0.14 c 0.132,0.001 0.515,0.017 0.579,-0.487 0.022,-0.179 0.1,-0.706 0.167,-0.814 L 0.83,-1.515 c -0.1,0.163 -0.107,0.355 -0.131,0.538 -0.041,0.333 -0.045,0.621 -0.495,0.565 l -0.151,-0.02 0.144,-1.161" />
      </g>
      <g
         transform="matrix(0.35277777,0,0,-0.35277777,-257.91244,2.9715149)"
         id="g136810">
        <path
           id="path136812"
           style="fill:#c08f40;fill-opacity:1;fill-rule:nonzero;stroke:none"
           d="M 0,0 -0.422,2.794 0.163,2.881 0.584,0.089 0,0" />
      </g>
      <g
         transform="matrix(0.35277777,0,0,-0.35277777,-256.58459,2.4737449)"
         id="g136814">
        <path
           id="path136816"
           style="fill:#c08f40;fill-opacity:1;fill-rule:nonzero;stroke:none"
           d="m 0,0 c -0.157,0.875 -1.32,0.618 -1.413,1.146 -0.036,0.192 0.058,0.316 0.246,0.351 0.234,0.042 0.308,-0.164 0.345,-0.372 l 0.566,0.101 C -0.322,1.814 -0.648,2.017 -1.214,1.917 -1.923,1.79 -2.069,1.406 -1.99,0.97 c 0.148,-0.827 1.324,-0.648 1.413,-1.15 0.034,-0.188 -0.04,-0.332 -0.236,-0.367 -0.32,-0.058 -0.371,0.164 -0.417,0.429 l -0.583,-0.104 c 0.056,-0.486 0.267,-0.885 0.987,-0.757 C -0.385,-0.9 0.128,-0.719 0,0" />
      </g>
      <g
         transform="matrix(0.35277777,0,0,-0.35277777,-255.60492,1.5240669)"
         id="g136818">
        <path
           id="path136820"
           style="fill:#c08f40;fill-opacity:1;fill-rule:nonzero;stroke:none"
           d="M 0,0 0.104,-0.459 -0.537,-0.603 -0.021,-2.9 -0.597,-3.03 -1.113,-0.732 -1.755,-0.877 -1.857,-0.419 0,0" />
      </g>
      <g
         transform="matrix(0.35277777,0,0,-0.35277777,-254.52789,1.2019809)"
         id="g136822">
        <path
           id="path136824"
           style="fill:#c08f40;fill-opacity:1;fill-rule:nonzero;stroke:none"
           d="m 0,0 0.633,-1.9 c 0.133,-0.401 0.048,-0.9 -0.635,-1.127 -0.616,-0.205 -1.019,0.015 -1.188,0.519 l -0.632,1.902 0.56,0.187 0.62,-1.864 c 0.111,-0.33 0.294,-0.413 0.5,-0.346 0.244,0.081 0.301,0.282 0.202,0.579 L -0.56,-0.186 0,0" />
      </g>
      <g
         transform="matrix(0.35277777,0,0,-0.35277777,-253.14783,1.5695759)"
         id="g136826">
        <path
           id="path136828"
           style="fill:#c08f40;fill-opacity:1;fill-rule:nonzero;stroke:none"
           d="m 0,0 c -0.219,0.861 -1.361,0.523 -1.493,1.041 -0.048,0.19 0.035,0.32 0.221,0.367 0.232,0.059 0.319,-0.141 0.371,-0.345 l 0.557,0.142 C -0.451,1.787 -0.793,1.966 -1.35,1.824 -2.047,1.647 -2.166,1.253 -2.056,0.825 c 0.209,-0.815 1.369,-0.552 1.494,-1.044 0.047,-0.186 -0.016,-0.335 -0.209,-0.385 -0.314,-0.08 -0.381,0.137 -0.449,0.399 l -0.573,-0.147 c 0.092,-0.481 0.33,-0.864 1.039,-0.684 C -0.317,-0.924 0.181,-0.708 0,0" />
      </g>
    </g>
  </g>
</svg>
