<?xml version="1.0" encoding="UTF-8" standalone="no"?>
<svg
   xmlns:dc="http://purl.org/dc/elements/1.1/"
   xmlns:cc="http://creativecommons.org/ns#"
   xmlns:rdf="http://www.w3.org/1999/02/22-rdf-syntax-ns#"
   xmlns:svg="http://www.w3.org/2000/svg"
   xmlns="http://www.w3.org/2000/svg"
   xmlns:sodipodi="http://sodipodi.sourceforge.net/DTD/sodipodi-0.dtd"
   xmlns:inkscape="http://www.inkscape.org/namespaces/inkscape"
   width="14.365455mm"
   height="21.506392mm"
   viewBox="0 0 14.365455 21.506391"
   version="1.1"
   id="svg882711"
   inkscape:version="1.0.1 (3bc2e813f5, 2020-09-07)"
   sodipodi:docname="ivanhoe-grammar-school.svg">
  <defs
     id="defs882705">
    <clipPath
       id="clipPath882729"
       clipPathUnits="userSpaceOnUse">
      <path
         inkscape:connector-curvature="0"
         id="path882727"
         d="M 24.095,279.76 H 502.789 V 541.417 H 24.095 Z" />
    </clipPath>
    <clipPath
       id="clipPath882753"
       clipPathUnits="userSpaceOnUse">
      <path
         inkscape:connector-curvature="0"
         id="path882751"
         d="M 24.095,165.827 H 502.789 V 541.418 H 24.095 Z" />
    </clipPath>
    <clipPath
       id="clipPath882933"
       clipPathUnits="userSpaceOnUse">
      <path
         inkscape:connector-curvature="0"
         id="path882931"
         d="M 24.095,165.827 H 502.789 V 274.793 H 24.095 Z" />
    </clipPath>
    <clipPath
       id="clipPath882997"
       clipPathUnits="userSpaceOnUse">
      <path
         inkscape:connector-curvature="0"
         id="path882995"
         d="m 76.695,247.982 h 22.023 v 0.809 H 76.695 Z" />
    </clipPath>
    <clipPath
       id="clipPath883021"
       clipPathUnits="userSpaceOnUse">
      <path
         inkscape:connector-curvature="0"
         id="path883019"
         d="M 24.095,165.827 H 502.789 V 541.418 H 24.095 Z" />
    </clipPath>
    <clipPath
       id="clipPath883113"
       clipPathUnits="userSpaceOnUse">
      <path
         inkscape:connector-curvature="0"
         id="path883111"
         d="m 71.199,250.887 h 26.058 v 0.958 H 71.199 Z" />
    </clipPath>
    <clipPath
       id="clipPath883137"
       clipPathUnits="userSpaceOnUse">
      <path
         inkscape:connector-curvature="0"
         id="path883135"
         d="M 24.095,165.827 H 502.789 V 541.418 H 24.095 Z" />
    </clipPath>
    <clipPath
       id="clipPath889950"
       clipPathUnits="userSpaceOnUse">
      <path
         style="clip-rule:evenodd"
         inkscape:connector-curvature="0"
         id="path889948"
         d="M 207.66,886.859 H 638.58 V 741.119 H 207.66 Z" />
    </clipPath>
    <clipPath
       id="clipPath889958"
       clipPathUnits="userSpaceOnUse">
      <path
         style="clip-rule:evenodd"
         inkscape:connector-curvature="0"
         id="path889956"
         d="m 204.12,893.639 h 438 v -151.56 h -438 z" />
    </clipPath>
    <clipPath
       id="clipPath889966"
       clipPathUnits="userSpaceOnUse">
      <path
         inkscape:connector-curvature="0"
         id="path889964"
         d="M 0.03,1191.03 H 842.01 V 0.03 H 0.03 Z" />
    </clipPath>
    <clipPath
       id="clipPath890064"
       clipPathUnits="userSpaceOnUse">
      <path
         style="clip-rule:evenodd"
         inkscape:connector-curvature="0"
         id="path890062"
         d="m 208.56,885.839 h 71.52 v -66.96 h -71.52 z" />
    </clipPath>
    <clipPath
       id="clipPath890072"
       clipPathUnits="userSpaceOnUse">
      <path
         style="clip-rule:evenodd"
         inkscape:connector-curvature="0"
         id="path890070"
         d="M 207.66,886.859 H 638.58 V 741.119 H 207.66 Z" />
    </clipPath>
    <clipPath
       id="clipPath890080"
       clipPathUnits="userSpaceOnUse">
      <path
         style="clip-rule:evenodd"
         inkscape:connector-curvature="0"
         id="path890078"
         d="m 204.12,893.639 h 438 v -151.56 h -438 z" />
    </clipPath>
    <clipPath
       id="clipPath890088"
       clipPathUnits="userSpaceOnUse">
      <path
         inkscape:connector-curvature="0"
         id="path890086"
         d="M 0.03,1191.03 H 842.01 V 0.03 H 0.03 Z" />
    </clipPath>
    <clipPath
       id="clipPath890100"
       clipPathUnits="userSpaceOnUse">
      <path
         style="clip-rule:evenodd"
         inkscape:connector-curvature="0"
         id="path890098"
         d="m 201.3,886.739 h 83.28 v -70.68 H 201.3 Z" />
    </clipPath>
    <clipPath
       id="clipPath890108"
       clipPathUnits="userSpaceOnUse">
      <path
         style="clip-rule:evenodd"
         inkscape:connector-curvature="0"
         id="path890106"
         d="m 208.56,885.839 h 71.52 v -66.96 h -71.52 z" />
    </clipPath>
    <clipPath
       id="clipPath890116"
       clipPathUnits="userSpaceOnUse">
      <path
         style="clip-rule:evenodd"
         inkscape:connector-curvature="0"
         id="path890114"
         d="M 207.66,886.859 H 638.58 V 741.119 H 207.66 Z" />
    </clipPath>
    <clipPath
       id="clipPath890124"
       clipPathUnits="userSpaceOnUse">
      <path
         style="clip-rule:evenodd"
         inkscape:connector-curvature="0"
         id="path890122"
         d="m 204.12,893.639 h 438 v -151.56 h -438 z" />
    </clipPath>
    <clipPath
       id="clipPath890132"
       clipPathUnits="userSpaceOnUse">
      <path
         inkscape:connector-curvature="0"
         id="path890130"
         d="M 0.03,1191.03 H 842.01 V 0.03 H 0.03 Z" />
    </clipPath>
    <clipPath
       id="clipPath890144"
       clipPathUnits="userSpaceOnUse">
      <path
         style="clip-rule:evenodd"
         inkscape:connector-curvature="0"
         id="path890142"
         d="M 207.66,691.319 H 638.58 V 524.399 H 207.66 Z" />
    </clipPath>
    <clipPath
       id="clipPath890152"
       clipPathUnits="userSpaceOnUse">
      <path
         style="clip-rule:evenodd"
         inkscape:connector-curvature="0"
         id="path890150"
         d="m 204.12,698.099 h 438 v -172.68 h -438 z" />
    </clipPath>
    <clipPath
       id="clipPath890160"
       clipPathUnits="userSpaceOnUse">
      <path
         inkscape:connector-curvature="0"
         id="path890158"
         d="M 0.03,1191.03 H 842.01 V 0.03 H 0.03 Z" />
    </clipPath>
    <clipPath
       id="clipPath890252"
       clipPathUnits="userSpaceOnUse">
      <path
         style="clip-rule:evenodd"
         inkscape:connector-curvature="0"
         id="path890250"
         d="m 208.56,690.239 h 55.62 v -67.86 h -55.62 z" />
    </clipPath>
    <clipPath
       id="clipPath890260"
       clipPathUnits="userSpaceOnUse">
      <path
         style="clip-rule:evenodd"
         inkscape:connector-curvature="0"
         id="path890258"
         d="M 207.66,691.319 H 638.58 V 524.399 H 207.66 Z" />
    </clipPath>
    <clipPath
       id="clipPath890268"
       clipPathUnits="userSpaceOnUse">
      <path
         style="clip-rule:evenodd"
         inkscape:connector-curvature="0"
         id="path890266"
         d="m 204.12,698.099 h 438 v -172.68 h -438 z" />
    </clipPath>
    <clipPath
       id="clipPath890276"
       clipPathUnits="userSpaceOnUse">
      <path
         inkscape:connector-curvature="0"
         id="path890274"
         d="M 0.03,1191.03 H 842.01 V 0.03 H 0.03 Z" />
    </clipPath>
    <clipPath
       id="clipPath892656"
       clipPathUnits="userSpaceOnUse">
      <path
         inkscape:connector-curvature="0"
         id="path892654"
         d="m 257.207,688.58 h -47.624 v -63.058 h 47.624 z" />
    </clipPath>
    <clipPath
       id="clipPath893892"
       clipPathUnits="userSpaceOnUse">
      <path
         style="clip-rule:evenodd"
         inkscape:connector-curvature="0"
         id="path893890"
         d="m 505.26,664.259 h 132.06 v -98.22 H 505.26 Z" />
    </clipPath>
    <clipPath
       id="clipPath893900"
       clipPathUnits="userSpaceOnUse">
      <path
         style="clip-rule:evenodd"
         inkscape:connector-curvature="0"
         id="path893898"
         d="M 207.66,691.319 H 638.58 V 524.399 H 207.66 Z" />
    </clipPath>
    <clipPath
       id="clipPath893908"
       clipPathUnits="userSpaceOnUse">
      <path
         style="clip-rule:evenodd"
         inkscape:connector-curvature="0"
         id="path893906"
         d="m 204.12,698.099 h 438 v -172.68 h -438 z" />
    </clipPath>
    <clipPath
       id="clipPath893916"
       clipPathUnits="userSpaceOnUse">
      <path
         inkscape:connector-curvature="0"
         id="path893914"
         d="M 0.03,1191.03 H 842.01 V 0.03 H 0.03 Z" />
    </clipPath>
    <clipPath
       id="clipPath893926"
       clipPathUnits="userSpaceOnUse">
      <path
         style="clip-rule:evenodd"
         inkscape:connector-curvature="0"
         id="path893924"
         d="m 505.56,658.619 h 137.76 v -92.22 H 505.56 Z" />
    </clipPath>
    <clipPath
       id="clipPath893934"
       clipPathUnits="userSpaceOnUse">
      <path
         style="clip-rule:evenodd"
         inkscape:connector-curvature="0"
         id="path893932"
         d="m 505.26,664.259 h 132.06 v -98.22 H 505.26 Z" />
    </clipPath>
    <clipPath
       id="clipPath893942"
       clipPathUnits="userSpaceOnUse">
      <path
         style="clip-rule:evenodd"
         inkscape:connector-curvature="0"
         id="path893940"
         d="M 207.66,691.319 H 638.58 V 524.399 H 207.66 Z" />
    </clipPath>
    <clipPath
       id="clipPath893950"
       clipPathUnits="userSpaceOnUse">
      <path
         style="clip-rule:evenodd"
         inkscape:connector-curvature="0"
         id="path893948"
         d="m 204.12,698.099 h 438 v -172.68 h -438 z" />
    </clipPath>
    <clipPath
       id="clipPath893958"
       clipPathUnits="userSpaceOnUse">
      <path
         inkscape:connector-curvature="0"
         id="path893956"
         d="M 0.03,1191.03 H 842.01 V 0.03 H 0.03 Z" />
    </clipPath>
    <clipPath
       id="clipPath893970"
       clipPathUnits="userSpaceOnUse">
      <path
         style="clip-rule:evenodd"
         inkscape:connector-curvature="0"
         id="path893968"
         d="M 207.66,473.639 H 638.58 V 320.579 H 207.66 Z" />
    </clipPath>
    <clipPath
       id="clipPath893978"
       clipPathUnits="userSpaceOnUse">
      <path
         style="clip-rule:evenodd"
         inkscape:connector-curvature="0"
         id="path893976"
         d="m 204.12,480.419 h 438 v -158.82 h -438 z" />
    </clipPath>
    <clipPath
       id="clipPath893986"
       clipPathUnits="userSpaceOnUse">
      <path
         inkscape:connector-curvature="0"
         id="path893984"
         d="M 0.03,1191.03 H 842.01 V 0.03 H 0.03 Z" />
    </clipPath>
    <clipPath
       id="clipPath894094"
       clipPathUnits="userSpaceOnUse">
      <path
         style="clip-rule:evenodd"
         inkscape:connector-curvature="0"
         id="path894092"
         d="m 208.56,472.559 h 55.8 v -75.9 h -55.8 z" />
    </clipPath>
    <clipPath
       id="clipPath894102"
       clipPathUnits="userSpaceOnUse">
      <path
         style="clip-rule:evenodd"
         inkscape:connector-curvature="0"
         id="path894100"
         d="M 207.66,473.639 H 638.58 V 320.579 H 207.66 Z" />
    </clipPath>
    <clipPath
       id="clipPath894110"
       clipPathUnits="userSpaceOnUse">
      <path
         style="clip-rule:evenodd"
         inkscape:connector-curvature="0"
         id="path894108"
         d="m 204.12,480.419 h 438 v -158.82 h -438 z" />
    </clipPath>
    <clipPath
       id="clipPath894118"
       clipPathUnits="userSpaceOnUse">
      <path
         inkscape:connector-curvature="0"
         id="path894116"
         d="M 0.03,1191.03 H 842.01 V 0.03 H 0.03 Z" />
    </clipPath>
    <clipPath
       id="clipPath894128"
       clipPathUnits="userSpaceOnUse">
      <path
         style="clip-rule:evenodd"
         inkscape:connector-curvature="0"
         id="path894126"
         d="m 208.56,472.559 h 50.04 v -71.64 h -50.04 z" />
    </clipPath>
    <clipPath
       id="clipPath894136"
       clipPathUnits="userSpaceOnUse">
      <path
         style="clip-rule:evenodd"
         inkscape:connector-curvature="0"
         id="path894134"
         d="m 208.56,472.559 h 55.8 v -75.9 h -55.8 z" />
    </clipPath>
    <clipPath
       id="clipPath894144"
       clipPathUnits="userSpaceOnUse">
      <path
         style="clip-rule:evenodd"
         inkscape:connector-curvature="0"
         id="path894142"
         d="M 207.66,473.639 H 638.58 V 320.579 H 207.66 Z" />
    </clipPath>
    <clipPath
       id="clipPath894152"
       clipPathUnits="userSpaceOnUse">
      <path
         style="clip-rule:evenodd"
         inkscape:connector-curvature="0"
         id="path894150"
         d="m 204.12,480.419 h 438 v -158.82 h -438 z" />
    </clipPath>
    <clipPath
       id="clipPath894160"
       clipPathUnits="userSpaceOnUse">
      <path
         inkscape:connector-curvature="0"
         id="path894158"
         d="M 0.03,1191.03 H 842.01 V 0.03 H 0.03 Z" />
    </clipPath>
    <clipPath
       id="clipPath903845"
       clipPathUnits="userSpaceOnUse">
      <path
         style="clip-rule:evenodd"
         inkscape:connector-curvature="0"
         id="path903843"
         d="m 207.66,886.859 h 430.92 v -267.6 H 207.66 Z" />
    </clipPath>
    <clipPath
       id="clipPath903853"
       clipPathUnits="userSpaceOnUse">
      <path
         style="clip-rule:evenodd"
         inkscape:connector-curvature="0"
         id="path903851"
         d="m 204.12,893.639 h 438 v -273.36 h -438 z" />
    </clipPath>
    <clipPath
       id="clipPath903861"
       clipPathUnits="userSpaceOnUse">
      <path
         inkscape:connector-curvature="0"
         id="path903859"
         d="M 0.03,1191.03 H 842.01 V 0.03 H 0.03 Z" />
    </clipPath>
    <clipPath
       id="clipPath904023"
       clipPathUnits="userSpaceOnUse">
      <path
         style="clip-rule:evenodd"
         inkscape:connector-curvature="0"
         id="path904021"
         d="M 208.56,885.839 H 340.5 v -41.58 H 208.56 Z" />
    </clipPath>
    <clipPath
       id="clipPath904031"
       clipPathUnits="userSpaceOnUse">
      <path
         style="clip-rule:evenodd"
         inkscape:connector-curvature="0"
         id="path904029"
         d="m 207.66,886.859 h 430.92 v -267.6 H 207.66 Z" />
    </clipPath>
    <clipPath
       id="clipPath904039"
       clipPathUnits="userSpaceOnUse">
      <path
         style="clip-rule:evenodd"
         inkscape:connector-curvature="0"
         id="path904037"
         d="m 204.12,893.639 h 438 v -273.36 h -438 z" />
    </clipPath>
    <clipPath
       id="clipPath904047"
       clipPathUnits="userSpaceOnUse">
      <path
         inkscape:connector-curvature="0"
         id="path904045"
         d="M 0.03,1191.03 H 842.01 V 0.03 H 0.03 Z" />
    </clipPath>
    <clipPath
       id="clipPath904057"
       clipPathUnits="userSpaceOnUse">
      <path
         inkscape:connector-curvature="0"
         id="path904055"
         d="M 340.069,888.914 H 205.827 v -49.167 h 134.242 z" />
    </clipPath>
    <clipPath
       id="clipPath904065"
       clipPathUnits="userSpaceOnUse">
      <path
         style="clip-rule:evenodd"
         inkscape:connector-curvature="0"
         id="path904063"
         d="m 205.8,888.899 h 134.28 v -49.14 H 205.8 Z" />
    </clipPath>
    <clipPath
       id="clipPath904073"
       clipPathUnits="userSpaceOnUse">
      <path
         style="clip-rule:evenodd"
         inkscape:connector-curvature="0"
         id="path904071"
         d="M 208.56,885.839 H 340.5 v -41.58 H 208.56 Z" />
    </clipPath>
    <clipPath
       id="clipPath904081"
       clipPathUnits="userSpaceOnUse">
      <path
         style="clip-rule:evenodd"
         inkscape:connector-curvature="0"
         id="path904079"
         d="m 207.66,886.859 h 430.92 v -267.6 H 207.66 Z" />
    </clipPath>
    <clipPath
       id="clipPath904089"
       clipPathUnits="userSpaceOnUse">
      <path
         style="clip-rule:evenodd"
         inkscape:connector-curvature="0"
         id="path904087"
         d="m 204.12,893.639 h 438 v -273.36 h -438 z" />
    </clipPath>
    <clipPath
       id="clipPath904097"
       clipPathUnits="userSpaceOnUse">
      <path
         inkscape:connector-curvature="0"
         id="path904095"
         d="M 0.03,1191.03 H 842.01 V 0.03 H 0.03 Z" />
    </clipPath>
    <clipPath
       id="clipPath904425"
       clipPathUnits="userSpaceOnUse">
      <path
         style="clip-rule:evenodd"
         inkscape:connector-curvature="0"
         id="path904423"
         d="M 357,723.599 H 488.16 V 621.179 H 357 Z" />
    </clipPath>
    <clipPath
       id="clipPath904433"
       clipPathUnits="userSpaceOnUse">
      <path
         style="clip-rule:evenodd"
         inkscape:connector-curvature="0"
         id="path904431"
         d="m 207.66,886.859 h 430.92 v -267.6 H 207.66 Z" />
    </clipPath>
    <clipPath
       id="clipPath904441"
       clipPathUnits="userSpaceOnUse">
      <path
         style="clip-rule:evenodd"
         inkscape:connector-curvature="0"
         id="path904439"
         d="m 204.12,893.639 h 438 v -273.36 h -438 z" />
    </clipPath>
    <clipPath
       id="clipPath904449"
       clipPathUnits="userSpaceOnUse">
      <path
         inkscape:connector-curvature="0"
         id="path904447"
         d="M 0.03,1191.03 H 842.01 V 0.03 H 0.03 Z" />
    </clipPath>
    <clipPath
       id="clipPath904459"
       clipPathUnits="userSpaceOnUse">
      <path
         style="clip-rule:evenodd"
         inkscape:connector-curvature="0"
         id="path904457"
         d="M 347.52,723.659 H 497.64 V 623.519 H 347.52 Z" />
    </clipPath>
    <clipPath
       id="clipPath904467"
       clipPathUnits="userSpaceOnUse">
      <path
         style="clip-rule:evenodd"
         inkscape:connector-curvature="0"
         id="path904465"
         d="M 357,723.599 H 488.16 V 621.179 H 357 Z" />
    </clipPath>
    <clipPath
       id="clipPath904475"
       clipPathUnits="userSpaceOnUse">
      <path
         style="clip-rule:evenodd"
         inkscape:connector-curvature="0"
         id="path904473"
         d="m 207.66,886.859 h 430.92 v -267.6 H 207.66 Z" />
    </clipPath>
    <clipPath
       id="clipPath904483"
       clipPathUnits="userSpaceOnUse">
      <path
         style="clip-rule:evenodd"
         inkscape:connector-curvature="0"
         id="path904481"
         d="m 204.12,893.639 h 438 v -273.36 h -438 z" />
    </clipPath>
    <clipPath
       id="clipPath904491"
       clipPathUnits="userSpaceOnUse">
      <path
         inkscape:connector-curvature="0"
         id="path904489"
         d="M 0.03,1191.03 H 842.01 V 0.03 H 0.03 Z" />
    </clipPath>
    <clipPath
       id="clipPath904503"
       clipPathUnits="userSpaceOnUse">
      <path
         style="clip-rule:evenodd"
         inkscape:connector-curvature="0"
         id="path904501"
         d="M 207.66,569.459 H 638.58 V 309.239 H 207.66 Z" />
    </clipPath>
    <clipPath
       id="clipPath904511"
       clipPathUnits="userSpaceOnUse">
      <path
         style="clip-rule:evenodd"
         inkscape:connector-curvature="0"
         id="path904509"
         d="m 204.12,576.299 h 438 v -266.04 h -438 z" />
    </clipPath>
    <clipPath
       id="clipPath904519"
       clipPathUnits="userSpaceOnUse">
      <path
         inkscape:connector-curvature="0"
         id="path904517"
         d="M 0.03,1191.03 H 842.01 V 0.03 H 0.03 Z" />
    </clipPath>
    <clipPath
       id="clipPath904667"
       clipPathUnits="userSpaceOnUse">
      <path
         style="clip-rule:evenodd"
         inkscape:connector-curvature="0"
         id="path904665"
         d="m 208.56,568.439 h 71.1 v -75.12 h -71.1 z" />
    </clipPath>
    <clipPath
       id="clipPath904675"
       clipPathUnits="userSpaceOnUse">
      <path
         style="clip-rule:evenodd"
         inkscape:connector-curvature="0"
         id="path904673"
         d="M 207.66,569.459 H 638.58 V 309.239 H 207.66 Z" />
    </clipPath>
    <clipPath
       id="clipPath904683"
       clipPathUnits="userSpaceOnUse">
      <path
         style="clip-rule:evenodd"
         inkscape:connector-curvature="0"
         id="path904681"
         d="m 204.12,576.299 h 438 v -266.04 h -438 z" />
    </clipPath>
    <clipPath
       id="clipPath904691"
       clipPathUnits="userSpaceOnUse">
      <path
         inkscape:connector-curvature="0"
         id="path904689"
         d="M 0.03,1191.03 H 842.01 V 0.03 H 0.03 Z" />
    </clipPath>
    <clipPath
       id="clipPath908243"
       clipPathUnits="userSpaceOnUse">
      <path
         style="clip-rule:evenodd"
         inkscape:connector-curvature="0"
         id="path908241"
         d="m 357,524.399 h 131.16 v -111.9 H 357 Z" />
    </clipPath>
    <clipPath
       id="clipPath908251"
       clipPathUnits="userSpaceOnUse">
      <path
         style="clip-rule:evenodd"
         inkscape:connector-curvature="0"
         id="path908249"
         d="M 207.66,569.459 H 638.58 V 309.239 H 207.66 Z" />
    </clipPath>
    <clipPath
       id="clipPath908259"
       clipPathUnits="userSpaceOnUse">
      <path
         style="clip-rule:evenodd"
         inkscape:connector-curvature="0"
         id="path908257"
         d="m 204.12,576.299 h 438 v -266.04 h -438 z" />
    </clipPath>
    <clipPath
       id="clipPath908267"
       clipPathUnits="userSpaceOnUse">
      <path
         inkscape:connector-curvature="0"
         id="path908265"
         d="M 0.03,1191.03 H 842.01 V 0.03 H 0.03 Z" />
    </clipPath>
    <clipPath
       id="clipPath908277"
       clipPathUnits="userSpaceOnUse">
      <path
         style="clip-rule:evenodd"
         inkscape:connector-curvature="0"
         id="path908275"
         d="m 353.4,513.899 h 136.14 v -90.84 H 353.4 Z" />
    </clipPath>
    <clipPath
       id="clipPath908285"
       clipPathUnits="userSpaceOnUse">
      <path
         style="clip-rule:evenodd"
         inkscape:connector-curvature="0"
         id="path908283"
         d="m 357,524.399 h 131.16 v -111.9 H 357 Z" />
    </clipPath>
    <clipPath
       id="clipPath908293"
       clipPathUnits="userSpaceOnUse">
      <path
         style="clip-rule:evenodd"
         inkscape:connector-curvature="0"
         id="path908291"
         d="M 207.66,569.459 H 638.58 V 309.239 H 207.66 Z" />
    </clipPath>
    <clipPath
       id="clipPath908301"
       clipPathUnits="userSpaceOnUse">
      <path
         style="clip-rule:evenodd"
         inkscape:connector-curvature="0"
         id="path908299"
         d="m 204.12,576.299 h 438 v -266.04 h -438 z" />
    </clipPath>
    <clipPath
       id="clipPath908309"
       clipPathUnits="userSpaceOnUse">
      <path
         inkscape:connector-curvature="0"
         id="path908307"
         d="M 0.03,1191.03 H 842.01 V 0.03 H 0.03 Z" />
    </clipPath>
    <clipPath
       id="clipPath916943"
       clipPathUnits="userSpaceOnUse">
      <path
         style="clip-rule:evenodd"
         inkscape:connector-curvature="0"
         id="path916941"
         d="m 207.66,886.859 h 430.92 v -267.6 H 207.66 Z" />
    </clipPath>
    <clipPath
       id="clipPath916951"
       clipPathUnits="userSpaceOnUse">
      <path
         style="clip-rule:evenodd"
         inkscape:connector-curvature="0"
         id="path916949"
         d="m 204.12,893.639 h 438 v -273.36 h -438 z" />
    </clipPath>
    <clipPath
       id="clipPath916959"
       clipPathUnits="userSpaceOnUse">
      <path
         inkscape:connector-curvature="0"
         id="path916957"
         d="M 0.03,1191.03 H 842.01 V 0.03 H 0.03 Z" />
    </clipPath>
    <clipPath
       id="clipPath917121"
       clipPathUnits="userSpaceOnUse">
      <path
         style="clip-rule:evenodd"
         inkscape:connector-curvature="0"
         id="path917119"
         d="M 208.56,885.839 H 340.5 v -41.58 H 208.56 Z" />
    </clipPath>
    <clipPath
       id="clipPath917129"
       clipPathUnits="userSpaceOnUse">
      <path
         style="clip-rule:evenodd"
         inkscape:connector-curvature="0"
         id="path917127"
         d="m 207.66,886.859 h 430.92 v -267.6 H 207.66 Z" />
    </clipPath>
    <clipPath
       id="clipPath917137"
       clipPathUnits="userSpaceOnUse">
      <path
         style="clip-rule:evenodd"
         inkscape:connector-curvature="0"
         id="path917135"
         d="m 204.12,893.639 h 438 v -273.36 h -438 z" />
    </clipPath>
    <clipPath
       id="clipPath917145"
       clipPathUnits="userSpaceOnUse">
      <path
         inkscape:connector-curvature="0"
         id="path917143"
         d="M 0.03,1191.03 H 842.01 V 0.03 H 0.03 Z" />
    </clipPath>
    <clipPath
       id="clipPath917155"
       clipPathUnits="userSpaceOnUse">
      <path
         inkscape:connector-curvature="0"
         id="path917153"
         d="M 340.069,888.914 H 205.827 v -49.167 h 134.242 z" />
    </clipPath>
    <clipPath
       id="clipPath917163"
       clipPathUnits="userSpaceOnUse">
      <path
         style="clip-rule:evenodd"
         inkscape:connector-curvature="0"
         id="path917161"
         d="m 205.8,888.899 h 134.28 v -49.14 H 205.8 Z" />
    </clipPath>
    <clipPath
       id="clipPath917171"
       clipPathUnits="userSpaceOnUse">
      <path
         style="clip-rule:evenodd"
         inkscape:connector-curvature="0"
         id="path917169"
         d="M 208.56,885.839 H 340.5 v -41.58 H 208.56 Z" />
    </clipPath>
    <clipPath
       id="clipPath917179"
       clipPathUnits="userSpaceOnUse">
      <path
         style="clip-rule:evenodd"
         inkscape:connector-curvature="0"
         id="path917177"
         d="m 207.66,886.859 h 430.92 v -267.6 H 207.66 Z" />
    </clipPath>
    <clipPath
       id="clipPath917187"
       clipPathUnits="userSpaceOnUse">
      <path
         style="clip-rule:evenodd"
         inkscape:connector-curvature="0"
         id="path917185"
         d="m 204.12,893.639 h 438 v -273.36 h -438 z" />
    </clipPath>
    <clipPath
       id="clipPath917195"
       clipPathUnits="userSpaceOnUse">
      <path
         inkscape:connector-curvature="0"
         id="path917193"
         d="M 0.03,1191.03 H 842.01 V 0.03 H 0.03 Z" />
    </clipPath>
    <clipPath
       id="clipPath917523"
       clipPathUnits="userSpaceOnUse">
      <path
         style="clip-rule:evenodd"
         inkscape:connector-curvature="0"
         id="path917521"
         d="M 357,723.599 H 488.16 V 621.179 H 357 Z" />
    </clipPath>
    <clipPath
       id="clipPath917531"
       clipPathUnits="userSpaceOnUse">
      <path
         style="clip-rule:evenodd"
         inkscape:connector-curvature="0"
         id="path917529"
         d="m 207.66,886.859 h 430.92 v -267.6 H 207.66 Z" />
    </clipPath>
    <clipPath
       id="clipPath917539"
       clipPathUnits="userSpaceOnUse">
      <path
         style="clip-rule:evenodd"
         inkscape:connector-curvature="0"
         id="path917537"
         d="m 204.12,893.639 h 438 v -273.36 h -438 z" />
    </clipPath>
    <clipPath
       id="clipPath917547"
       clipPathUnits="userSpaceOnUse">
      <path
         inkscape:connector-curvature="0"
         id="path917545"
         d="M 0.03,1191.03 H 842.01 V 0.03 H 0.03 Z" />
    </clipPath>
    <clipPath
       id="clipPath917557"
       clipPathUnits="userSpaceOnUse">
      <path
         style="clip-rule:evenodd"
         inkscape:connector-curvature="0"
         id="path917555"
         d="M 347.52,723.659 H 497.64 V 623.519 H 347.52 Z" />
    </clipPath>
    <clipPath
       id="clipPath917565"
       clipPathUnits="userSpaceOnUse">
      <path
         style="clip-rule:evenodd"
         inkscape:connector-curvature="0"
         id="path917563"
         d="M 357,723.599 H 488.16 V 621.179 H 357 Z" />
    </clipPath>
    <clipPath
       id="clipPath917573"
       clipPathUnits="userSpaceOnUse">
      <path
         style="clip-rule:evenodd"
         inkscape:connector-curvature="0"
         id="path917571"
         d="m 207.66,886.859 h 430.92 v -267.6 H 207.66 Z" />
    </clipPath>
    <clipPath
       id="clipPath917581"
       clipPathUnits="userSpaceOnUse">
      <path
         style="clip-rule:evenodd"
         inkscape:connector-curvature="0"
         id="path917579"
         d="m 204.12,893.639 h 438 v -273.36 h -438 z" />
    </clipPath>
    <clipPath
       id="clipPath917589"
       clipPathUnits="userSpaceOnUse">
      <path
         inkscape:connector-curvature="0"
         id="path917587"
         d="M 0.03,1191.03 H 842.01 V 0.03 H 0.03 Z" />
    </clipPath>
    <clipPath
       id="clipPath917601"
       clipPathUnits="userSpaceOnUse">
      <path
         style="clip-rule:evenodd"
         inkscape:connector-curvature="0"
         id="path917599"
         d="M 207.66,569.459 H 638.58 V 309.239 H 207.66 Z" />
    </clipPath>
    <clipPath
       id="clipPath917609"
       clipPathUnits="userSpaceOnUse">
      <path
         style="clip-rule:evenodd"
         inkscape:connector-curvature="0"
         id="path917607"
         d="m 204.12,576.299 h 438 v -266.04 h -438 z" />
    </clipPath>
    <clipPath
       id="clipPath917617"
       clipPathUnits="userSpaceOnUse">
      <path
         inkscape:connector-curvature="0"
         id="path917615"
         d="M 0.03,1191.03 H 842.01 V 0.03 H 0.03 Z" />
    </clipPath>
    <clipPath
       id="clipPath917765"
       clipPathUnits="userSpaceOnUse">
      <path
         style="clip-rule:evenodd"
         inkscape:connector-curvature="0"
         id="path917763"
         d="m 208.56,568.439 h 71.1 v -75.12 h -71.1 z" />
    </clipPath>
    <clipPath
       id="clipPath917773"
       clipPathUnits="userSpaceOnUse">
      <path
         style="clip-rule:evenodd"
         inkscape:connector-curvature="0"
         id="path917771"
         d="M 207.66,569.459 H 638.58 V 309.239 H 207.66 Z" />
    </clipPath>
    <clipPath
       id="clipPath917781"
       clipPathUnits="userSpaceOnUse">
      <path
         style="clip-rule:evenodd"
         inkscape:connector-curvature="0"
         id="path917779"
         d="m 204.12,576.299 h 438 v -266.04 h -438 z" />
    </clipPath>
    <clipPath
       id="clipPath917789"
       clipPathUnits="userSpaceOnUse">
      <path
         inkscape:connector-curvature="0"
         id="path917787"
         d="M 0.03,1191.03 H 842.01 V 0.03 H 0.03 Z" />
    </clipPath>
    <clipPath
       id="clipPath921341"
       clipPathUnits="userSpaceOnUse">
      <path
         style="clip-rule:evenodd"
         inkscape:connector-curvature="0"
         id="path921339"
         d="m 357,524.399 h 131.16 v -111.9 H 357 Z" />
    </clipPath>
    <clipPath
       id="clipPath921349"
       clipPathUnits="userSpaceOnUse">
      <path
         style="clip-rule:evenodd"
         inkscape:connector-curvature="0"
         id="path921347"
         d="M 207.66,569.459 H 638.58 V 309.239 H 207.66 Z" />
    </clipPath>
    <clipPath
       id="clipPath921357"
       clipPathUnits="userSpaceOnUse">
      <path
         style="clip-rule:evenodd"
         inkscape:connector-curvature="0"
         id="path921355"
         d="m 204.12,576.299 h 438 v -266.04 h -438 z" />
    </clipPath>
    <clipPath
       id="clipPath921365"
       clipPathUnits="userSpaceOnUse">
      <path
         inkscape:connector-curvature="0"
         id="path921363"
         d="M 0.03,1191.03 H 842.01 V 0.03 H 0.03 Z" />
    </clipPath>
    <clipPath
       id="clipPath921375"
       clipPathUnits="userSpaceOnUse">
      <path
         style="clip-rule:evenodd"
         inkscape:connector-curvature="0"
         id="path921373"
         d="m 353.4,513.899 h 136.14 v -90.84 H 353.4 Z" />
    </clipPath>
    <clipPath
       id="clipPath921383"
       clipPathUnits="userSpaceOnUse">
      <path
         style="clip-rule:evenodd"
         inkscape:connector-curvature="0"
         id="path921381"
         d="m 357,524.399 h 131.16 v -111.9 H 357 Z" />
    </clipPath>
    <clipPath
       id="clipPath921391"
       clipPathUnits="userSpaceOnUse">
      <path
         style="clip-rule:evenodd"
         inkscape:connector-curvature="0"
         id="path921389"
         d="M 207.66,569.459 H 638.58 V 309.239 H 207.66 Z" />
    </clipPath>
    <clipPath
       id="clipPath921399"
       clipPathUnits="userSpaceOnUse">
      <path
         style="clip-rule:evenodd"
         inkscape:connector-curvature="0"
         id="path921397"
         d="m 204.12,576.299 h 438 v -266.04 h -438 z" />
    </clipPath>
    <clipPath
       id="clipPath921407"
       clipPathUnits="userSpaceOnUse">
      <path
         inkscape:connector-curvature="0"
         id="path921405"
         d="M 0.03,1191.03 H 842.01 V 0.03 H 0.03 Z" />
    </clipPath>
    <clipPath
       id="clipPath929459"
       clipPathUnits="userSpaceOnUse">
      <path
         style="clip-rule:evenodd"
         inkscape:connector-curvature="0"
         id="path929457"
         d="m 198.48,534.839 h 439.38 v -5.1 H 198.48 Z" />
    </clipPath>
    <clipPath
       id="clipPath929467"
       clipPathUnits="userSpaceOnUse">
      <path
         inkscape:connector-curvature="0"
         id="path929465"
         d="M 0.03,1191.03 H 842.01 V 0.03 H 0.03 Z" />
    </clipPath>
    <clipPath
       id="clipPath929619"
       clipPathUnits="userSpaceOnUse">
      <path
         style="clip-rule:evenodd"
         inkscape:connector-curvature="0"
         id="path929617"
         d="m 188.64,867.659 h 125.28 v -325.8 H 188.64 Z" />
    </clipPath>
    <clipPath
       id="clipPath929627"
       clipPathUnits="userSpaceOnUse">
      <path
         style="clip-rule:evenodd"
         inkscape:connector-curvature="0"
         id="path929625"
         d="m 198.48,875.639 h 105.6 v -337.8 h -105.6 z" />
    </clipPath>
    <clipPath
       id="clipPath929635"
       clipPathUnits="userSpaceOnUse">
      <path
         inkscape:connector-curvature="0"
         id="path929633"
         d="M 0.03,1191.03 H 842.01 V 0.03 H 0.03 Z" />
    </clipPath>
    <clipPath
       id="clipPath929825"
       clipPathUnits="userSpaceOnUse">
      <path
         style="clip-rule:evenodd"
         inkscape:connector-curvature="0"
         id="path929823"
         d="m 188.64,867.659 h 125.28 v -325.8 H 188.64 Z" />
    </clipPath>
    <clipPath
       id="clipPath929833"
       clipPathUnits="userSpaceOnUse">
      <path
         style="clip-rule:evenodd"
         inkscape:connector-curvature="0"
         id="path929831"
         d="m 198.48,875.639 h 105.6 v -337.8 h -105.6 z" />
    </clipPath>
    <clipPath
       id="clipPath929841"
       clipPathUnits="userSpaceOnUse">
      <path
         inkscape:connector-curvature="0"
         id="path929839"
         d="M 0.03,1191.03 H 842.01 V 0.03 H 0.03 Z" />
    </clipPath>
    <clipPath
       id="clipPath929851"
       clipPathUnits="userSpaceOnUse">
      <path
         style="clip-rule:evenodd"
         inkscape:connector-curvature="0"
         id="path929849"
         d="M 165.3,653.759 H 333 V 542.039 H 165.3 Z" />
    </clipPath>
    <clipPath
       id="clipPath929859"
       clipPathUnits="userSpaceOnUse">
      <path
         style="clip-rule:evenodd"
         inkscape:connector-curvature="0"
         id="path929857"
         d="m 188.64,867.659 h 125.28 v -325.8 H 188.64 Z" />
    </clipPath>
    <clipPath
       id="clipPath929867"
       clipPathUnits="userSpaceOnUse">
      <path
         style="clip-rule:evenodd"
         inkscape:connector-curvature="0"
         id="path929865"
         d="m 198.48,875.639 h 105.6 v -337.8 h -105.6 z" />
    </clipPath>
    <clipPath
       id="clipPath929875"
       clipPathUnits="userSpaceOnUse">
      <path
         inkscape:connector-curvature="0"
         id="path929873"
         d="M 0.03,1191.03 H 842.01 V 0.03 H 0.03 Z" />
    </clipPath>
    <clipPath
       id="clipPath929887"
       clipPathUnits="userSpaceOnUse">
      <path
         style="clip-rule:evenodd"
         inkscape:connector-curvature="0"
         id="path929885"
         d="m 199.86,508.739 h 438 v -132.42 h -438 z" />
    </clipPath>
    <clipPath
       id="clipPath929895"
       clipPathUnits="userSpaceOnUse">
      <path
         inkscape:connector-curvature="0"
         id="path929893"
         d="M 0.03,1191.03 H 842.01 V 0.03 H 0.03 Z" />
    </clipPath>
    <clipPath
       id="clipPath929995"
       clipPathUnits="userSpaceOnUse">
      <path
         style="clip-rule:evenodd"
         inkscape:connector-curvature="0"
         id="path929993"
         d="m 202.02,506.639 h 12 v -12.78 h -12 z" />
    </clipPath>
    <clipPath
       id="clipPath930003"
       clipPathUnits="userSpaceOnUse">
      <path
         style="clip-rule:evenodd"
         inkscape:connector-curvature="0"
         id="path930001"
         d="m 199.86,508.739 h 438 v -132.42 h -438 z" />
    </clipPath>
    <clipPath
       id="clipPath930011"
       clipPathUnits="userSpaceOnUse">
      <path
         inkscape:connector-curvature="0"
         id="path930009"
         d="M 0.03,1191.03 H 842.01 V 0.03 H 0.03 Z" />
    </clipPath>
    <clipPath
       id="clipPath930021"
       clipPathUnits="userSpaceOnUse">
      <path
         inkscape:connector-curvature="0"
         id="path930019"
         d="m 211.07,507.131 h -9.065 v -11.34 h 9.065 z" />
    </clipPath>
    <clipPath
       id="clipPath930029"
       clipPathUnits="userSpaceOnUse">
      <path
         style="clip-rule:evenodd"
         inkscape:connector-curvature="0"
         id="path930027"
         d="m 202.02,507.119 h 9.06 v -11.34 h -9.06 z" />
    </clipPath>
    <clipPath
       id="clipPath930037"
       clipPathUnits="userSpaceOnUse">
      <path
         style="clip-rule:evenodd"
         inkscape:connector-curvature="0"
         id="path930035"
         d="m 202.02,506.639 h 12 v -12.78 h -12 z" />
    </clipPath>
    <clipPath
       id="clipPath930045"
       clipPathUnits="userSpaceOnUse">
      <path
         style="clip-rule:evenodd"
         inkscape:connector-curvature="0"
         id="path930043"
         d="m 199.86,508.739 h 438 v -132.42 h -438 z" />
    </clipPath>
    <clipPath
       id="clipPath930053"
       clipPathUnits="userSpaceOnUse">
      <path
         inkscape:connector-curvature="0"
         id="path930051"
         d="M 0.03,1191.03 H 842.01 V 0.03 H 0.03 Z" />
    </clipPath>
    <clipPath
       id="clipPath930081"
       clipPathUnits="userSpaceOnUse">
      <path
         style="clip-rule:evenodd"
         inkscape:connector-curvature="0"
         id="path930079"
         d="m 311.52,506.639 h 13.32 v -12.78 h -13.32 z" />
    </clipPath>
    <clipPath
       id="clipPath930089"
       clipPathUnits="userSpaceOnUse">
      <path
         style="clip-rule:evenodd"
         inkscape:connector-curvature="0"
         id="path930087"
         d="m 199.86,508.739 h 438 v -132.42 h -438 z" />
    </clipPath>
    <clipPath
       id="clipPath930097"
       clipPathUnits="userSpaceOnUse">
      <path
         inkscape:connector-curvature="0"
         id="path930095"
         d="M 0.03,1191.03 H 842.01 V 0.03 H 0.03 Z" />
    </clipPath>
    <clipPath
       id="clipPath930111"
       clipPathUnits="userSpaceOnUse">
      <path
         style="clip-rule:evenodd"
         inkscape:connector-curvature="0"
         id="path930109"
         d="m 420.96,506.639 h 13.38 v -12.78 h -13.38 z" />
    </clipPath>
    <clipPath
       id="clipPath930119"
       clipPathUnits="userSpaceOnUse">
      <path
         style="clip-rule:evenodd"
         inkscape:connector-curvature="0"
         id="path930117"
         d="m 199.86,508.739 h 438 v -132.42 h -438 z" />
    </clipPath>
    <clipPath
       id="clipPath930127"
       clipPathUnits="userSpaceOnUse">
      <path
         inkscape:connector-curvature="0"
         id="path930125"
         d="M 0.03,1191.03 H 842.01 V 0.03 H 0.03 Z" />
    </clipPath>
    <clipPath
       id="clipPath930137"
       clipPathUnits="userSpaceOnUse">
      <path
         inkscape:connector-curvature="0"
         id="path930135"
         d="m 430.497,506.513 h -9.507 v -11.22 h 9.507 z" />
    </clipPath>
    <clipPath
       id="clipPath930149"
       clipPathUnits="userSpaceOnUse">
      <path
         style="clip-rule:evenodd"
         inkscape:connector-curvature="0"
         id="path930147"
         d="m 530.46,506.639 h 13.32 v -11.34 h -13.32 z" />
    </clipPath>
    <clipPath
       id="clipPath930157"
       clipPathUnits="userSpaceOnUse">
      <path
         style="clip-rule:evenodd"
         inkscape:connector-curvature="0"
         id="path930155"
         d="m 199.86,508.739 h 438 v -132.42 h -438 z" />
    </clipPath>
    <clipPath
       id="clipPath930165"
       clipPathUnits="userSpaceOnUse">
      <path
         inkscape:connector-curvature="0"
         id="path930163"
         d="M 0.03,1191.03 H 842.01 V 0.03 H 0.03 Z" />
    </clipPath>
  </defs>
  <sodipodi:namedview
     id="base"
     pagecolor="#ffffff"
     bordercolor="#666666"
     borderopacity="1.0"
     inkscape:pageopacity="0.0"
     inkscape:pageshadow="2"
     inkscape:zoom="3.959798"
     inkscape:cx="36.154747"
     inkscape:cy="102.12615"
     inkscape:document-units="mm"
     inkscape:current-layer="g932818"
     showgrid="false"
     fit-margin-top="0"
     fit-margin-left="0"
     fit-margin-right="0"
     fit-margin-bottom="0"
     inkscape:pagecheckerboard="true"
     inkscape:window-width="1920"
     inkscape:window-height="1000"
     inkscape:window-x="1920"
     inkscape:window-y="0"
     inkscape:window-maximized="1"
     inkscape:document-rotation="0" />
  <metadata
     id="metadata882708">
    <rdf:RDF>
      <cc:Work
         rdf:about="">
        <dc:format>image/svg+xml</dc:format>
        <dc:type
           rdf:resource="http://purl.org/dc/dcmitype/StillImage" />
        <dc:title />
      </cc:Work>
    </rdf:RDF>
  </metadata>
  <g
     inkscape:label="Layer 1"
     inkscape:groupmode="layer"
     id="layer1"
     transform="translate(-9.9453444,-110.41924)">
    <g
       id="g932818">
      <g
         transform="matrix(0.35277777,0,0,-0.35277777,20.28305,120.35558)"
         id="g929639">
        <path
           inkscape:connector-curvature="0"
           id="path929641"
           style="fill:#231f20;fill-opacity:1;fill-rule:nonzero;stroke:none"
           d="m 0,0 0.216,-0.171 0.023,-0.018 c 0,0 0.013,-0.009 0.017,-0.014 L 0.492,-0.398 C 0.5,-0.404 0.507,-0.41 0.515,-0.417 0.589,-0.511 0.424,-0.697 0.3,-0.628 0.293,-0.622 0.287,-0.618 0.282,-0.612 l -0.231,0.176 -0.233,0.195 c -0.098,0.084 -0.175,0.15 -0.246,0.197 -0.009,0.011 -0.028,0.026 -0.033,0.035 -0.01,0.02 0.012,0.064 0.065,0.134 0.071,0.093 0.097,0.099 0.097,0.099 0.013,0.001 0.04,-0.015 0.072,-0.037 C -0.163,0.128 -0.087,0.067 0,0 Z m -0.044,0.601 c 0.069,0.092 0.095,0.101 0.097,0.101 0.006,0 0.019,-0.007 0.03,-0.013 C 0.144,0.631 0.219,0.572 0.304,0.507 L 0.579,0.292 0.804,0.108 C 0.811,0.101 0.817,0.097 0.825,0.09 0.933,-0.022 0.802,-0.241 0.693,-0.187 0.686,-0.183 0.684,-0.18 0.676,-0.174 L 0.414,0.028 c 0,0 -0.21,0.173 -0.21,0.173 -0.095,0.082 -0.171,0.143 -0.241,0.193 -0.031,0.028 -0.062,0.055 -0.071,0.074 -0.003,0.007 -0.013,0.03 0.064,0.133 z M 0.298,1.065 C 0.367,1.157 0.394,1.164 0.396,1.164 0.438,1.166 0.579,1.044 0.706,0.937 L 0.935,0.749 C 0.935,0.746 1.194,0.551 1.194,0.551 1.313,0.465 1.125,0.239 0.998,0.318 0.995,0.321 0.992,0.323 0.987,0.326 L 0.785,0.488 0.759,0.509 H 0.757 L 0.756,0.51 0.759,0.509 0.738,0.526 0.539,0.693 C 0.425,0.786 0.338,0.86 0.26,0.91 0.252,0.918 0.237,0.93 0.234,0.937 0.228,0.947 0.242,0.987 0.298,1.065 Z m -0.31,-2.186 c -0.004,0.004 -0.008,0.007 -0.013,0.011 l -0.216,0.168 -0.043,0.036 -0.026,0.02 c -0.058,0.048 -0.201,0.163 -0.201,0.163 -0.091,0.073 -0.162,0.128 -0.229,0.174 -0.028,0.025 -0.059,0.052 -0.068,0.07 -0.003,0.009 -0.015,0.03 0.067,0.142 0.066,0.088 0.092,0.096 0.092,0.096 0.008,0 0.022,-0.008 0.036,-0.016 0.065,-0.066 0.147,-0.131 0.24,-0.203 l 0.244,-0.191 0.005,-0.004 c 0,0 0.007,-0.006 0.009,-0.006 l 0.221,-0.177 c 0.005,-0.004 0.009,-0.007 0.012,-0.01 0.119,-0.111 -0.017,-0.334 -0.13,-0.273 z m -0.38,-0.448 c -0.006,0.004 -0.011,0.008 -0.016,0.013 l -0.211,0.163 -0.026,0.02 -0.017,0.013 c -0.05,0.04 -0.264,0.212 -0.264,0.212 -0.088,0.072 -0.153,0.124 -0.216,0.165 -0.013,0.014 -0.024,0.027 -0.026,0.036 0,0.005 -0.001,0.032 0.068,0.125 0.067,0.088 0.093,0.099 0.098,0.101 0.012,0.002 0.038,-0.013 0.067,-0.032 0.067,-0.062 0.151,-0.126 0.247,-0.2 0,0 0.23,-0.171 0.231,-0.175 0.001,-0.001 0.246,-0.205 0.246,-0.205 0.01,-0.009 0.016,-0.015 0.026,-0.022 0.074,-0.103 -0.084,-0.288 -0.207,-0.214 z m -0.309,-0.503 c -0.013,0.01 -0.019,0.016 -0.033,0.026 l -0.246,0.185 c 0,10e-4 -0.006,0.006 -0.006,0.006 0,0 -0.007,0.005 -0.009,0.006 l -0.214,0.178 c -0.087,0.074 -0.158,0.131 -0.224,0.179 -0.03,0.026 -0.061,0.056 -0.07,0.075 -0.004,0.007 -0.016,0.03 0.067,0.14 0.06,0.079 0.085,0.093 0.09,0.094 0.003,0 0.015,-0.01 0.019,-0.013 0.069,-0.07 0.168,-0.144 0.297,-0.238 0,0 0.199,-0.15 0.211,-0.157 l 0.005,-0.004 c 0,0 0.004,-0.003 0.005,-0.003 0.02,-0.02 0.221,-0.183 0.221,-0.183 0.006,-0.006 0.012,-0.01 0.019,-0.016 0.105,-0.113 -0.025,-0.321 -0.132,-0.275 z M 0.017,-5.14 c -0.045,-0.196 -0.159,-0.197 -0.194,-0.195 -0.122,0.015 -0.294,0.204 -0.295,0.577 -0.017,0.46 -1.022,1.299 -1.55,1.678 h 0.002 c -0.016,0.012 -1.542,1.103 -2.117,0.956 -0.351,-0.087 -0.618,0 -0.665,0.131 -0.03,0.084 0.024,0.168 0.148,0.23 0.553,0.303 1.591,-0.016 2.936,-0.895 0.835,-0.552 1.929,-1.692 1.735,-2.482 z m -14.456,-13.906 c 0.004,0.017 0.286,0.842 0.286,0.842 0,0.002 0.001,0.004 0.001,0.004 0,0 9.762,12.969 11.419,15.174 0.182,-0.111 0.353,-0.224 0.493,-0.328 -1.739,-2.164 -12.169,-15.669 -12.199,-15.692 z m 10.812,0.886 c 0,0 0.272,-0.804 0.285,-0.842 -0.011,0.006 -2.584,3.389 -5.062,6.461 0.094,0.116 0.189,0.233 0.284,0.351 2.407,-3.199 4.493,-5.97 4.493,-5.97 z m -11.932,14.835 c 0.002,0 0.003,0.002 0.005,0.002 v 0.003 c 0.142,0.106 0.319,0.222 0.506,0.336 0.773,-1.025 3.406,-4.528 5.955,-7.915 l -0.331,-0.439 c -2.625,3.265 -5.246,6.872 -6.135,8.013 z m -1.75,-1.393 c -10e-4,-0.374 -0.174,-0.56 -0.295,-0.575 -0.034,-0.003 -0.149,0 -0.195,0.194 -0.192,0.789 0.899,1.926 1.737,2.482 1.344,0.879 2.386,1.197 2.936,0.895 0.126,-0.063 0.178,-0.146 0.148,-0.23 -0.046,-0.13 -0.315,-0.217 -0.666,-0.13 -0.576,0.146 -2.101,-0.945 -2.118,-0.956 -0.529,-0.383 -1.53,-1.223 -1.547,-1.68 z m 0.1,2.964 c 0.006,0.006 0.011,0.009 0.018,0.014 l 0.267,0.197 c -0.002,0 0.224,0.156 0.224,0.156 0.1,0.068 0.178,0.123 0.244,0.176 0.037,0.024 0.074,0.046 0.096,0.051 0.008,10e-4 0.03,0.007 0.108,-0.097 0.071,-0.092 0.071,-0.118 0.071,-0.12 -10e-4,-0.007 -0.011,-0.017 -0.02,-0.026 -0.072,-0.043 -0.148,-0.099 -0.235,-0.164 l -0.279,-0.207 -0.24,-0.165 c -0.008,-0.007 -0.014,-0.011 -0.023,-0.017 -0.135,-0.073 -0.309,0.111 -0.231,0.202 z m -0.149,0.25 c -0.009,-0.006 -0.013,-0.011 -0.022,-0.016 -0.111,-0.045 -0.244,0.161 -0.147,0.261 0.007,0.005 0.014,0.01 0.02,0.015 l 0.232,0.174 0.251,0.172 c 0.106,0.071 0.187,0.127 0.252,0.181 0.014,0.008 0.036,0.023 0.047,0.025 0.021,0.005 0.058,-0.027 0.111,-0.099 0.071,-0.093 0.069,-0.118 0.069,-0.118 -0.002,-0.013 -0.025,-0.034 -0.054,-0.06 -0.074,-0.046 -0.154,-0.103 -0.244,-0.17 l -0.179,-0.13 -0.067,-0.046 c 0,-0.001 -0.016,-0.013 -0.031,-0.025 z m -0.319,0.492 c -0.007,-0.005 -0.012,-0.009 -0.019,-0.013 -0.136,-0.075 -0.309,0.112 -0.223,0.201 0.006,0.004 0.01,0.008 0.016,0.012 l 0.263,0.191 c 0.001,0.003 0.239,0.172 0.239,0.172 0.092,0.066 0.165,0.119 0.226,0.17 0.035,0.021 0.07,0.044 0.091,0.049 0.008,0.003 0.033,0.007 0.117,-0.102 0.069,-0.088 0.069,-0.115 0.069,-0.116 -0.002,-0.007 -0.014,-0.018 -0.025,-0.029 -0.08,-0.045 -0.164,-0.107 -0.259,-0.178 l -0.206,-0.15 -0.051,-0.035 c -0.001,-0.001 -0.016,-0.013 -0.037,-0.029 z m -0.39,0.439 c -0.011,-0.007 -0.014,-0.011 -0.025,-0.018 -0.121,-0.054 -0.263,0.158 -0.153,0.256 0.006,0.005 0.009,0.008 0.015,0.012 l 0.239,0.175 c 0.002,0.002 0.294,0.212 0.294,0.212 0.093,0.065 0.158,0.114 0.215,0.163 0.019,0.009 0.035,0.014 0.045,0.013 0.003,0 0.029,-0.004 0.099,-0.096 0.07,-0.089 0.071,-0.118 0.071,-0.121 -0.001,-0.013 -0.022,-0.034 -0.049,-0.059 -0.078,-0.047 -0.161,-0.11 -0.257,-0.183 0,0 -0.174,-0.131 -0.215,-0.162 l -0.017,-0.012 -0.006,-0.005 c -0.025,-0.016 -0.256,-0.175 -0.256,-0.175 z m -0.331,0.483 c -0.006,-0.004 -0.01,-0.008 -0.017,-0.012 -0.136,-0.079 -0.308,0.107 -0.23,0.199 0.01,0.01 0.018,0.015 0.03,0.024 l 0.231,0.177 c 0.007,0.006 0.021,0.016 0.022,0.016 10e-4,0 0.014,0.01 0.025,0.019 l 0.213,0.143 c 0.099,0.067 0.175,0.122 0.239,0.174 0.03,0.018 0.064,0.04 0.083,0.043 0.01,0.002 0.034,0.007 0.12,-0.103 0.059,-0.079 0.063,-0.107 0.064,-0.111 -0.001,-0.004 -0.017,-0.013 -0.021,-0.019 -0.085,-0.048 -0.181,-0.123 -0.305,-0.22 0,0 -0.192,-0.145 -0.206,-0.156 l -0.006,-0.005 c 0,0 -0.005,-0.003 -0.006,-0.004 -0.022,-0.013 -0.236,-0.165 -0.236,-0.165 z m -0.398,0.439 C -18.8,0.346 -18.802,0.344 -18.805,0.343 -18.924,0.284 -19.081,0.52 -18.953,0.609 l 0.249,0.171 0.223,0.172 c 0.137,0.111 0.282,0.224 0.322,0.218 0.006,-0.002 0.035,-0.009 0.107,-0.102 0.071,-0.092 0.071,-0.121 0.071,-0.121 -0.003,-0.013 -0.022,-0.032 -0.046,-0.054 -0.079,-0.046 -0.163,-0.107 -0.261,-0.178 l -0.217,-0.158 -0.021,-0.015 c 0,0 -0.012,-0.009 -0.016,-0.013 z m 2.753,-1.987 c 0.013,0.008 0.034,0.022 0.044,0.024 0.011,0.001 0.043,-0.023 0.101,-0.097 0.073,-0.094 0.071,-0.119 0.071,-0.121 -0.009,-0.04 -0.164,-0.145 -0.302,-0.239 l -0.243,-0.168 c -0.001,-0.002 -0.26,-0.198 -0.26,-0.198 -0.115,-0.089 -0.278,0.147 -0.176,0.249 0.005,0.004 0.009,0.007 0.015,0.01 l 0.211,0.156 0.028,0.018 v 0.002 h 0.002 l 0.023,0.018 0.209,0.143 c 0.118,0.081 0.209,0.143 0.277,0.203 z M -1.795,-1.76 c 0.068,0.093 0.094,0.101 0.095,0.101 0.012,0 0.037,-0.012 0.064,-0.032 0.066,-0.061 0.148,-0.127 0.244,-0.202 l 0.224,-0.175 0.006,-0.006 c 0,0 0.006,-0.004 0.007,-0.004 l 0.252,-0.204 c 0.004,-0.004 0.007,-0.005 0.01,-0.009 0.085,-0.1 -0.098,-0.314 -0.218,-0.214 l -0.232,0.194 -0.226,0.168 c -0.143,0.102 -0.289,0.211 -0.297,0.253 -0.002,0.005 -0.002,0.035 0.071,0.13 z m 1.409,2.235 C -0.48,0.443 -0.558,0.376 -0.62,0.294 -0.701,0.185 -0.734,0.097 -0.738,0.016 -0.834,-0.015 -0.906,-0.093 -0.967,-0.172 -1.055,-0.29 -1.089,-0.384 -1.09,-0.468 -1.186,-0.5 -1.262,-0.571 -1.325,-0.657 -1.384,-0.736 -1.431,-0.829 -1.436,-0.93 c -0.088,-0.033 -0.162,-0.098 -0.223,-0.178 -0.083,-0.113 -0.119,-0.203 -0.125,-0.285 -0.098,-0.032 -0.172,-0.114 -0.236,-0.2 -0.071,-0.095 -0.143,-0.212 -0.122,-0.339 0.004,-0.026 0.015,-0.049 0.026,-0.073 -1.203,0.688 -2.109,0.876 -2.698,0.552 -0.345,-0.173 -0.387,-0.462 -0.319,-0.657 0.123,-0.339 0.566,-0.482 1.081,-0.351 0.153,0.036 0.581,-0.149 1.015,-0.39 l -5.836,-7.757 -5.87,7.8 c 0.434,0.24 0.862,0.424 1.013,0.385 0.517,-0.127 0.962,0.018 1.081,0.353 0.076,0.211 0.007,0.497 -0.315,0.658 -0.571,0.313 -1.448,0.143 -2.597,-0.497 0.002,0.011 0.01,0.021 0.011,0.031 0.001,0.015 0.002,0.032 0.002,0.046 0,0.109 -0.06,0.204 -0.128,0.292 -0.085,0.109 -0.163,0.166 -0.238,0.19 -0.009,0.096 -0.054,0.187 -0.116,0.266 -0.088,0.112 -0.168,0.169 -0.249,0.191 -0.006,0.099 -0.05,0.191 -0.11,0.272 -0.083,0.106 -0.159,0.163 -0.235,0.189 -0.005,0.1 -0.062,0.192 -0.121,0.271 -0.091,0.116 -0.172,0.175 -0.253,0.198 -0.006,0.101 -0.053,0.194 -0.117,0.279 -0.061,0.077 -0.139,0.148 -0.235,0.18 -0.007,0.095 -0.051,0.183 -0.11,0.264 -0.086,0.112 -0.165,0.171 -0.243,0.196 -0.004,0.106 -0.061,0.199 -0.126,0.283 -0.075,0.094 -0.167,0.193 -0.295,0.209 -0.159,0.018 -0.291,-0.086 -0.531,-0.276 0,0 -0.214,-0.165 -0.215,-0.168 -0.005,-0.003 -0.236,-0.166 -0.236,-0.166 -0.258,-0.172 -0.399,-0.266 -0.423,-0.424 -0.003,-0.015 -0.004,-0.03 -0.004,-0.042 0,-0.111 0.061,-0.203 0.131,-0.293 0.064,-0.083 0.141,-0.153 0.236,-0.185 0.007,-0.098 0.053,-0.189 0.118,-0.271 0.082,-0.11 0.158,-0.168 0.233,-0.195 0.004,-0.101 0.063,-0.192 0.128,-0.274 0.082,-0.106 0.156,-0.163 0.23,-0.19 0.008,-0.095 0.061,-0.183 0.124,-0.265 0.089,-0.116 0.17,-0.174 0.25,-0.199 0.005,-0.1 0.053,-0.196 0.119,-0.277 0.061,-0.081 0.135,-0.151 0.228,-0.183 0.008,-0.096 0.055,-0.187 0.119,-0.266 0.09,-0.115 0.17,-0.174 0.251,-0.197 0.005,-0.101 0.052,-0.194 0.116,-0.278 0.072,-0.092 0.156,-0.174 0.268,-0.199 -0.706,-0.647 -1.341,-1.527 -1.157,-2.282 0.083,-0.353 0.349,-0.482 0.576,-0.458 0.298,0.035 0.601,0.361 0.603,0.916 0.004,0.11 0.246,0.418 0.656,0.794 l 6.45,-7.979 -4.611,-6.129 -0.281,-0.827 -0.362,-1.06 0.92,0.629 0.728,0.499 0.034,0.042 c 0,0 2.088,2.583 4.552,5.632 l 4.553,-5.632 0.045,-0.033 c 10e-4,-0.001 1.602,-1.096 1.602,-1.096 l -0.358,1.062 -0.283,0.826 -4.579,6.086 c 2.584,3.198 5.323,6.587 6.415,7.941 0.409,-0.375 0.655,-0.687 0.659,-0.795 0.001,-0.554 0.304,-0.883 0.603,-0.917 0.227,-0.028 0.493,0.107 0.575,0.46 0.178,0.728 -0.416,1.579 -1.095,2.221 0.003,10e-4 0.008,10e-4 0.012,10e-4 0.103,0.03 0.179,0.115 0.246,0.205 0.061,0.085 0.106,0.176 0.113,0.276 0.092,0.034 0.168,0.103 0.231,0.187 0.084,0.109 0.119,0.199 0.123,0.279 0.095,0.032 0.169,0.111 0.23,0.197 0.079,0.107 0.112,0.193 0.119,0.271 0.091,0.034 0.161,0.107 0.223,0.192 0.088,0.118 0.124,0.212 0.124,0.295 0.096,0.032 0.173,0.104 0.236,0.19 0.062,0.079 0.109,0.169 0.114,0.267 0.091,0.035 0.163,0.104 0.224,0.187 0.087,0.118 0.122,0.21 0.123,0.294 0.094,0.033 0.171,0.104 0.234,0.187 0.076,0.1 0.141,0.211 0.123,0.335 C 1.715,0.514 1.589,0.606 1.36,0.777 L 1.107,0.969 0.886,1.152 C 0.652,1.351 0.523,1.461 0.364,1.442 0.348,1.441 0.335,1.437 0.321,1.433 0.216,1.404 0.141,1.32 0.075,1.23 -0.008,1.119 -0.042,1.029 -0.044,0.951 -0.135,0.916 -0.209,0.848 -0.268,0.767 -0.355,0.651 -0.386,0.558 -0.386,0.475 Z m -16.166,-2.477 -0.002,-0.002 0.003,0.002 z m 11.021,14.58 -1.108,0.083 c -0.199,0.011 -0.375,-0.113 -0.392,-0.282 -0.019,-0.166 0.129,-0.316 0.33,-0.33 l 1.106,-0.082 c 0.201,-0.014 0.378,0.108 0.394,0.279 0.017,0.168 -0.131,0.317 -0.33,0.332 z m -5.56,0.083 -1.109,-0.083 c -0.199,-0.015 -0.346,-0.164 -0.329,-0.332 0.016,-0.171 0.194,-0.293 0.393,-0.279 l 1.107,0.082 c 0.201,0.014 0.35,0.164 0.33,0.33 -0.016,0.169 -0.192,0.293 -0.392,0.282 z m 2.702,0.11 h -1.113 c -0.201,0 -0.364,-0.136 -0.364,-0.307 0,-0.168 0.163,-0.304 0.364,-0.304 h 1.113 c 0.199,0 0.362,0.136 0.362,0.304 0,0.171 -0.163,0.307 -0.362,0.307 z m -5.437,8.451 c 0,0.263 -0.213,0.475 -0.474,0.475 -0.263,0 -0.473,-0.212 -0.473,-0.475 0,-0.263 0.21,-0.478 0.473,-0.478 0.261,0 0.474,0.215 0.474,0.478 z m 10.259,-0.478 c 0.26,0 0.472,0.215 0.472,0.478 0,0.263 -0.212,0.475 -0.472,0.475 -0.263,0 -0.475,-0.212 -0.475,-0.475 0,-0.263 0.212,-0.478 0.475,-0.478 z m -2.784,2.747 c 0.263,0 0.474,0.212 0.474,0.475 0,0.261 -0.211,0.475 -0.474,0.475 -0.263,0 -0.475,-0.214 -0.475,-0.475 0,-0.263 0.212,-0.475 0.475,-0.475 z m -5.034,0 c 0.263,0 0.474,0.212 0.474,0.475 0,0.261 -0.211,0.475 -0.474,0.475 -0.261,0 -0.475,-0.214 -0.475,-0.475 0,-0.263 0.214,-0.475 0.475,-0.475 z m 2.407,-3.241 c 0.261,0 0.472,0.213 0.472,0.477 0,0.261 -0.211,0.473 -0.472,0.473 -0.264,0 -0.476,-0.212 -0.476,-0.473 0,-0.264 0.212,-0.477 0.476,-0.477 z m 0,-3.813 c 0.261,0 0.472,0.21 0.472,0.473 0,0.261 -0.211,0.474 -0.472,0.474 -0.264,0 -0.476,-0.213 -0.476,-0.474 0,-0.263 0.212,-0.473 0.476,-0.473 z m 2.989,3.992 h -0.65 V 19.613 H -7.48 v -0.684 h 0.841 v -1.674 h 0.65 v 1.674 h 0.842 v 0.684 h -0.842 z m -6.774,-1.509 h 0.842 v -1.673 h 0.651 v 1.673 h 0.841 v 0.684 h -0.841 v 0.817 h -0.651 v -0.817 h -0.842 z m 18.693,-41.221 -0.185,-0.255 1.564,-1.151 0.215,0.294 -0.978,0.719 0.722,-0.041 0.035,0.042 -0.258,0.679 0.975,-0.717 0.215,0.294 -1.565,1.147 -0.185,-0.253 0.303,-0.806 z m 0.401,-2.005 -0.355,0.304 0.434,0.505 -0.272,0.234 -0.432,-0.505 -0.308,0.264 0.452,0.53 -0.27,0.233 -0.691,-0.805 1.474,-1.269 0.702,0.818 -0.27,0.232 z m -1.315,0.371 -0.255,0.248 -0.994,-1.012 0.255,-0.249 0.37,0.376 1.131,-1.116 0.254,0.259 -1.132,1.116 z m -1.185,-1.773 -0.144,-0.126 -0.291,0.33 0.136,0.121 c 0.102,0.091 0.204,0.082 0.3,-0.027 0.11,-0.125 0.074,-0.231 -10e-4,-0.298 z M 4.1,-25.15 c -0.194,0.215 -0.503,0.3 -0.726,0.103 l -0.488,-0.429 1.287,-1.454 0.273,0.237 -0.524,0.592 0.079,0.071 c 0.147,0.125 0.437,-0.114 0.829,-0.323 l 0.3,0.262 c -0.53,0.293 -0.723,0.443 -0.901,0.419 0.057,0.185 0.014,0.362 -0.129,0.522 z m -1.108,-2.219 c -0.223,-0.165 -0.51,-0.085 -0.723,0.201 -0.212,0.287 -0.205,0.588 0.019,0.754 0.221,0.164 0.507,0.084 0.721,-0.204 0.212,-0.285 0.206,-0.586 -0.017,-0.751 z m -0.947,1.28 c -0.44,-0.329 -0.354,-0.923 -0.074,-1.302 0.293,-0.4 0.835,-0.623 1.262,-0.303 0.42,0.314 0.372,0.898 0.074,1.302 -0.277,0.375 -0.82,0.633 -1.262,0.303 z m -1.098,-0.798 -0.027,-0.858 -0.773,0.375 -0.273,-0.164 1.001,-1.661 0.312,0.185 -0.625,1.041 0.65,-0.32 0.048,0.028 0.024,0.727 0.622,-1.039 0.312,0.186 -1,1.664 z m -3.943,-2.905 c 0.078,-0.272 0.063,-0.62 -0.303,-0.727 l -0.237,-0.069 -0.345,1.179 0.234,0.066 c 0.343,0.102 0.555,-0.127 0.651,-0.449 z m -0.704,0.806 -0.643,-0.188 0.542,-1.862 0.603,0.176 c 0.582,0.17 0.732,0.639 0.575,1.176 -0.151,0.51 -0.546,0.855 -1.077,0.698 z m -1.614,-1.629 0.071,0.783 0.387,-0.696 z m -0.238,1.197 -0.223,-2.025 0.393,0.074 0.035,0.401 0.666,0.129 0.194,-0.355 0.4,0.076 -1.037,1.785 z m -2.096,-1.859 -0.034,0.467 0.692,0.051 -0.024,0.355 -0.69,-0.05 -0.031,0.407 0.724,0.052 -0.024,0.356 -1.102,-0.079 0.137,-1.942 1.117,0.082 -0.025,0.355 z m -1.163,0.453 c 0,-0.346 -0.183,-0.48 -0.383,-0.48 -0.219,0 -0.375,0.166 -0.375,0.446 v 1.116 h -0.379 v -1.104 c 0,-0.602 0.319,-0.863 0.756,-0.863 0.416,0 0.758,0.223 0.758,0.865 v 1.102 h -0.377 z m -2.358,-0.378 c -0.286,0.028 -0.452,0.283 -0.415,0.639 0.04,0.356 0.255,0.575 0.544,0.546 0.255,-0.029 0.453,-0.258 0.411,-0.644 -0.041,-0.381 -0.273,-0.571 -0.54,-0.541 z m 0.175,1.586 c -0.54,0.058 -0.922,-0.415 -0.975,-0.912 -0.057,-0.523 0.239,-0.924 0.515,-1.018 0.224,-0.265 0.503,-0.478 0.785,-0.533 l 0.329,0.289 -0.02,0.042 c -0.162,-0.048 -0.393,0.037 -0.544,0.175 0.347,0.095 0.617,0.451 0.662,0.882 0.049,0.446 -0.184,1.016 -0.752,1.075 z m -2.25,-0.189 c -0.138,-0.682 0.64,-0.725 0.577,-1.036 -0.024,-0.112 -0.113,-0.16 -0.254,-0.13 -0.163,0.033 -0.28,0.125 -0.458,0.348 l -0.083,-0.409 c 0.128,-0.129 0.241,-0.241 0.5,-0.295 0.329,-0.067 0.612,0.095 0.687,0.46 0.135,0.664 -0.638,0.739 -0.58,1.026 0.019,0.094 0.117,0.138 0.25,0.11 0.126,-0.026 0.244,-0.099 0.437,-0.267 l 0.073,0.371 c -0.164,0.142 -0.307,0.218 -0.473,0.253 -0.344,0.07 -0.609,-0.102 -0.676,-0.431 z m -0.451,0.681 -0.313,-1.036 c -0.103,-0.334 -0.317,-0.409 -0.508,-0.351 -0.207,0.062 -0.31,0.269 -0.229,0.536 l 0.326,1.071 -0.361,0.107 -0.321,-1.057 c -0.175,-0.577 0.052,-0.919 0.472,-1.046 0.397,-0.119 0.786,-0.004 0.975,0.612 l 0.319,1.057 z m -5.172,2.446 c -0.291,0.199 -0.605,0.139 -0.792,-0.142 -0.391,-0.579 0.313,-0.91 0.134,-1.176 -0.062,-0.095 -0.165,-0.105 -0.285,-0.024 -0.138,0.092 -0.212,0.221 -0.289,0.495 l -0.234,-0.35 c 0.069,-0.165 0.128,-0.311 0.348,-0.457 0.281,-0.188 0.604,-0.144 0.814,0.165 0.379,0.563 -0.307,0.922 -0.142,1.168 0.055,0.079 0.161,0.084 0.274,0.01 0.108,-0.075 0.19,-0.187 0.301,-0.412 l 0.212,0.313 c -0.101,0.195 -0.201,0.318 -0.341,0.41 z m -0.957,0.644 -1.159,-1.557 0.303,-0.224 1.159,1.553 z m -1.729,-0.648 1.011,1.223 -0.293,0.24 -1.235,-1.496 0.889,-0.734 0.227,0.274 z m -1.058,0.942 0.32,0.341 0.506,-0.475 0.243,0.259 -0.507,0.474 0.278,0.296 0.531,-0.495 0.243,0.259 -0.806,0.756 -1.327,-1.415 0.818,-0.767 0.244,0.257 z m -0.311,1.175 c -0.21,-0.192 -0.532,-0.332 -0.788,-0.052 l -0.168,0.182 0.903,0.834 0.165,-0.179 c 0.243,-0.263 0.131,-0.56 -0.112,-0.785 z m 0.407,0.99 -0.455,0.495 -1.426,-1.317 0.426,-0.462 c 0.411,-0.448 0.901,-0.373 1.309,0.005 0.39,0.361 0.521,0.87 0.146,1.279 z m -0.859,1.004 -1.506,-1.226 0.238,-0.292 1.505,1.226 z m -1.081,-0.485 0.289,0.206 -0.392,0.541 0.351,0.255 0.392,-0.539 0.289,0.209 -0.615,0.845 -1.575,-1.138 0.223,-0.307 0.645,0.466 z M 4.22,-0.323 C 3.253,-1.584 2.782,-3.054 2.782,-4.814 c 0,-0.196 0.004,-0.391 0.015,-0.58 l 0.36,-6.08 c 0.011,-0.195 0.016,-0.378 0.016,-0.56 0,-2.935 -1.327,-5.664 -3.638,-7.488 l -8.377,-6.329 c 0,0 -8.577,6.328 -8.584,6.331 -2.451,1.923 -3.806,4.931 -3.619,8.051 l 0.36,6.077 c 0.01,0.199 0.015,0.388 0.015,0.578 0,1.649 -0.407,3.174 -1.247,4.663 l -0.093,0.166 4.486,3.607 0.098,0.077 0.117,-0.039 c 2.466,-0.877 5.153,-1.303 8.217,-1.303 0.048,0 0.092,-0.011 0.128,-0.032 h 0.043 c 2.711,0 5.672,0.426 8.566,1.238 l 0.111,0.031 4.595,-3.746 z M 5.345,0.167 -0.021,4.728 -0.138,4.691 C -2.934,3.819 -5.835,3.376 -8.757,3.376 h -0.266 c -2.909,0 -5.799,0.442 -8.588,1.31 l -0.113,0.034 -5.505,-4.345 0.087,-0.166 c 0.862,-1.638 1.579,-3.122 1.579,-4.716 0,-0.201 -0.007,-0.403 -0.019,-0.614 l -0.388,-6.449 c -0.201,-3.305 1.261,-6.495 3.914,-8.532 l 9.164,-7.066 9.168,7.066 c 2.5,1.929 3.931,4.82 3.931,7.935 0,0.191 -0.005,0.385 -0.02,0.591 l -0.385,6.452 c -0.011,0.201 -0.018,0.409 -0.018,0.617 0,1.6 0.612,2.881 1.479,4.514 z m -23.034,-25.586 c 0.001,0.003 0.003,0.004 0.005,0.006 0,0.003 0,0.006 0.003,0.008 -0.003,-0.005 -0.005,-0.01 -0.008,-0.014 z m 4.429,-1.556 c -10e-4,0.001 -0.002,0.004 -0.004,0.007 0,-0.001 0,-0.001 0,-0.003 0.002,-0.003 0.004,-0.003 0.004,-0.004 z m 13.052,1.57 c 0.001,0 0.001,-0.004 0.001,-0.005 0.001,-0.003 0.003,-0.006 0.007,-0.009 -0.004,0.004 -0.007,0.009 -0.008,0.014 z m -4.424,-1.57 c 0.002,0.001 0.002,0.003 0.004,0.004 v 0.002 c -0.002,-0.002 -0.002,-0.003 -0.004,-0.006 z m 15.284,8.97 c -0.01,-0.083 -0.024,-0.171 -0.039,-0.257 -0.849,0.408 -1.732,0.729 -2.631,0.953 0.04,0.176 0.075,0.352 0.098,0.535 0.013,0.113 0.02,0.22 0.02,0.326 0,0.138 -0.016,0.283 -0.041,0.428 0.893,-0.245 1.735,-0.64 2.503,-1.182 0,-0.002 0.002,-0.002 0.002,-0.002 0.026,-0.018 0.044,-0.047 0.049,-0.079 0.002,0 0.002,-0.005 0.002,-0.006 0.034,-0.155 0.052,-0.308 0.052,-0.455 0,-0.089 -0.004,-0.183 -0.015,-0.261 z m -2.407,-0.942 c -0.206,-0.35 -0.382,-0.7 -0.538,-1.07 -0.067,-0.16 -0.131,-0.329 -0.191,-0.528 -0.406,0.201 -0.824,0.362 -1.246,0.469 -0.088,0.023 -0.178,0.036 -0.27,0.036 -0.236,0 -0.459,-0.075 -0.647,-0.217 -0.139,-0.105 -0.289,-0.192 -0.448,-0.261 -0.044,-0.018 -0.089,-0.013 -0.131,0.006 -0.032,0.02 -0.057,0.058 -0.06,0.1 -0.03,0.244 -0.018,0.487 0.043,0.725 0.065,0.282 0.153,0.553 0.262,0.806 0.14,0.336 0.315,0.681 0.512,1.027 0.198,0.343 0.417,0.667 0.647,0.964 0.161,0.215 0.351,0.421 0.561,0.617 0.189,0.169 0.396,0.301 0.607,0.393 0.043,0.018 0.091,0.015 0.123,-0.004 0.004,-0.003 0.008,-0.004 0.011,-0.006 0.044,-0.023 0.075,-0.061 0.086,-0.108 0.031,-0.136 0.048,-0.291 0.048,-0.45 0,-0.092 -0.005,-0.18 -0.016,-0.266 -0.031,-0.251 -0.082,-0.505 -0.151,-0.745 -0.006,-0.019 -0.006,-0.038 -0.006,-0.054 0,-0.036 0.008,-0.07 0.025,-0.099 0.027,-0.048 0.074,-0.082 0.126,-0.093 0.447,-0.11 0.855,-0.226 1.24,-0.352 -0.209,-0.283 -0.405,-0.579 -0.587,-0.89 z m 0.599,-3.208 c -1.965,-3.383 -4.847,-6.119 -8.35,-7.925 -0.8,0.819 -1.336,1.887 -1.514,3.032 -10e-4,0.02 -0.003,0.042 -0.003,0.063 0,0.044 0.008,0.086 0.016,0.126 2.962,1.269 5.439,3.512 6.994,6.334 0.056,-0.002 0.112,-0.006 0.16,-0.02 1.042,-0.265 1.972,-0.819 2.697,-1.61 z m -10.103,-6.741 c -0.121,-0.048 -0.241,-0.107 -0.368,-0.172 -0.228,0.541 -0.524,1.044 -0.894,1.489 -0.19,0.229 -0.46,0.355 -0.757,0.355 l -0.141,-0.01 -0.007,-0.002 c -0.006,0 -0.013,-10e-4 -0.017,-10e-4 l -0.242,-0.04 c -0.193,-0.026 -0.371,-0.019 -0.545,0.022 -0.019,0.005 -0.034,0.018 -0.038,0.028 -0.005,0.009 -0.003,0.024 0.004,0.036 0.002,0.004 0.004,0.006 0.004,0.008 0.087,0.155 0.204,0.296 0.345,0.42 0.157,0.133 0.332,0.26 0.52,0.374 0.303,0.176 0.544,0.3 0.779,0.398 0.268,0.124 0.539,0.226 0.832,0.316 0.207,0.063 0.417,0.105 0.619,0.13 0.188,0.024 0.371,0.017 0.543,-0.02 0.016,-0.002 0.027,-0.011 0.034,-0.025 0,0 0,-0.004 0.003,-0.007 0,-10e-4 0.002,-0.015 0.002,-0.015 0,-0.009 -0.002,-0.016 -0.005,-0.021 -0.092,-0.154 -0.21,-0.297 -0.349,-0.422 -0.01,-0.008 -0.15,-0.119 -0.15,-0.119 0.003,0.002 0.007,0.002 0.012,0.005 -0.274,-0.189 -0.432,-0.486 -0.432,-0.816 l 0.009,-0.137 c 0.09,-0.583 0.263,-1.141 0.512,-1.66 -0.093,-0.037 -0.182,-0.069 -0.273,-0.114 z m -7.686,-3.475 c -2.501,0 -4.955,0.451 -7.292,1.336 0.075,1.149 0.512,2.264 1.242,3.152 0.037,0.042 0.083,0.075 0.134,0.103 1.827,-0.916 3.873,-1.387 5.928,-1.357 2.043,-0.03 4.086,0.441 5.909,1.357 0.048,-0.031 0.095,-0.064 0.128,-0.103 0.729,-0.888 1.166,-2.004 1.242,-3.152 -2.323,-0.881 -4.777,-1.331 -7.291,-1.336 z m -7.957,3.593 c 0.251,0.537 0.426,1.093 0.513,1.663 -0.003,-0.004 0.005,0.13 0.005,0.13 0,0.326 -0.159,0.631 -0.429,0.813 l -0.134,0.116 c -0.001,0 -0.006,0.004 -0.006,0.004 -0.13,0.109 -0.245,0.246 -0.346,0.411 -0.006,0.013 -0.01,0.022 -0.01,0.032 l 0.003,0.011 c 0,0 0.006,0.009 0.005,0.008 0.005,0.013 0.019,0.024 0.032,0.025 0.104,0.022 0.214,0.034 0.336,0.034 0.072,0 0.14,-0.006 0.21,-0.014 0.209,-0.026 0.414,-0.067 0.629,-0.135 0.275,-0.085 0.548,-0.187 0.834,-0.313 0.237,-0.104 0.489,-0.236 0.772,-0.404 0.179,-0.106 0.346,-0.227 0.51,-0.371 0.135,-0.113 0.254,-0.256 0.347,-0.417 -10e-4,0.002 0.007,-0.01 0.01,-0.013 0,-0.002 0,-0.015 0,-0.015 0,0.003 -0.003,-0.008 -0.006,-0.02 -0.006,-0.009 -0.017,-0.017 -0.032,-0.022 -0.118,-0.023 -0.229,-0.038 -0.336,-0.038 -0.07,0 -0.138,0.006 -0.203,0.016 -0.003,0 -0.219,0.032 -0.219,0.032 l -0.037,0.008 c -0.341,0.058 -0.688,-0.068 -0.911,-0.331 -0.376,-0.46 -0.672,-0.966 -0.891,-1.504 z m -1.483,-1.302 c -3.485,1.793 -6.368,4.53 -8.353,7.928 0.73,0.789 1.66,1.346 2.7,1.607 0.057,0.014 0.102,0.022 0.147,0.022 0.005,0 0.008,-0.002 0.013,-0.002 1.552,-2.822 4.028,-5.065 6.992,-6.334 0.011,-0.04 0.017,-0.08 0.017,-0.126 l -0.002,-0.047 c 0,0.006 -0.001,-0.009 -0.001,-0.011 -0.172,-1.153 -0.697,-2.198 -1.513,-3.037 z m -8.412,7.859 v 0.001 c 0,10e-4 -0.002,0.004 -0.013,-0.008 0.006,0.005 0.01,0.011 0.015,0.014 0,-0.002 -0.002,-0.006 -0.002,-0.007 z m 0.668,3.27 c -0.175,0.307 -0.376,0.608 -0.594,0.899 0.449,0.148 0.856,0.26 1.234,0.34 0.054,0.009 0.101,0.044 0.129,0.09 0.02,0.03 0.029,0.068 0.029,0.102 0,0.019 -0.002,0.037 -0.007,0.055 -0.079,0.275 -0.13,0.517 -0.157,0.746 -0.011,0.091 -0.013,0.177 -0.013,0.271 0,0.157 0.014,0.303 0.046,0.45 0.012,0.044 0.042,0.08 0.084,0.102 0.002,0.003 0.008,0.003 0.009,0.006 0.02,0.01 0.043,0.015 0.065,0.015 0.017,0 0.037,-0.003 0.064,-0.013 0.219,-0.096 0.424,-0.229 0.605,-0.397 0.207,-0.196 0.398,-0.404 0.56,-0.615 0.249,-0.334 0.458,-0.647 0.636,-0.958 0.201,-0.346 0.37,-0.681 0.514,-1.023 0.113,-0.262 0.196,-0.521 0.257,-0.79 0.038,-0.162 0.057,-0.321 0.057,-0.483 0,-0.075 -0.003,-0.157 -0.013,-0.235 -0.005,-0.043 -0.031,-0.08 -0.066,-0.103 -0.024,-0.015 -0.048,-0.02 -0.069,-0.02 -0.016,0 -0.033,0.004 -0.056,0.014 -0.164,0.072 -0.309,0.158 -0.443,0.259 -0.26,0.196 -0.599,0.266 -0.908,0.189 -0.442,-0.113 -0.858,-0.277 -1.248,-0.479 -0.053,0.17 -0.112,0.341 -0.185,0.513 -0.159,0.378 -0.339,0.738 -0.53,1.065 z m -2.362,0.702 c -0.015,0.076 -0.027,0.156 -0.038,0.24 -0.012,0.088 -0.018,0.177 -0.018,0.267 0,0.153 0.017,0.308 0.052,0.464 0.004,0.024 0.022,0.052 0.051,0.074 0,0 0,0 0.002,0.002 0.758,0.537 1.594,0.933 2.487,1.175 -0.024,-0.138 -0.041,-0.283 -0.041,-0.421 0,-0.114 0.006,-0.224 0.018,-0.326 0.023,-0.18 0.058,-0.358 0.101,-0.539 -0.886,-0.213 -1.763,-0.528 -2.614,-0.936 z m 39.304,1.391 c -0.974,0.689 -2.11,1.172 -3.295,1.4 0.006,0 0.011,-10e-4 0.017,-0.003 -0.052,0.018 -0.101,0.018 -0.133,0.018 -0.075,0 -0.151,-0.015 -0.218,-0.041 -0.27,-0.118 -0.514,-0.279 -0.731,-0.479 -0.228,-0.213 -0.43,-0.431 -0.613,-0.668 -0.248,-0.323 -0.472,-0.66 -0.673,-1.008 -0.206,-0.354 -0.386,-0.713 -0.537,-1.07 -0.131,-0.305 -0.223,-0.594 -0.288,-0.879 -0.042,-0.191 -0.064,-0.386 -0.064,-0.58 l 0.011,-0.288 c 0,-0.005 0,-0.005 0.001,-0.008 0.019,-0.173 0.121,-0.326 0.276,-0.419 0.004,0 0.007,-0.001 0.008,-0.004 0.054,-0.025 0.106,-0.045 0.163,-0.057 0.152,-0.03 0.305,-0.072 0.454,-0.112 -1.313,-2.06 -3.13,-3.746 -5.274,-4.887 -0.031,0.12 -0.059,0.248 -0.082,0.395 -0.005,0.037 -0.014,0.088 -0.042,0.138 -0.061,0.133 -0.185,0.23 -0.331,0.26 -0.138,0.028 -0.285,0.045 -0.421,0.045 -0.084,0 -0.176,-0.006 -0.26,-0.018 -0.204,-0.023 -0.433,-0.07 -0.691,-0.145 -0.312,-0.098 -0.596,-0.204 -0.867,-0.327 -0.276,-0.12 -0.551,-0.261 -0.836,-0.433 -0.188,-0.109 -0.373,-0.243 -0.572,-0.413 -0.173,-0.143 -0.32,-0.322 -0.443,-0.528 0,0.001 0,0.001 0.001,0.001 0,-0.001 -0.001,-0.001 -0.001,-0.003 -0.045,-0.07 -0.068,-0.152 -0.068,-0.242 0,-0.064 0.013,-0.125 0.042,-0.191 0.018,-0.043 0.044,-0.084 0.077,-0.116 -0.003,0.004 -0.008,0.008 -0.011,0.012 0.107,-0.134 0.198,-0.261 0.286,-0.386 -1.488,-0.551 -3.041,-0.827 -4.622,-0.817 -1.596,-0.015 -3.159,0.263 -4.655,0.822 0.074,0.117 0.163,0.241 0.275,0.379 0,0.001 0.069,0.111 0.069,0.111 0.025,0.061 0.041,0.122 0.041,0.186 0,0.09 -0.024,0.172 -0.07,0.242 0,0.002 0,0.002 -0.001,0.003 h 0.001 c -0.11,0.189 -0.261,0.37 -0.435,0.522 -0.196,0.167 -0.383,0.302 -0.57,0.414 -0.284,0.171 -0.553,0.309 -0.825,0.426 -0.278,0.127 -0.566,0.238 -0.874,0.332 -0.227,0.068 -0.454,0.118 -0.694,0.151 -0.102,0.012 -0.185,0.018 -0.271,0.018 -0.133,0 -0.27,-0.017 -0.421,-0.045 -0.144,-0.03 -0.271,-0.13 -0.33,-0.263 -0.024,-0.042 -0.036,-0.085 -0.04,-0.114 0,-10e-4 -0.003,-0.008 -0.003,-0.011 -0.019,-0.127 -0.048,-0.264 -0.079,-0.405 -2.144,1.137 -3.956,2.82 -5.263,4.886 0.136,0.041 0.279,0.079 0.448,0.113 0.003,0 0.009,0 0.011,0.002 0.063,0.017 0.112,0.038 0.152,0.059 0.153,0.092 0.257,0.249 0.277,0.423 0.013,0.098 0.013,0.193 0.013,0.292 0,0.212 -0.02,0.401 -0.063,0.576 -0.069,0.292 -0.167,0.592 -0.284,0.868 -0.157,0.372 -0.338,0.737 -0.534,1.069 -0.198,0.344 -0.424,0.689 -0.675,1.014 -0.211,0.272 -0.407,0.485 -0.615,0.672 -0.208,0.198 -0.448,0.354 -0.725,0.474 -0.068,0.034 -0.146,0.052 -0.228,0.052 l -0.108,-0.009 c -1.186,-0.228 -2.323,-0.713 -3.295,-1.402 -0.115,-0.081 -0.192,-0.197 -0.228,-0.339 -0.041,-0.184 -0.062,-0.374 -0.062,-0.551 0,-0.106 0.011,-0.211 0.021,-0.313 v -0.008 c 0.031,-0.236 0.069,-0.447 0.12,-0.648 0.011,-0.042 0.038,-0.075 0.077,-0.091 0.04,-0.018 0.082,-0.017 0.122,0.002 0.455,0.236 0.936,0.449 1.464,0.647 0.003,-0.005 0.04,-0.055 0.04,-0.057 0.251,-0.327 0.463,-0.641 0.647,-0.965 0.189,-0.322 0.36,-0.665 0.512,-1.018 0.087,-0.219 0.157,-0.424 0.211,-0.63 -0.498,-0.296 -0.955,-0.671 -1.353,-1.12 -0.051,-0.063 -0.077,-0.124 -0.077,-0.191 v -0.002 c 0,-0.059 0.023,-0.103 0.036,-0.13 10e-4,-0.002 0.002,-0.004 0.003,-0.007 2.049,-3.547 5.058,-6.398 8.701,-8.248 -0.001,0.003 -0.001,0.004 -0.003,0.006 0.028,-0.016 0.061,-0.024 0.109,-0.024 0.074,0 0.145,0.03 0.196,0.084 0.397,0.389 0.733,0.836 1.011,1.322 0.125,-0.053 0.348,-0.147 0.348,-0.147 0.171,-0.078 0.311,-0.149 0.442,-0.216 -0.177,-0.504 -0.283,-1.047 -0.31,-1.624 v -0.016 c 0,-0.114 0.071,-0.218 0.176,-0.259 2.428,-0.929 4.966,-1.4 7.547,-1.4 h 0.039 c 2.594,0.005 5.124,0.479 7.526,1.409 0.09,0.03 0.156,0.136 0.156,0.25 v 0.012 c -0.019,0.548 -0.124,1.095 -0.302,1.629 0.159,0.086 0.313,0.16 0.436,0.215 0.121,0.057 0.238,0.102 0.354,0.145 0.268,-0.479 0.604,-0.928 1.007,-1.33 0.048,-0.045 0.121,-0.074 0.193,-0.074 0.045,0 0.088,0.008 0.13,0.03 3.647,1.857 6.65,4.713 8.692,8.257 0.011,0.02 0.014,0.04 0.016,0.062 0,-0.005 0,-0.009 -0.002,-0.013 0,10e-4 0.002,0.007 0.003,0.016 v 0.006 c 0.002,0.018 0.008,0.045 0.008,0.045 0,0.064 -0.024,0.127 -0.068,0.182 -0.002,0.002 -0.002,0.003 -0.002,0.007 -0.386,0.432 -0.842,0.809 -1.354,1.126 0.056,0.224 0.124,0.437 0.209,0.63 0.146,0.351 0.319,0.696 0.512,1.031 0.19,0.322 0.408,0.645 0.646,0.962 0,0 0.021,0.025 0.035,0.044 0.507,-0.187 0.992,-0.397 1.482,-0.651 0.04,-0.02 0.084,-0.02 0.125,0 0.04,0.019 0.068,0.057 0.076,0.101 l 0.019,0.13 0.08,0.522 c 0.013,0.096 0.023,0.201 0.023,0.31 0,0.175 -0.02,0.355 -0.06,0.547 -0.027,0.133 -0.105,0.254 -0.221,0.339 z m -35.885,1.366 c 0.004,0 0.006,-0.003 0.008,-0.003 h 0.002 c -0.004,0 -0.006,0.003 -0.01,0.003 z m 23.697,-15.894 c -10e-4,-0.001 -0.003,-0.002 -0.005,-0.002 l -0.001,-0.002 c 0.001,0.003 0.004,0.003 0.006,0.004 z M 3.692,6.329 c 0.619,0.251 1.523,0.619 1.523,0.619 0.056,0.019 0.098,0.069 0.115,0.127 0,0 0.116,0.386 0.168,0.568 H 5.6 c 1.418,0 2.807,0.325 4.073,0.932 C 9.304,8.093 8.919,7.588 8.919,7.588 8.891,7.553 8.878,7.51 8.878,7.469 8.878,7.437 8.886,7.406 8.897,7.38 8.934,7.311 9.003,7.268 9.078,7.27 c 0,0 0.71,0.009 1.338,0.016 C 8.331,6.251 5.991,5.916 3.692,6.329 Z M 1.135,8.567 c -1.341,0 -2.658,-0.346 -3.828,-0.994 -0.094,0.315 -0.338,1.13 -0.406,1.355 2.664,1.37 5.804,1.37 8.467,0 C 5.305,8.703 5.061,7.881 4.967,7.563 3.793,8.216 2.476,8.567 1.135,8.567 Z M -1.96,6.273 c -0.504,0 -1.013,0.082 -1.507,0.244 -0.005,0 -0.009,0 -0.015,10e-4 -2.33,0.578 -4.121,2.283 -4.834,4.483 0.534,-0.009 1.068,-0.021 1.6,-0.053 0.597,-1.474 1.842,-2.62 3.412,-3.067 0.047,-0.162 0.237,-0.806 0.237,-0.806 0.019,-0.061 0.063,-0.108 0.121,-0.131 0,0 0.998,-0.373 1.664,-0.623 C -1.506,6.291 -1.734,6.273 -1.96,6.273 Z m -6.964,5.176 c -1.697,0 -3.826,-0.184 -3.826,-0.184 -0.052,0.627 -0.14,1.251 -0.263,1.864 1.361,0.217 2.733,0.332 4.081,0.332 1.375,0 2.747,-0.113 4.084,-0.332 -0.119,-0.595 -0.209,-1.219 -0.268,-1.864 0,0 -2.11,0.184 -3.808,0.184 z m -5.475,-4.931 c -0.007,-10e-4 -0.01,-10e-4 -0.014,-10e-4 -0.71,-0.233 -1.454,-0.299 -2.182,-0.196 0.665,0.251 1.655,0.623 1.655,0.623 0.058,0.023 0.101,0.07 0.12,0.131 0,0 0.189,0.644 0.237,0.806 1.571,0.45 2.813,1.594 3.409,3.064 0.548,0.033 1.097,0.047 1.648,0.056 -0.757,-2.202 -2.561,-3.907 -4.873,-4.483 z m -8.456,1.045 c -0.093,0.318 -0.337,1.143 -0.401,1.368 1.31,0.669 2.772,1.026 4.234,1.026 1.474,0 2.935,-0.357 4.236,-1.029 -0.067,-0.224 -0.308,-1.047 -0.398,-1.365 -2.385,1.33 -5.277,1.33 -7.671,0 z m -0.632,-1.402 c -1.672,0 -3.321,0.388 -4.812,1.125 0.625,-0.007 1.334,-0.016 1.334,-0.016 0.075,-0.002 0.144,0.041 0.178,0.108 0.014,0.028 0.022,0.059 0.022,0.091 0,0.041 -0.014,0.084 -0.041,0.119 0,0 -0.38,0.504 -0.745,0.983 1.298,-0.625 2.717,-0.946 4.166,-0.929 0.055,-0.182 0.167,-0.567 0.167,-0.567 0.018,-0.058 0.061,-0.108 0.116,-0.129 0,0 0.912,-0.363 1.537,-0.613 -0.642,-0.115 -1.288,-0.172 -1.922,-0.172 z m 13.376,7.719 c -0.446,-0.021 -0.891,-0.057 -1.337,-0.1 -0.434,2.026 -1.178,3.989 -2.222,5.836 0.925,1.374 2.147,2.541 3.548,3.407 0,-0.574 0.008,-7.412 0.011,-9.143 z m 3.673,-0.095 c -0.443,0.043 -0.888,0.077 -1.334,0.098 0.002,1.736 0.013,8.557 0.014,9.131 1.395,-0.865 2.615,-2.03 3.547,-3.397 -1.044,-1.814 -1.79,-3.776 -2.227,-5.832 z m -9.632,6.504 c 1.628,2.737 4.151,4.858 7.121,5.98 2.976,-1.122 5.504,-3.241 7.132,-5.971 -1.393,-1.947 -2.43,-4.377 -2.977,-6.729 -0.366,0.061 -0.736,0.112 -1.106,0.157 0.441,1.973 1.191,4.013 2.2,5.741 l 0.063,0.106 0.038,0.065 -0.112,0.169 c -1.047,1.575 -2.461,2.902 -4.084,3.839 l -0.481,0.278 c 0,0 -0.015,-9.243 -0.016,-10.029 -0.213,0.006 -0.426,0.015 -0.64,0.015 -0.218,0 -0.44,-0.009 -0.661,-0.015 -0.002,0.793 -0.01,10.04 -0.01,10.04 l -0.483,-0.279 c -1.629,-0.939 -3.042,-2.271 -4.085,-3.851 l -0.108,-0.163 0.097,-0.172 c 1.007,-1.761 1.777,-3.804 2.218,-5.746 -0.369,-0.044 -0.738,-0.096 -1.105,-0.157 -0.548,2.338 -1.608,4.764 -3.001,6.722 z m 7.122,7.408 c 0.196,0 0.352,-0.156 0.352,-0.346 0,-0.17 -0.121,-0.315 -0.286,-0.347 l 0.011,0.002 c -0.027,-0.003 -0.053,-0.012 -0.077,-0.025 -0.022,0.013 -0.049,0.022 -0.078,0.025 l 0.012,-0.002 c -0.232,0.046 -0.298,0.23 -0.283,0.378 0.013,0.146 0.115,0.315 0.349,0.315 z M 11.216,7.692 c 0,0 -1.201,-0.014 -1.736,-0.02 0.325,0.425 1.062,1.388 1.062,1.388 0.025,0.037 0.04,0.08 0.04,0.12 0,0.048 -0.018,0.097 -0.052,0.134 -0.063,0.07 -0.168,0.087 -0.249,0.037 C 8.875,8.494 7.256,8.04 5.6,8.04 H 5.52 l 0.276,0.935 c 0.028,0.091 -0.012,0.186 -0.097,0.23 -2.854,1.531 -6.269,1.531 -9.131,0 C -3.514,9.161 -3.554,9.063 -3.527,8.974 L -3.326,8.306 C -4.651,8.724 -5.712,9.68 -6.275,10.913 -5.8,10.881 -5.323,10.85 -4.85,10.799 h 0.003 c 0.108,-0.012 0.206,0.07 0.217,0.176 v 0.021 c 0,0.033 -0.009,0.061 -0.021,0.088 0.063,0.764 0.164,1.502 0.311,2.197 0.004,0.014 0.006,0.026 0.006,0.043 0,0.003 -0.004,0.006 -0.004,0.009 0.524,2.456 1.584,4.822 3.064,6.841 l 0.077,0.102 -0.065,0.113 c -1.639,2.838 -4.209,5.052 -7.257,6.266 0.237,0.146 0.39,0.408 0.39,0.697 0,0.448 -0.367,0.814 -0.819,0.814 -0.511,0 -0.781,-0.383 -0.815,-0.739 -0.002,-0.025 -0.003,-0.052 -0.003,-0.081 0,-0.258 0.117,-0.534 0.381,-0.692 -3.04,-1.214 -5.604,-3.43 -7.239,-6.276 l -0.064,-0.111 0.075,-0.103 c 1.486,-2.038 2.548,-4.413 3.077,-6.869 l 0.038,-0.187 0.007,10e-4 c 0.137,-0.7 0.236,-1.412 0.288,-2.128 0.008,-0.106 0.099,-0.186 0.204,-0.183 0.008,0 0.012,0.003 0.018,0.004 0.007,-10e-4 0.002,0 0.017,0.002 0.448,0.047 0.899,0.075 1.348,0.107 -0.561,-1.228 -1.617,-2.181 -2.938,-2.602 l 0.194,0.666 c 0.026,0.091 -0.014,0.186 -0.095,0.23 -1.395,0.752 -2.974,1.148 -4.567,1.148 -1.577,0 -3.147,-0.393 -4.548,-1.135 -0.007,-0.004 -0.014,-0.008 -0.02,-0.013 l -0.016,-0.01 c -0.07,-0.051 -0.103,-0.138 -0.078,-0.22 l 0.275,-0.933 c -1.674,-0.015 -3.312,0.428 -4.742,1.301 -0.081,0.046 -0.186,0.031 -0.25,-0.039 -0.036,-0.039 -0.052,-0.086 -0.052,-0.134 0,-0.041 0.015,-0.084 0.042,-0.12 0,0 0.723,-0.955 1.044,-1.378 -0.532,0.006 -1.735,0.02 -1.735,0.02 -0.091,10e-4 -0.171,-0.059 -0.194,-0.144 -0.025,-0.087 0.012,-0.179 0.091,-0.226 1.729,-1.019 3.707,-1.558 5.718,-1.558 0.876,0 1.769,0.107 2.652,0.318 0.085,0.019 0.146,0.09 0.153,0.176 v 0.015 c 0,0.001 -0.002,0.003 -0.002,0.005 0.02,0.043 0.029,0.088 0.016,0.136 l -0.435,1.451 c 1.355,0.393 2.789,0.399 4.143,0.01 l -0.532,-1.441 c -0.018,-0.044 -0.01,-0.092 0.005,-0.135 -0.001,-0.011 -0.009,-0.02 -0.009,-0.031 V 6.261 c 0.005,-0.086 0.062,-0.16 0.145,-0.184 1.002,-0.285 2.056,-0.262 3.055,0.06 2.49,0.624 4.426,2.482 5.194,4.874 0.12,0.001 0.241,0.001 0.361,0.001 0.303,-0.998 0.815,-1.922 1.527,-2.706 0.965,-1.068 2.221,-1.818 3.628,-2.169 0.534,-0.173 1.08,-0.259 1.626,-0.259 0.486,0 0.97,0.066 1.436,0.199 0.082,0.024 0.14,0.098 0.145,0.184 v 0.007 c 0,0.035 -0.015,0.066 -0.032,0.095 0,0.022 0.004,0.042 -0.004,0.061 L -0.95,7.867 c 0.675,0.195 1.375,0.301 2.085,0.301 0.721,0 1.433,-0.112 2.12,-0.316 L 2.827,6.423 C 2.816,6.385 2.817,6.345 2.828,6.308 2.825,6.294 2.816,6.282 2.816,6.268 V 6.251 C 2.823,6.168 2.883,6.096 2.967,6.076 5.827,5.39 8.793,5.833 11.319,7.322 11.397,7.369 11.434,7.461 11.41,7.548 11.386,7.633 11.306,7.693 11.216,7.692 Z M -14.291,6.139 c -0.002,0 -0.003,-0.002 -0.005,-0.002 -0.002,-10e-4 -0.005,-0.003 -0.008,-0.003 0.004,0 0.008,0.003 0.013,0.005" />
      </g>
    </g>
  </g>
</svg>
