<?xml version="1.0" encoding="UTF-8" standalone="no"?>
<svg
   xmlns:dc="http://purl.org/dc/elements/1.1/"
   xmlns:cc="http://creativecommons.org/ns#"
   xmlns:rdf="http://www.w3.org/1999/02/22-rdf-syntax-ns#"
   xmlns:svg="http://www.w3.org/2000/svg"
   xmlns="http://www.w3.org/2000/svg"
   xmlns:sodipodi="http://sodipodi.sourceforge.net/DTD/sodipodi-0.dtd"
   xmlns:inkscape="http://www.inkscape.org/namespaces/inkscape"
   width="18.280239mm"
   height="16.121944mm"
   viewBox="0 0 18.280239 16.121945"
   version="1.1"
   id="svg52138"
   inkscape:version="1.0.1 (3bc2e813f5, 2020-09-07)"
   sodipodi:docname="kilvington-grammar-school.svg">
  <defs
     id="defs52132">
    <clipPath
       id="clipPath59448"
       clipPathUnits="userSpaceOnUse">
      <path
         inkscape:connector-curvature="0"
         id="path59446"
         d="M 605.535,17.008 H 695 v 70.387 h -89.465 z" />
    </clipPath>
    <clipPath
       id="clipPath59542"
       clipPathUnits="userSpaceOnUse">
      <path
         inkscape:connector-curvature="0"
         id="path59540"
         d="M 668.71091,59.18945 V 85.631426 H 631.9271 V 59.18945 Z" />
    </clipPath>
    <linearGradient
       id="linearGradient59550"
       spreadMethod="pad"
       gradientTransform="matrix(0,26.441986,-26.441986,0,650.29399,59.195099)"
       gradientUnits="userSpaceOnUse"
       y2="0"
       x2="1"
       y1="0"
       x1="0">
      <stop
         id="stop59544"
         offset="0"
         style="stop-opacity:1;stop-color:#123165" />
      <stop
         id="stop59546"
         offset="0.62148859"
         style="stop-opacity:1;stop-color:#0685c4" />
      <stop
         id="stop59548"
         offset="1"
         style="stop-opacity:1;stop-color:#0685c4" />
    </linearGradient>
    <clipPath
       id="clipPath59560"
       clipPathUnits="userSpaceOnUse">
      <path
         inkscape:connector-curvature="0"
         id="path59558"
         d="M 605.535,17.008 H 695 v 70.387 h -89.465 z" />
    </clipPath>
    <clipPath
       id="clipPath59586"
       clipPathUnits="userSpaceOnUse">
      <path
         inkscape:connector-curvature="0"
         id="path59584"
         d="m 629.10539,43.557811 h 42.7677 v 12.666638 h -42.7677 z" />
    </clipPath>
    <linearGradient
       id="linearGradient59594"
       spreadMethod="pad"
       gradientTransform="matrix(42.7677,0,0,42.7677,629.13084,49.93486)"
       gradientUnits="userSpaceOnUse"
       y2="0"
       x2="1"
       y1="0"
       x1="0">
      <stop
         id="stop59588"
         offset="0"
         style="stop-opacity:1;stop-color:#123165" />
      <stop
         id="stop59590"
         offset="0.5"
         style="stop-opacity:1;stop-color:#0685c4" />
      <stop
         id="stop59592"
         offset="1"
         style="stop-opacity:1;stop-color:#123165" />
    </linearGradient>
    <clipPath
       id="clipPath59604"
       clipPathUnits="userSpaceOnUse">
      <path
         inkscape:connector-curvature="0"
         id="path59602"
         d="M 605.535,17.008 H 695 v 70.387 h -89.465 z" />
    </clipPath>
  </defs>
  <sodipodi:namedview
     id="base"
     pagecolor="#ffffff"
     bordercolor="#666666"
     borderopacity="1.0"
     inkscape:pageopacity="0.0"
     inkscape:pageshadow="2"
     inkscape:zoom="7.9195959"
     inkscape:cx="-12.737899"
     inkscape:cy="29.954467"
     inkscape:document-units="mm"
     inkscape:current-layer="g59600"
     showgrid="false"
     inkscape:pagecheckerboard="true"
     fit-margin-top="0"
     fit-margin-left="0"
     fit-margin-right="0"
     fit-margin-bottom="0"
     inkscape:window-width="1920"
     inkscape:window-height="1000"
     inkscape:window-x="1920"
     inkscape:window-y="0"
     inkscape:window-maximized="1"
     inkscape:document-rotation="0" />
  <metadata
     id="metadata52135">
    <rdf:RDF>
      <cc:Work
         rdf:about="">
        <dc:format>image/svg+xml</dc:format>
        <dc:type
           rdf:resource="http://purl.org/dc/dcmitype/StillImage" />
        <dc:title />
      </cc:Work>
    </rdf:RDF>
  </metadata>
  <g
     inkscape:label="Layer 1"
     inkscape:groupmode="layer"
     id="layer1"
     transform="translate(-215.454,-354.91262)">
    <g
       id="g60223">
      <g
         transform="matrix(0.35277777,0,0,-0.35277777,-4.8239283,385.74392)"
         id="g59442">
        <g
           clip-path="url(#clipPath59448)"
           id="g59444">
          <g
             transform="translate(650.4136,42.1635)"
             id="g59490">
            <path
               inkscape:connector-curvature="0"
               id="path59492"
               style="fill:#ffffff;fill-opacity:1;fill-rule:nonzero;stroke:none"
               d="m 0,0 c -6.022,0.104 -10.595,2.003 -15.785,6.55 -1.107,0.966 -2.061,1.798 -3.666,1.798 -0.854,-0.008 -2.701,-0.75 -4.476,-1.51 0.298,0.699 0.656,1.54 0.793,1.845 0.414,0.917 0.844,1.806 1.546,2.595 l 0.466,0.524 -0.662,0.229 c -0.995,0.343 -2.035,0.564 -3.052,0.769 2.126,1.489 3.831,2.656 6.678,2.656 0.541,0 1.071,-0.061 1.622,-0.188 l 0.572,-0.131 -10e-4,21.918 c 0,3.446 -2.725,4.638 -2.842,4.687 -0.683,0.294 -1.072,1.036 -0.923,1.765 0.149,0.728 0.798,1.258 1.541,1.258 h 36.188 c 0.743,0 1.393,-0.528 1.543,-1.256 0.147,-0.729 -0.238,-1.472 -0.92,-1.765 -0.113,-0.048 -2.847,-1.235 -2.847,-4.689 V 15.024 l 0.591,0.162 c 0.661,0.182 1.297,0.27 1.946,0.27 2.844,0 4.464,-1.147 6.389,-2.644 -0.966,-0.181 -1.796,-0.378 -2.834,-0.765 L 21.233,11.81 21.679,11.301 C 22.102,10.816 22.413,10.4 22.628,10.03 23.151,9.126 23.517,8.177 23.905,7.172 23.939,7.083 23.974,6.993 24.009,6.903 22.164,7.682 20.438,8.345 19.642,8.348 18.173,8.348 17.008,7.461 15.944,6.554 10.676,1.941 6.252,0.104 0.163,0.002 Z" />
          </g>
          <g
             transform="translate(638.6232,56.5453)"
             id="g59494">
            <path
               inkscape:connector-curvature="0"
               id="path59496"
               style="fill:#ac0671;fill-opacity:1;fill-rule:nonzero;stroke:none"
               d="m 0,0 c 6.162,5.086 11.696,7.707 11.696,7.707 0,0 5.686,-2.667 11.873,-7.833 0.834,0.648 1.723,1.242 2.692,1.696 -7.589,4.253 -14.565,7.057 -14.565,7.057 0,0 -6.974,-2.657 -14.564,-6.911 C -1.829,1.276 -0.882,0.672 0,0" />
          </g>
          <g
             transform="translate(646.2709,61.0266)"
             id="g59498">
            <path
               inkscape:connector-curvature="0"
               id="path59500"
               style="fill:#123165;fill-opacity:1;fill-rule:nonzero;stroke:none"
               d="M 0,0 C -0.617,-0.396 -1.28,-0.835 -1.97,-1.31 0.457,-6.495 4.126,-9.121 4.133,-9.129 4.127,-9.124 0.8,-6.314 0,0" />
          </g>
          <g
             transform="translate(643.4462,59.1173)"
             id="g59502">
            <path
               inkscape:connector-curvature="0"
               id="path59504"
               style="fill:#123165;fill-opacity:1;fill-rule:nonzero;stroke:none"
               d="M 0,0 C -0.546,-0.387 -1.104,-0.795 -1.67,-1.225 3.029,-5.196 6.957,-7.219 6.957,-7.219 6.953,-7.217 2.965,-4.796 0,0" />
          </g>
          <g
             transform="translate(657.3088,59.0361)"
             id="g59506">
            <path
               inkscape:connector-curvature="0"
               id="path59508"
               style="fill:#123165;fill-opacity:1;fill-rule:nonzero;stroke:none"
               d="m 0,0 c -2.922,-4.701 -6.828,-7.091 -6.898,-7.132 0.049,0.034 3.649,2.63 6.052,7.726 C -1.524,1.064 -2.178,1.5 -2.788,1.892 -3.587,-4.32 -6.864,-7.104 -6.9,-7.134 l -10e-4,-10e-4 -0.002,-0.002 c 0.031,0.016 3.901,2.015 8.546,5.926 C 1.087,-0.787 0.539,-0.384 0,0" />
          </g>
          <g
             transform="translate(659.3782,57.497)"
             id="g59510">
            <path
               inkscape:connector-curvature="0"
               id="path59512"
               style="fill:#123165;fill-opacity:1;fill-rule:nonzero;stroke:none"
               d="m 0,0 v -3.515 c 0.131,0.116 0.262,0.228 0.393,0.351 l 0.1,0.09 c 0.509,0.46 1.034,0.933 1.58,1.392 C 1.383,-1.093 0.689,-0.534 0,0" />
          </g>
          <g
             transform="translate(641.4316,57.6274)"
             id="g59514">
            <path
               inkscape:connector-curvature="0"
               id="path59516"
               style="fill:#123165;fill-opacity:1;fill-rule:nonzero;stroke:none"
               d="m 0,0 c -0.687,-0.528 -1.382,-1.084 -2.073,-1.668 0.608,-0.503 1.188,-1.025 1.75,-1.532 L -0.24,-3.275 C -0.16,-3.351 -0.08,-3.417 0,-3.49 Z" />
          </g>
          <g
             transform="translate(650.4037,51.8981)"
             id="g59518">
            <path
               inkscape:connector-curvature="0"
               id="path59520"
               style="fill:#123165;fill-opacity:1;fill-rule:nonzero;stroke:none"
               d="M 0,0 0.001,0.001 C 0.015,0.015 2.982,2.962 3.313,9.541 1.69,10.557 0.449,11.246 -0.085,11.533 -0.6,11.255 -1.78,10.6 -3.324,9.639 -3.008,2.976 -0.005,0.006 0,0" />
          </g>
          <g
             transform="translate(650.3254,51.9035)"
             id="g59522">
            <path
               inkscape:connector-curvature="0"
               id="path59524"
               style="fill:#ffffff;fill-opacity:1;fill-rule:nonzero;stroke:none"
               d="M 0,0 -0.001,-0.002 H -0.003 Z" />
          </g>
        </g>
      </g>
      <g
         transform="matrix(0.35277777,0,0,-0.35277777,-4.8239283,385.74392)"
         id="g59526">
        <g
           id="g59528">
          <g
             id="g59534">
            <g
               id="g59536">
              <g
                 clip-path="url(#clipPath59542)"
                 id="g59538">
                <path
                   inkscape:connector-curvature="0"
                   id="path59552"
                   style="fill:url(#linearGradient59550);stroke:none"
                   d="m 632.225,85.631 c -0.129,0 -0.246,-0.094 -0.271,-0.222 v 0 c -0.027,-0.126 0.042,-0.261 0.161,-0.31 v 0 c 0.148,-0.065 3.63,-1.611 3.63,-5.881 v 0 -20.029 c 7.208,3.977 13.745,6.557 14.354,6.741 v 0 l 0.186,0.057 0.19,-0.057 c 0.606,-0.184 7.206,-2.764 14.412,-6.741 v 0 l 0.005,20.029 c 0,4.281 3.486,5.818 3.632,5.881 v 0 c 0.117,0.049 0.187,0.184 0.162,0.31 v 0 c -0.026,0.128 -0.144,0.222 -0.273,0.222 v 0 z" />
              </g>
            </g>
          </g>
        </g>
      </g>
      <g
         transform="matrix(0.35277777,0,0,-0.35277777,-4.8239283,385.74392)"
         id="g59554">
        <g
           clip-path="url(#clipPath59560)"
           id="g59556">
          <g
             transform="translate(645.2173,68.8399)"
             id="g59562">
            <path
               inkscape:connector-curvature="0"
               id="path59564"
               style="fill:#efb409;fill-opacity:1;fill-rule:nonzero;stroke:none"
               d="M 0,0 -0.002,10.361 -1.049,9.308 -1.051,-0.465 c -3.561,-1.66 -4.977,-3.828 -4.977,-3.828 2.751,2.145 5.337,2.641 9.005,2.641 0.726,0 2.067,-0.048 2.067,-0.048 l 2.427,2.431 c 0,0 -1.031,0.166 -1.755,0.166 C 3.401,0.897 1.831,0.721 0,0" />
          </g>
          <g
             transform="translate(657.6791,68.7761)"
             id="g59566">
            <path
               inkscape:connector-curvature="0"
               id="path59568"
               style="fill:#efb409;fill-opacity:1;fill-rule:nonzero;stroke:none"
               d="m 0,0 -5.033,9.241 4.648,4.643 c -1.392,-0.218 -2.643,0.078 -3.966,1.138 l -2.599,-2.55 c 0.81,-0.46 1.886,-0.678 2.992,-0.495 l -4.45,-4.435 v 6.296 0.656 c 0,0 -0.53,-0.642 -1.265,-0.642 -1.746,0 -2.005,1.861 -3.636,1.861 -0.463,0 -0.716,-0.131 -0.962,-0.36 l -3.179,-3.176 v -0.085 c 1.055,0.975 1.217,1.164 2.064,1.164 0.087,0 0.771,-0.046 1.258,-0.518 0.602,-0.551 1.011,-1.342 2.151,-1.342 0.248,0 0.472,0.077 0.662,0.174 l -0.593,-0.586 -0.006,-10.07 3.183,2.643 c 0.214,0.216 0.326,0.516 0.326,0.862 V 5.86 l 1.147,1.153 5.166,-9.885 3.259,3.877 -0.073,0.159 z" />
          </g>
        </g>
      </g>
      <g
         transform="matrix(0.35277777,0,0,-0.35277777,-4.8239283,385.74392)"
         id="g59570">
        <g
           id="g59572">
          <g
             id="g59578">
            <g
               id="g59580">
              <g
                 clip-path="url(#clipPath59586)"
                 id="g59582">
                <path
                   inkscape:connector-curvature="0"
                   id="path59596"
                   style="fill:url(#linearGradient59594);stroke:none"
                   d="m 661.826,52.365 c -4.838,-4.614 -10.286,-4.73 -11.275,-4.705 v 0 l -0.119,-0.002 c -0.986,-0.021 -6.441,0.093 -11.278,4.707 v 0 c -1.838,1.66 -4.13,3.86 -6.899,3.86 v 0 c -1.134,0 -2.207,-0.255 -3.15,-0.705 v 0 c 0.581,-0.207 1.214,-0.417 2.315,-1.146 v 0 L 631.865,53.972 631.2,53.6 c -0.764,-0.515 -1.403,-1.214 -1.85,-1.975 v 0 c 0.494,0.144 1.083,0.277 1.578,0.277 v 0 c 2.038,0 3.659,-1.015 4.847,-2.254 v 0 c 4.731,-4.136 8.767,-5.993 14.644,-6.091 v 0 h 0.017 c 6.298,0.102 10.278,2.166 14.768,6.091 v 0 c 1.189,1.239 2.809,2.254 4.85,2.254 v 0 c 0.493,0 1.082,-0.133 1.576,-0.277 v 0 c -0.447,0.761 -1.088,1.46 -1.847,1.975 v 0 l -0.569,0.372 0.398,0.292 c 0.613,0.457 1.681,1.049 2.26,1.256 v 0 c -0.941,0.45 -2.011,0.705 -3.147,0.705 v 0 c -2.766,0 -5.059,-2.2 -6.899,-3.86" />
              </g>
            </g>
          </g>
        </g>
      </g>
      <g
         transform="matrix(0.35277777,0,0,-0.35277777,-4.8239283,385.74392)"
         id="g59598">
        <g
           clip-path="url(#clipPath59604)"
           id="g59600">
          <g
             transform="translate(633.3699,53.2252)"
             id="g59606">
            <path
               inkscape:connector-curvature="0"
               id="path59608"
               style="fill:#ffffff;fill-opacity:1;fill-rule:nonzero;stroke:none"
               d="M 0,0 0.175,-0.107 0.793,0.889 0.616,0.997 0.793,1.282 1.364,0.929 1.341,-0.204 C 1.34,-0.291 1.307,-0.406 1.307,-0.406 l 0.01,-0.005 c 0,0 0.053,0.113 0.095,0.184 L 1.74,0.303 1.557,0.415 1.733,0.701 2.485,0.236 2.308,-0.049 2.133,0.06 1.34,-1.221 0.945,-0.977 0.964,0.153 c 0,0.086 0.033,0.2 0.033,0.2 L 0.989,0.359 c 0,0 -0.052,-0.112 -0.096,-0.184 L 0.568,-0.349 0.753,-0.464 0.575,-0.75 l -0.75,0.467 z" />
          </g>
          <g
             transform="translate(635.9965,51.4166)"
             id="g59610">
            <path
               inkscape:connector-curvature="0"
               id="path59612"
               style="fill:#ffffff;fill-opacity:1;fill-rule:nonzero;stroke:none"
               d="M 0,0 C 0.21,-0.173 0.534,-0.128 0.739,0.12 0.937,0.356 0.917,0.678 0.708,0.851 0.499,1.025 0.179,0.988 -0.016,0.75 -0.224,0.502 -0.207,0.174 0,0 M 0.961,1.16 C 1.395,0.799 1.444,0.221 1.106,-0.185 0.76,-0.601 0.175,-0.666 -0.255,-0.305 -0.688,0.053 -0.732,0.637 -0.385,1.054 -0.046,1.462 0.531,1.518 0.961,1.16" />
          </g>
          <g
             transform="translate(636.9036,50.5948)"
             id="g59614">
            <path
               inkscape:connector-curvature="0"
               id="path59616"
               style="fill:#ffffff;fill-opacity:1;fill-rule:nonzero;stroke:none"
               d="M 0,0 0.158,-0.133 0.913,0.76 0.755,0.893 0.971,1.148 1.486,0.717 1.296,-0.401 C 1.281,-0.485 1.234,-0.593 1.234,-0.593 l 0.007,-0.009 c 0,0 0.069,0.106 0.122,0.169 L 1.765,0.041 1.598,0.181 1.814,0.436 2.488,-0.133 2.272,-0.388 2.115,-0.257 1.146,-1.403 0.792,-1.104 0.975,0.007 C 0.989,0.094 1.037,0.201 1.037,0.201 L 1.03,0.208 c 0,0 -0.069,-0.104 -0.122,-0.167 L 0.51,-0.429 0.675,-0.571 0.46,-0.824 -0.215,-0.257 Z" />
          </g>
          <g
             transform="translate(639.401,48.5412)"
             id="g59618">
            <path
               inkscape:connector-curvature="0"
               id="path59620"
               style="fill:#ffffff;fill-opacity:1;fill-rule:nonzero;stroke:none"
               d="M 0,0 0.168,-0.115 0.826,0.855 0.656,0.97 0.844,1.247 1.4,0.871 1.329,-0.263 C 1.324,-0.347 1.288,-0.459 1.288,-0.459 l 0.008,-0.007 c 0,0 0.057,0.111 0.104,0.179 L 1.747,0.23 1.57,0.351 1.757,0.629 2.488,0.132 2.3,-0.146 2.131,-0.029 1.286,-1.277 0.903,-1.016 0.966,0.114 C 0.973,0.198 1.008,0.313 1.008,0.313 L 1,0.317 C 1,0.317 0.942,0.208 0.899,0.139 L 0.55,-0.373 0.73,-0.494 0.542,-0.773 -0.189,-0.276 Z" />
          </g>
          <g
             transform="translate(642.1998,46.8468)"
             id="g59622">
            <path
               inkscape:connector-curvature="0"
               id="path59624"
               style="fill:#ffffff;fill-opacity:1;fill-rule:nonzero;stroke:none"
               d="M 0,0 C 0.24,-0.122 0.547,-0.012 0.696,0.276 0.837,0.551 0.746,0.858 0.505,0.983 0.266,1.103 -0.038,0.999 -0.179,0.725 -0.326,0.439 -0.242,0.123 0,0 m 0.687,1.334 c 0.5,-0.256 0.671,-0.807 0.43,-1.275 -0.247,-0.482 -0.801,-0.67 -1.3,-0.414 -0.5,0.258 -0.667,0.818 -0.421,1.298 0.242,0.47 0.791,0.65 1.291,0.391" />
          </g>
          <g
             transform="translate(644.4731,46.6895)"
             id="g59626">
            <path
               inkscape:connector-curvature="0"
               id="path59628"
               style="fill:#ffffff;fill-opacity:1;fill-rule:nonzero;stroke:none"
               d="M 0,0 C 0.107,-0.037 0.18,0.021 0.214,0.114 0.235,0.171 0.233,0.245 0.187,0.291 0.16,0.314 0.131,0.328 0.086,0.343 L -0.093,0.409 -0.214,0.077 Z m -0.224,-0.731 c 0.03,-0.013 0.06,-0.017 0.085,-0.016 0.079,0.005 0.144,0.073 0.172,0.152 0.037,0.102 0.006,0.201 -0.117,0.245 l -0.252,0.089 -0.138,-0.381 z M -1.105,-0.44 -0.916,-0.509 -0.515,0.588 -0.71,0.659 -0.595,0.973 0.21,0.681 C 0.347,0.633 0.429,0.596 0.514,0.53 0.673,0.402 0.739,0.21 0.668,0.008 0.614,-0.142 0.489,-0.263 0.328,-0.286 L 0.326,-0.293 c 0.182,-0.136 0.192,-0.33 0.132,-0.493 -0.095,-0.264 -0.339,-0.369 -0.56,-0.345 -0.1,0.01 -0.171,0.034 -0.266,0.069 l -0.852,0.309 z" />
          </g>
          <g
             transform="translate(645.2272,45.6112)"
             id="g59630">
            <path
               inkscape:connector-curvature="0"
               id="path59632"
               style="fill:#ffffff;fill-opacity:1;fill-rule:nonzero;stroke:none"
               d="M 0,0 0.2,-0.049 0.489,1.085 0.29,1.139 0.372,1.461 1.217,1.245 1.136,0.919 0.935,0.972 0.645,-0.163 0.846,-0.214 0.763,-0.538 -0.083,-0.324 Z" />
          </g>
          <g
             transform="translate(646.8878,45.559)"
             id="g59634">
            <path
               inkscape:connector-curvature="0"
               id="path59636"
               style="fill:#ffffff;fill-opacity:1;fill-rule:nonzero;stroke:none"
               d="m 0,0 -0.022,-0.138 c -0.015,-0.092 0.096,-0.165 0.236,-0.187 0.142,-0.026 0.252,0.009 0.268,0.107 0.026,0.139 -0.168,0.216 -0.347,0.324 -0.23,0.134 -0.443,0.294 -0.388,0.627 0.068,0.404 0.42,0.474 0.74,0.421 0.312,-0.05 0.6,-0.219 0.561,-0.45 L 1.005,0.434 0.598,0.501 0.617,0.614 C 0.629,0.687 0.539,0.742 0.424,0.76 0.319,0.778 0.223,0.764 0.206,0.669 0.187,0.544 0.328,0.465 0.482,0.379 0.745,0.237 1.003,0.075 0.945,-0.268 0.878,-0.681 0.495,-0.776 0.149,-0.721 c -0.337,0.058 -0.643,0.264 -0.595,0.555 l 0.04,0.233 z" />
          </g>
          <g
             transform="translate(649.4543,45.2672)"
             id="g59638">
            <path
               inkscape:connector-curvature="0"
               id="path59640"
               style="fill:#ffffff;fill-opacity:1;fill-rule:nonzero;stroke:none"
               d="M 0,0 -0.005,-0.136 C -0.01,-0.231 0.109,-0.29 0.254,-0.295 0.398,-0.299 0.503,-0.251 0.507,-0.153 0.51,-0.012 0.308,0.038 0.118,0.123 -0.129,0.227 -0.359,0.354 -0.346,0.693 -0.332,1.102 0.006,1.218 0.334,1.208 0.646,1.199 0.955,1.068 0.946,0.834 L 0.937,0.56 0.525,0.575 0.529,0.692 C 0.532,0.761 0.436,0.804 0.32,0.808 0.215,0.811 0.122,0.785 0.116,0.687 0.114,0.564 0.263,0.504 0.429,0.439 0.706,0.332 0.982,0.206 0.97,-0.141 0.957,-0.561 0.589,-0.704 0.24,-0.692 c -0.342,0.01 -0.669,0.175 -0.662,0.471 l 0.008,0.235 z" />
          </g>
          <g
             transform="translate(650.7823,44.9198)"
             id="g59642">
            <path
               inkscape:connector-curvature="0"
               id="path59644"
               style="fill:#ffffff;fill-opacity:1;fill-rule:nonzero;stroke:none"
               d="M 0,0 0.206,0.009 0.151,1.178 -0.055,1.171 -0.071,1.504 1.349,1.57 1.374,1.026 0.988,1.01 0.978,1.191 0.615,1.174 0.631,0.803 1.168,0.827 1.185,0.465 0.647,0.441 0.665,0.057 1.062,0.073 1.053,0.256 1.439,0.276 1.463,-0.268 0.016,-0.335 Z" />
          </g>
          <g
             transform="translate(653.4322,45.1535)"
             id="g59646">
            <path
               inkscape:connector-curvature="0"
               id="path59648"
               style="fill:#ffffff;fill-opacity:1;fill-rule:nonzero;stroke:none"
               d="M 0,0 C 0.111,0.017 0.195,0.042 0.269,0.091 0.413,0.193 0.478,0.387 0.444,0.629 0.402,0.898 0.265,1.057 0.087,1.104 0.003,1.126 -0.072,1.12 -0.164,1.105 L -0.296,1.086 -0.133,-0.02 Z m -0.788,-0.14 0.206,0.029 -0.171,1.157 -0.206,-0.031 -0.046,0.331 0.801,0.117 C -0.066,1.484 0.055,1.497 0.174,1.48 0.552,1.432 0.846,1.155 0.914,0.699 0.974,0.285 0.805,-0.058 0.491,-0.23 0.364,-0.297 0.229,-0.33 0.064,-0.354 l -0.803,-0.12 z" />
          </g>
          <g
             transform="translate(656.5731,45.904)"
             id="g59650">
            <path
               inkscape:connector-curvature="0"
               id="path59652"
               style="fill:#ffffff;fill-opacity:1;fill-rule:nonzero;stroke:none"
               d="M 0,0 C 0.257,0.086 0.387,0.385 0.282,0.69 0.183,0.983 -0.103,1.129 -0.357,1.041 -0.615,0.955 -0.747,0.664 -0.648,0.373 -0.543,0.066 -0.253,-0.09 0,0 M -0.487,1.419 C 0.045,1.603 0.562,1.345 0.734,0.846 0.909,0.333 0.661,-0.198 0.131,-0.38 -0.4,-0.561 -0.923,-0.294 -1.098,0.218 c -0.171,0.5 0.08,1.021 0.611,1.201" />
          </g>
          <g
             transform="translate(657.8111,46.3008)"
             id="g59654">
            <path
               inkscape:connector-curvature="0"
               id="path59656"
               style="fill:#ffffff;fill-opacity:1;fill-rule:nonzero;stroke:none"
               d="m 0,0 0.177,0.095 -0.464,1.077 -0.182,-0.097 -0.156,0.296 0.637,0.34 0.7,-0.66 C 0.799,0.97 0.847,0.908 0.847,0.908 l 0.004,0.003 c 0,0 -0.025,0.073 -0.043,0.192 L 0.65,2.051 1.289,2.388 1.444,2.094 1.265,1.998 1.9,1.012 2.077,1.107 2.234,0.812 1.499,0.418 1.343,0.714 1.504,0.8 1.155,1.364 C 1.114,1.428 1.066,1.548 1.066,1.548 L 1.058,1.545 c 0,0 0.039,-0.116 0.05,-0.197 L 1.208,0.643 0.868,0.462 0.34,0.941 C 0.279,0.995 0.205,1.09 0.205,1.09 L 0.196,1.083 c 0,0 0.073,-0.105 0.107,-0.175 L 0.573,0.306 0.735,0.391 0.892,0.096 0.156,-0.297 Z" />
          </g>
          <g
             transform="translate(660.2258,47.644)"
             id="g59658">
            <path
               inkscape:connector-curvature="0"
               id="path59660"
               style="fill:#ffffff;fill-opacity:1;fill-rule:nonzero;stroke:none"
               d="M 0,0 0.165,0.12 -0.523,1.066 -0.689,0.946 -0.884,1.216 -0.34,1.61 0.699,1.16 C 0.779,1.128 0.872,1.054 0.872,1.054 l 0.006,0.007 c 0,0 -0.082,0.09 -0.132,0.156 L 0.38,1.723 0.205,1.594 0.008,1.866 0.723,2.385 0.92,2.113 0.753,1.991 1.635,0.775 1.263,0.501 0.224,0.948 C 0.144,0.982 0.051,1.054 0.051,1.054 L 0.043,1.049 c 0,0 0.085,-0.093 0.134,-0.159 L 0.541,0.389 0.713,0.518 0.911,0.247 0.197,-0.27 Z" />
          </g>
          <g
             transform="translate(662.0829,49.0394)"
             id="g59662">
            <path
               inkscape:connector-curvature="0"
               id="path59664"
               style="fill:#ffffff;fill-opacity:1;fill-rule:nonzero;stroke:none"
               d="M 0,0 0.158,0.131 -0.588,1.033 -0.747,0.904 -0.959,1.161 -0.286,1.716 -0.074,1.458 -0.233,1.327 0.513,0.425 0.674,0.557 0.886,0.298 0.215,-0.257 Z" />
          </g>
          <g
             transform="translate(663.7233,50.4566)"
             id="g59666">
            <path
               inkscape:connector-curvature="0"
               id="path59668"
               style="fill:#ffffff;fill-opacity:1;fill-rule:nonzero;stroke:none"
               d="M 0,0 C 0.026,0.023 0.044,0.044 0.055,0.068 0.09,0.138 0.066,0.226 0.01,0.292 -0.06,0.375 -0.161,0.397 -0.261,0.312 L -0.465,0.139 -0.203,-0.174 Z M -0.526,0.561 C -0.44,0.634 -0.455,0.726 -0.517,0.8 -0.559,0.851 -0.623,0.888 -0.686,0.867 -0.72,0.855 -0.744,0.838 -0.781,0.806 L -0.928,0.683 -0.7,0.414 Z m -0.167,-1.184 0.157,0.134 -0.76,0.891 -0.156,-0.133 -0.217,0.256 0.654,0.557 c 0.111,0.094 0.183,0.149 0.285,0.191 0.191,0.073 0.39,0.033 0.527,-0.126 0.106,-0.122 0.148,-0.292 0.09,-0.444 L -0.108,0.697 C 0.101,0.789 0.277,0.701 0.389,0.567 0.57,0.355 0.542,0.09 0.413,-0.092 0.351,-0.174 0.294,-0.226 0.217,-0.29 l -0.694,-0.586 z" />
          </g>
          <g
             transform="translate(663.8629,52.0786)"
             id="g59670">
            <path
               inkscape:connector-curvature="0"
               id="path59672"
               style="fill:#ffffff;fill-opacity:1;fill-rule:nonzero;stroke:none"
               d="M 0,0 -0.166,-0.123 -0.363,0.144 0.336,0.665 0.535,0.396 0.369,0.274 0.849,-0.37 c 0.047,-0.065 0.105,-0.113 0.156,-0.135 0.089,-0.037 0.198,-0.016 0.299,0.059 0.097,0.071 0.145,0.157 0.14,0.263 C 1.437,-0.122 1.409,-0.058 1.36,0.01 L 0.882,0.653 0.715,0.531 0.517,0.8 1.216,1.32 1.414,1.051 1.251,0.927 1.727,0.284 C 1.837,0.138 1.898,-0.038 1.892,-0.19 1.883,-0.414 1.734,-0.623 1.54,-0.766 1.329,-0.925 1.092,-0.987 0.892,-0.942 0.73,-0.906 0.595,-0.8 0.479,-0.644 Z" />
          </g>
          <g
             transform="translate(666.4277,52.785)"
             id="g59674">
            <path
               inkscape:connector-curvature="0"
               id="path59676"
               style="fill:#ffffff;fill-opacity:1;fill-rule:nonzero;stroke:none"
               d="M 0,0 0.059,-0.123 C 0.1,-0.208 0.231,-0.206 0.363,-0.144 0.491,-0.08 0.561,0.008 0.52,0.097 0.461,0.225 0.258,0.177 0.051,0.164 -0.217,0.14 -0.48,0.149 -0.624,0.454 -0.801,0.82 -0.555,1.08 -0.26,1.222 0.022,1.357 0.355,1.386 0.454,1.174 L 0.572,0.928 0.201,0.749 0.151,0.854 C 0.122,0.92 0.016,0.912 -0.09,0.863 -0.182,0.819 -0.255,0.749 -0.214,0.664 -0.158,0.551 0.002,0.568 0.178,0.586 0.473,0.619 0.775,0.636 0.927,0.324 1.106,-0.055 0.848,-0.352 0.534,-0.504 0.225,-0.65 -0.141,-0.659 -0.268,-0.391 l -0.103,0.214 z" />
          </g>
          <g
             transform="translate(670.0539,50.8668)"
             id="g59678">
            <path
               inkscape:connector-curvature="0"
               id="path59680"
               style="fill:#efb409;fill-opacity:1;fill-rule:nonzero;stroke:none"
               d="m 0,0 c -1.607,0.004 -2.968,-0.812 -4.041,-1.932 -4.888,-4.283 -9.204,-6.306 -15.444,-6.41 l -0.154,-0.002 c -6.236,0.106 -10.561,2.129 -15.45,6.412 -1.069,1.12 -2.43,1.936 -4.036,1.932 -1.043,-0.001 -2.743,-0.772 -3.689,-1.167 0,0 0.788,1.869 1.204,2.549 0.465,0.764 1.061,1.371 1.573,1.791 -1.145,0.516 -2.26,0.838 -3.5,1.094 1.85,1.27 3.301,2.125 5.739,2.125 0.771,0 1.498,-0.135 2.185,-0.365 0.151,-0.05 0.3,-0.107 0.448,-0.166 1.946,-0.782 3.58,-2.298 5.057,-3.633 4.536,-4.33 9.631,-4.424 10.465,-4.405 l 0.172,0.003 c 0.829,-0.022 5.919,0.072 10.454,4.402 1.388,1.257 2.916,2.671 4.712,3.486 0.144,0.065 0.289,0.126 0.437,0.184 0.007,0.003 0.015,0.005 0.022,0.008 0.148,0.057 0.296,0.109 0.448,0.157 0.653,0.206 1.34,0.329 2.069,0.329 2.439,0 3.89,-0.855 5.739,-2.125 C 3.172,4.011 2.057,3.689 0.912,3.173 2.425,1.924 2.974,0.532 3.689,-1.167 2.738,-0.772 1.044,-0.001 0,0 m -35.167,28.351 c 0,3.733 -2.982,5.039 -3.107,5.093 -0.495,0.211 -0.775,0.747 -0.667,1.272 0.108,0.526 0.576,0.907 1.112,0.907 h 36.188 c 0.536,0 1.004,-0.381 1.113,-0.907 C -0.42,34.191 -0.699,33.655 -1.192,33.444 -1.32,33.39 -4.303,32.092 -4.303,28.351 V 7.04 L -4.304,6.631 C -6.359,5.807 -8.065,4.249 -9.657,2.812 c -4.291,-4.099 -9.11,-4.181 -9.803,-4.16 l -0.197,-0.002 c -0.707,-0.013 -5.524,0.063 -9.812,4.162 -1.679,1.516 -3.486,3.163 -5.696,3.945 z M 2.39,2.905 C 3.756,3.414 4.727,3.58 6.174,3.834 3.796,5.675 2.079,7.22 -1.329,7.22 -2.058,7.22 -2.744,7.113 -3.398,6.934 V 7.04 28.351 c 0,3.138 2.453,4.213 2.564,4.259 0.885,0.381 1.386,1.342 1.193,2.292 -0.196,0.942 -1.037,1.627 -2,1.627 h -36.188 c -0.964,0 -1.806,-0.686 -2,-1.632 -0.193,-0.945 0.31,-1.907 1.199,-2.288 0.106,-0.045 2.557,-1.127 2.557,-4.258 l 10e-4,-21.33 c -0.55,0.126 -1.123,0.199 -1.726,0.199 -3.407,0 -5.324,-1.636 -7.846,-3.366 1.363,-0.281 2.756,-0.515 4.067,-0.969 -0.734,-0.825 -1.181,-1.735 -1.623,-2.714 -0.254,-0.562 -1.25,-2.924 -1.25,-2.924 0.87,0.361 4.286,1.92 5.325,1.93 1.41,0.011 2.221,-0.661 3.392,-1.682 5.005,-4.386 9.575,-6.554 16.092,-6.666 l 0.17,0.003 c 6.52,0.109 11.071,2.277 16.078,6.663 C -2.284,-1.56 -1.252,-0.823 0,-0.823 1.036,-0.826 4.352,-2.307 5.222,-2.672 4.623,-1.253 4.172,0.213 3.392,1.562 3.126,2.018 2.763,2.478 2.39,2.905" />
          </g>
        </g>
      </g>
    </g>
  </g>
</svg>
